Amatic.ufo
<glyph name="dollar" format="1">
  <advance width="538"/>
  <unicode hex="0024"/>
  <outline>
    <contour>
      <point x="274" y="23" type="curve"/>
      <point x="283" y="29" type="line"/>
      <point x="283" y="164" type="line"/>
      <point x="276" y="170" type="line"/>
      <point x="241" y="170"/>
      <point x="207" y="170"/>
      <point x="174" y="166" type="curve"/>
      <point x="141" y="189"/>
      <point x="102" y="225"/>
      <point x="102" y="268" type="curve" smooth="yes"/>
      <point x="102" y="280"/>
      <point x="109" y="289"/>
      <point x="121" y="289" type="curve" smooth="yes"/>
      <point x="125" y="289" type="line"/>
      <point x="176" y="258"/>
      <point x="133" y="205"/>
      <point x="221" y="205" type="curve" smooth="yes"/>
      <point x="239" y="205"/>
      <point x="261" y="207"/>
      <point x="279" y="213" type="curve"/>
      <point x="279" y="336"/>
      <point x="235" y="789"/>
      <point x="225" y="881" type="curve" smooth="yes"/>
      <point x="221" y="918"/>
      <point x="88" y="1130"/>
      <point x="88" y="1300" type="curve" smooth="yes"/>
      <point x="88" y="1355"/>
      <point x="110" y="1522"/>
      <point x="186" y="1522" type="curve"/>
      <point x="186" y="1551"/>
      <point x="178" y="1579"/>
      <point x="178" y="1610" type="curve" smooth="yes"/>
      <point x="178" y="1628"/>
      <point x="180" y="1663"/>
      <point x="207" y="1663" type="curve"/>
      <point x="223" y="1645" type="line"/>
      <point x="221" y="1631"/>
      <point x="221" y="1613"/>
      <point x="221" y="1599" type="curve" smooth="yes"/>
      <point x="221" y="1560"/>
      <point x="227" y="1524"/>
      <point x="254" y="1524" type="curve" smooth="yes"/>
      <point x="283" y="1524"/>
      <point x="307" y="1508"/>
      <point x="332" y="1479" type="curve" smooth="yes"/>
      <point x="340" y="1471"/>
      <point x="383" y="1425"/>
      <point x="383" y="1417" type="curve" smooth="yes"/>
      <point x="383" y="1403"/>
      <point x="370" y="1379"/>
      <point x="358" y="1391" type="curve" smooth="yes"/>
      <point x="317" y="1432"/>
      <point x="318" y="1479"/>
      <point x="238" y="1487" type="curve"/>
      <point x="231" y="1470" type="line"/>
      <point x="231" y="1417"/>
      <point x="238" y="1362"/>
      <point x="238" y="1309" type="curve" smooth="yes"/>
      <point x="238" y="1243"/>
      <point x="265" y="917"/>
      <point x="285" y="870" type="curve"/>
      <point x="320" y="776"/>
      <point x="445" y="571"/>
      <point x="459" y="403" type="curve"/>
      <point x="459" y="284"/>
      <point x="409" y="247"/>
      <point x="319" y="184" type="curve"/>
      <point x="319" y="145"/>
      <point x="328" y="107"/>
      <point x="328" y="68" type="curve" smooth="yes"/>
      <point x="328" y="45"/>
      <point x="326" y="-18"/>
      <point x="293" y="-18" type="curve" smooth="yes"/>
      <point x="279" y="-18"/>
      <point x="274" y="13"/>
    </contour>
    <contour>
      <point x="315" y="240" type="curve"/>
      <point x="317" y="236" type="line"/>
      <point x="370" y="261"/>
      <point x="414" y="328"/>
      <point x="414" y="387" type="curve" smooth="yes"/>
      <point x="414" y="457"/>
      <point x="334" y="700"/>
      <point x="281" y="776" type="curve"/>
      <point x="281" y="596"/>
      <point x="315" y="420"/>
    </contour>
    <contour>
      <point x="135" y="1288" type="curve" smooth="yes"/>
      <point x="135" y="1190"/>
      <point x="172" y="1079"/>
      <point x="213" y="989" type="curve"/>
      <point x="213" y="985"/>
      <point x="215" y="983"/>
      <point x="219" y="981" type="curve"/>
      <point x="215" y="1145"/>
      <point x="190" y="1309"/>
      <point x="182" y="1473" type="curve"/>
      <point x="151" y="1467"/>
      <point x="135" y="1317"/>
    </contour>
  </outline>
</glyph>
<glyph name="quotesingle" format="1">
  <advance width="636"/>
  <unicode hex="0027"/>
  <outline>
    <contour>
      <point x="207" y="1262" type="curve"/>
      <point x="211" y="1291"/>
      <point x="211" y="1335"/>
      <point x="211" y="1384" type="curve" smooth="yes"/>
      <point x="211" y="1401" type="line" smooth="yes"/>
      <point x="211" y="1489"/>
      <point x="213" y="1575"/>
      <point x="233" y="1575" type="curve" smooth="yes"/>
      <point x="262" y="1575"/>
      <point x="281" y="1536"/>
      <point x="281" y="1497" type="curve" smooth="yes"/>
      <point x="281" y="1431"/>
      <point x="242" y="1257"/>
      <point x="215" y="1257" type="curve" smooth="yes"/>
      <point x="213" y="1257"/>
      <point x="209" y="1260"/>
    </contour>
  </outline>
</glyph>
<glyph name="parenright" format="1">
  <advance width="477"/>
  <unicode hex="0029"/>
  <outline>
    <contour>
      <point x="387" y="817" type="curve" smooth="yes"/>
      <point x="387" y="649"/>
      <point x="363" y="483"/>
      <point x="324" y="319" type="curve" smooth="yes"/>
      <point x="304" y="231"/>
      <point x="186" y="-279"/>
      <point x="102" y="-279" type="curve" smooth="yes"/>
      <point x="88" y="-279"/>
      <point x="72" y="-270"/>
      <point x="72" y="-254" type="curve" smooth="yes"/>
      <point x="72" y="-236"/>
      <point x="131" y="-141"/>
      <point x="156" y="-78" type="curve"/>
      <point x="254" y="182"/>
      <point x="332" y="536"/>
      <point x="332" y="817" type="curve" smooth="yes"/>
      <point x="332" y="1012"/>
      <point x="306" y="1239"/>
      <point x="240" y="1423" type="curve" smooth="yes"/>
      <point x="217" y="1486"/>
      <point x="168" y="1540"/>
      <point x="168" y="1610" type="curve"/>
      <point x="188" y="1626" type="line"/>
      <point x="309" y="1622"/>
      <point x="387" y="934"/>
    </contour>
  </outline>
</glyph>
<glyph name="asterisk" format="1">
  <advance width="905"/>
  <unicode hex="002A"/>
  <outline>
    <contour>
      <point x="537" y="1120" type="curve" smooth="yes"/>
      <point x="512" y="1120" type="line" smooth="yes"/>
      <point x="497" y="1120"/>
      <point x="481" y="1119"/>
      <point x="473" y="1114" type="curve"/>
      <point x="475" y="1063"/>
      <point x="631" y="801"/>
      <point x="631" y="754" type="curve" smooth="yes"/>
      <point x="631" y="738"/>
      <point x="616" y="725"/>
      <point x="602" y="725" type="curve" smooth="yes"/>
      <point x="555" y="725"/>
      <point x="555" y="802"/>
      <point x="545" y="831" type="curve"/>
      <point x="512" y="909"/>
      <point x="475" y="989"/>
      <point x="434" y="1065" type="curve"/>
      <point x="424" y="1051"/>
      <point x="416" y="1028"/>
      <point x="410" y="1012" type="curve" smooth="yes"/>
      <point x="330" y="823" type="line" smooth="yes"/>
      <point x="316" y="788"/>
      <point x="305" y="750"/>
      <point x="287" y="719" type="curve"/>
      <point x="260" y="715" type="line"/>
      <point x="231" y="745" type="line"/>
      <point x="231" y="794"/>
      <point x="377" y="1028"/>
      <point x="393" y="1118" type="curve"/>
      <point x="387" y="1120"/>
      <point x="377" y="1122"/>
      <point x="371" y="1122" type="curve" smooth="yes"/>
      <point x="139" y="1122" type="line" smooth="yes"/>
      <point x="129" y="1122"/>
      <point x="118" y="1120"/>
      <point x="106" y="1120" type="curve" smooth="yes"/>
      <point x="88" y="1120"/>
      <point x="84" y="1137"/>
      <point x="84" y="1153" type="curve" smooth="yes"/>
      <point x="84" y="1167"/>
      <point x="94" y="1178"/>
      <point x="106" y="1178" type="curve" smooth="yes"/>
      <point x="200" y="1178"/>
      <point x="291" y="1176"/>
      <point x="383" y="1176" type="curve"/>
      <point x="387" y="1180" type="line"/>
      <point x="367" y="1217"/>
      <point x="238" y="1483"/>
      <point x="238" y="1503" type="curve" smooth="yes"/>
      <point x="238" y="1519"/>
      <point x="256" y="1526"/>
      <point x="270" y="1526" type="curve" smooth="yes"/>
      <point x="303" y="1526"/>
      <point x="381" y="1243"/>
      <point x="428" y="1212" type="curve"/>
      <point x="455" y="1261"/>
      <point x="528" y="1544"/>
      <point x="575" y="1544" type="curve" smooth="yes"/>
      <point x="589" y="1544"/>
      <point x="608" y="1527"/>
      <point x="608" y="1513" type="curve" smooth="yes"/>
      <point x="608" y="1495"/>
      <point x="592" y="1474"/>
      <point x="582" y="1458" type="curve"/>
      <point x="537" y="1370"/>
      <point x="518" y="1270"/>
      <point x="477" y="1178" type="curve"/>
      <point x="479" y="1176" type="line"/>
      <point x="520" y="1170"/>
      <point x="561" y="1167"/>
      <point x="602" y="1167" type="curve" smooth="yes"/>
      <point x="659" y="1167"/>
      <point x="721" y="1178"/>
      <point x="778" y="1178" type="curve" smooth="yes"/>
      <point x="798" y="1178"/>
      <point x="817" y="1157"/>
      <point x="817" y="1139" type="curve" smooth="yes"/>
      <point x="817" y="1112"/>
      <point x="793" y="1110"/>
      <point x="770" y="1110" type="curve" smooth="yes"/>
      <point x="690" y="1110"/>
      <point x="617" y="1120"/>
    </contour>
    <contour>
      <point x="471" y="1120" type="line"/>
      <point x="469" y="1120"/>
      <point x="469" y="1120"/>
      <point x="469" y="1118" type="curve"/>
      <point x="471" y="1118" type="line"/>
    </contour>
  </outline>
</glyph>
<glyph name="period" format="1">
  <advance width="327"/>
  <unicode hex="002E"/>
  <outline>
    <contour>
      <point x="113" y="41" type="curve" smooth="yes"/>
      <point x="113" y="68"/>
      <point x="139" y="96"/>
      <point x="166" y="96" type="curve" smooth="yes"/>
      <point x="191" y="96"/>
      <point x="215" y="66"/>
      <point x="215" y="43" type="curve" smooth="yes"/>
      <point x="215" y="6"/>
      <point x="191" y="-8"/>
      <point x="158" y="-8" type="curve" smooth="yes"/>
      <point x="133" y="-8"/>
      <point x="113" y="18"/>
    </contour>
  </outline>
</glyph>
<glyph name="zero" format="1">
  <advance width="606"/>
  <unicode hex="0030"/>
  <outline>
    <contour>
      <point x="322" y="-14" type="curve" smooth="yes"/>
      <point x="312" y="-14"/>
      <point x="266" y="6"/>
      <point x="256" y="12" type="curve" smooth="yes"/>
      <point x="154" y="75"/>
      <point x="116" y="641"/>
      <point x="106" y="774" type="curve"/>
      <point x="115" y="782" type="line"/>
      <point x="113" y="928" type="line"/>
      <point x="101" y="944"/>
      <point x="100" y="999"/>
      <point x="100" y="1036" type="curve" smooth="yes"/>
      <point x="100" y="1145"/>
      <point x="102" y="1255"/>
      <point x="102" y="1364" type="curve"/>
      <point x="145" y="1442"/>
      <point x="103" y="1542"/>
      <point x="248" y="1542" type="curve" smooth="yes"/>
      <point x="268" y="1542"/>
      <point x="297" y="1526"/>
      <point x="315" y="1516" type="curve" smooth="yes"/>
      <point x="436" y="1442"/>
      <point x="437" y="1309"/>
      <point x="453" y="1184" type="curve" smooth="yes"/>
      <point x="484" y="955"/>
      <point x="518" y="723"/>
      <point x="518" y="492" type="curve" smooth="yes"/>
      <point x="518" y="363"/>
      <point x="508" y="-14"/>
    </contour>
    <contour>
      <point x="176" y="766" type="curve" smooth="yes"/>
      <point x="176" y="746" type="line" smooth="yes"/>
      <point x="176" y="588"/>
      <point x="180" y="33"/>
      <point x="340" y="33" type="curve" smooth="yes"/>
      <point x="461" y="33"/>
      <point x="469" y="436"/>
      <point x="469" y="524" type="curve" smooth="yes"/>
      <point x="469" y="655"/>
      <point x="453" y="954"/>
      <point x="406" y="1071" type="curve"/>
      <point x="406" y="1159" type="line"/>
      <point x="351" y="1296"/>
      <point x="436" y="1472"/>
      <point x="217" y="1497" type="curve"/>
      <point x="149" y="1442"/>
      <point x="147" y="1413"/>
      <point x="147" y="1329" type="curve" smooth="yes"/>
      <point x="147" y="1202"/>
      <point x="156" y="1073"/>
      <point x="156" y="946" type="curve" smooth="yes"/>
      <point x="156" y="885"/>
      <point x="176" y="827"/>
    </contour>
  </outline>
</glyph>
<glyph name="five" format="1">
  <advance width="569"/>
  <unicode hex="0035"/>
  <outline>
    <contour>
      <point x="213" y="12" type="curve" smooth="yes"/>
      <point x="213" y="32"/>
      <point x="238" y="35"/>
      <point x="252" y="35" type="curve" smooth="yes"/>
      <point x="270" y="35"/>
      <point x="287" y="18"/>
      <point x="305" y="18" type="curve" smooth="yes"/>
      <point x="395" y="18"/>
      <point x="434" y="260"/>
      <point x="434" y="328" type="curve" smooth="yes"/>
      <point x="434" y="430"/>
      <point x="422" y="952"/>
      <point x="285" y="952" type="curve" smooth="yes"/>
      <point x="238" y="952" type="line"/>
      <point x="229" y="946" type="line"/>
      <point x="227" y="946"/>
      <point x="225" y="948"/>
      <point x="223" y="948" type="curve" smooth="yes"/>
      <point x="209" y="948"/>
      <point x="190" y="930"/>
      <point x="178" y="930" type="curve" smooth="yes"/>
      <point x="119" y="930"/>
      <point x="133" y="987"/>
      <point x="127" y="1026" type="curve"/>
      <point x="133" y="1061"/>
      <point x="137" y="1095"/>
      <point x="137" y="1130" type="curve" smooth="yes"/>
      <point x="137" y="1275"/>
      <point x="92" y="1420"/>
      <point x="88" y="1565" type="curve"/>
      <point x="109" y="1585" type="line"/>
      <point x="266" y="1587" type="line"/>
      <point x="270" y="1587" type="line" smooth="yes"/>
      <point x="291" y="1587"/>
      <point x="328" y="1586"/>
      <point x="328" y="1559" type="curve"/>
      <point x="305" y="1540" type="line"/>
      <point x="262" y="1540" type="line"/>
      <point x="256" y="1536" type="line"/>
      <point x="174" y="1546" type="line"/>
      <point x="160" y="1542" type="line"/>
      <point x="152" y="1544" type="line"/>
      <point x="152" y="1478"/>
      <point x="162" y="1413"/>
      <point x="166" y="1350" type="curve" smooth="yes"/>
      <point x="174" y="1235"/>
      <point x="183" y="1121"/>
      <point x="193" y="1006" type="curve"/>
      <point x="191" y="1006"/>
      <point x="190" y="1004"/>
      <point x="190" y="1004" type="curve"/>
      <point x="190" y="1000"/>
      <point x="330" y="994"/>
      <point x="367" y="967" type="curve" smooth="yes"/>
      <point x="455" y="901"/>
      <point x="485" y="547"/>
      <point x="485" y="438" type="curve" smooth="yes"/>
      <point x="485" y="286"/>
      <point x="484" y="62"/>
      <point x="330" y="-20" type="curve"/>
      <point x="319" y="-20" type="line" smooth="yes"/>
      <point x="314" y="-20" type="line" smooth="yes"/>
      <point x="286" y="-20"/>
      <point x="213" y="-19"/>
    </contour>
    <contour>
      <point x="152" y="1337" type="line"/>
      <point x="150" y="1337"/>
      <point x="150" y="1337"/>
      <point x="150" y="1335" type="curve"/>
    </contour>
  </outline>
</glyph>
<glyph name="six" format="1">
  <advance width="516"/>
  <unicode hex="0036"/>
  <outline>
    <contour>
      <point x="291" y="-29" type="curve" smooth="yes"/>
      <point x="123" y="-29"/>
      <point x="147" y="258"/>
      <point x="131" y="369" type="curve" smooth="yes"/>
      <point x="111" y="514"/>
      <point x="100" y="660"/>
      <point x="100" y="807" type="curve" smooth="yes"/>
      <point x="100" y="816" type="line" smooth="yes"/>
      <point x="100" y="969"/>
      <point x="102" y="1569"/>
      <point x="297" y="1569" type="curve" smooth="yes"/>
      <point x="305" y="1569"/>
      <point x="322" y="1560"/>
      <point x="322" y="1550" type="curve" smooth="yes"/>
      <point x="322" y="1521"/>
      <point x="270" y="1513"/>
      <point x="252" y="1497" type="curve"/>
      <point x="178" y="1438"/>
      <point x="156" y="1003"/>
      <point x="154" y="897" type="curve"/>
      <point x="166" y="905"/>
      <point x="185" y="913"/>
      <point x="199" y="913" type="curve" smooth="yes"/>
      <point x="430" y="913"/>
      <point x="432" y="334"/>
      <point x="432" y="170" type="curve" smooth="yes"/>
      <point x="432" y="70"/>
      <point x="416" y="-29"/>
    </contour>
    <contour>
      <point x="154" y="758" type="curve" smooth="yes"/>
      <point x="154" y="728" type="line" smooth="yes"/>
      <point x="154" y="539"/>
      <point x="172" y="353"/>
      <point x="205" y="166" type="curve"/>
      <point x="215" y="100"/>
      <point x="211" y="12"/>
      <point x="307" y="12" type="curve" smooth="yes"/>
      <point x="381" y="12"/>
      <point x="383" y="123"/>
      <point x="383" y="174" type="curve" smooth="yes"/>
      <point x="383" y="291"/>
      <point x="375" y="868"/>
      <point x="215" y="868" type="curve"/>
      <point x="174" y="841"/>
      <point x="154" y="807"/>
    </contour>
  </outline>
</glyph>
<glyph name="nine" format="1">
  <advance width="509"/>
  <unicode hex="0039"/>
  <outline>
    <contour>
      <point x="319" y="-27" type="line"/>
      <point x="337" y="24"/>
      <point x="338" y="101"/>
      <point x="338" y="156" type="curve" smooth="yes"/>
      <point x="338" y="346"/>
      <point x="348" y="537"/>
      <point x="348" y="727" type="curve" smooth="yes"/>
      <point x="348" y="801"/>
      <point x="344" y="874"/>
      <point x="344" y="948" type="curve"/>
      <point x="330" y="944" type="line"/>
      <point x="130" y="970"/>
      <point x="36" y="1151"/>
      <point x="36" y="1316" type="curve" smooth="yes"/>
      <point x="36" y="1465"/>
      <point x="113" y="1602"/>
      <point x="258" y="1602" type="curve" smooth="yes"/>
      <point x="295" y="1602"/>
      <point x="371" y="1581"/>
      <point x="391" y="1550" type="curve" smooth="yes"/>
      <point x="405" y="1527"/>
      <point x="406" y="1262"/>
      <point x="406" y="1223" type="curve" smooth="yes"/>
      <point x="406" y="1143"/>
      <point x="403" y="1061"/>
      <point x="403" y="981" type="curve" smooth="yes"/>
      <point x="403" y="952"/>
      <point x="389" y="928"/>
      <point x="389" y="899" type="curve" smooth="yes"/>
      <point x="389" y="670"/>
      <point x="383" y="438"/>
      <point x="383" y="209" type="curve" smooth="yes"/>
      <point x="383" y="158"/>
      <point x="369" y="108"/>
      <point x="369" y="57" type="curve" smooth="yes"/>
      <point x="369" y="41"/>
      <point x="371" y="26"/>
      <point x="371" y="10" type="curve" smooth="yes"/>
      <point x="371" y="-13"/>
      <point x="367" y="-47"/>
      <point x="336" y="-47" type="curve"/>
    </contour>
    <contour>
      <point x="317" y="997" type="curve"/>
      <point x="346" y="1001" type="line"/>
      <point x="354" y="1146"/>
      <point x="356" y="1295"/>
      <point x="356" y="1440" type="curve" smooth="yes"/>
      <point x="356" y="1508"/>
      <point x="338" y="1563"/>
      <point x="260" y="1563" type="curve" smooth="yes"/>
      <point x="138" y="1563"/>
      <point x="90" y="1474"/>
      <point x="90" y="1366" type="curve" smooth="yes"/>
      <point x="90" y="1208"/>
      <point x="193" y="1011"/>
    </contour>
  </outline>
</glyph>
<glyph name="colon" format="1">
  <advance width="344"/>
  <unicode hex="003A"/>
  <outline>
    <contour>
      <point x="113" y="250" type="curve" smooth="yes"/>
      <point x="113" y="277"/>
      <point x="139" y="305"/>
      <point x="166" y="305" type="curve" smooth="yes"/>
      <point x="191" y="305"/>
      <point x="215" y="275"/>
      <point x="215" y="252" type="curve" smooth="yes"/>
      <point x="215" y="215"/>
      <point x="191" y="201"/>
      <point x="158" y="201" type="curve" smooth="yes"/>
      <point x="133" y="201"/>
      <point x="113" y="227"/>
    </contour>
    <contour>
      <point x="133" y="1024" type="curve" smooth="yes"/>
      <point x="133" y="1051"/>
      <point x="159" y="1079"/>
      <point x="186" y="1079" type="curve" smooth="yes"/>
      <point x="211" y="1079"/>
      <point x="236" y="1049"/>
      <point x="236" y="1026" type="curve" smooth="yes"/>
      <point x="236" y="989"/>
      <point x="211" y="975"/>
      <point x="178" y="975" type="curve" smooth="yes"/>
      <point x="153" y="975"/>
      <point x="133" y="1001"/>
    </contour>
  </outline>
</glyph>
<glyph name="semicolon" format="1">
  <advance width="391"/>
  <unicode hex="003B"/>
  <outline>
    <contour>
      <point x="180" y="1024" type="curve" smooth="yes"/>
      <point x="180" y="1051"/>
      <point x="206" y="1079"/>
      <point x="233" y="1079" type="curve" smooth="yes"/>
      <point x="258" y="1079"/>
      <point x="283" y="1049"/>
      <point x="283" y="1026" type="curve" smooth="yes"/>
      <point x="283" y="989"/>
      <point x="258" y="975"/>
      <point x="225" y="975" type="curve" smooth="yes"/>
      <point x="200" y="975"/>
      <point x="180" y="1001"/>
    </contour>
    <contour>
      <point x="94" y="14" type="line"/>
      <point x="98" y="33" type="line"/>
      <point x="139" y="72"/>
      <point x="205" y="119"/>
      <point x="205" y="182" type="curve"/>
      <point x="174" y="200"/>
      <point x="145" y="235"/>
      <point x="145" y="272" type="curve" smooth="yes"/>
      <point x="145" y="311"/>
      <point x="188" y="336"/>
      <point x="223" y="336" type="curve" smooth="yes"/>
      <point x="264" y="336"/>
      <point x="291" y="297"/>
      <point x="291" y="258" type="curve" smooth="yes"/>
      <point x="291" y="186"/>
      <point x="209" y="0"/>
      <point x="127" y="-2" type="curve"/>
    </contour>
  </outline>
</glyph>
<glyph name="equal" format="1">
  <advance width="620"/>
  <unicode hex="003D"/>
  <outline>
    <contour>
      <point x="569" y="727" type="curve" smooth="yes"/>
      <point x="569" y="721"/>
      <point x="467" y="721"/>
      <point x="354" y="721" type="curve" smooth="yes"/>
      <point x="156" y="721" type="line" smooth="yes"/>
      <point x="136" y="721"/>
      <point x="113" y="733"/>
      <point x="113" y="756" type="curve" smooth="yes"/>
      <point x="113" y="762"/>
      <point x="201" y="762"/>
      <point x="293" y="762" type="curve" smooth="yes"/>
      <point x="524" y="762" type="line" smooth="yes"/>
      <point x="542" y="762"/>
      <point x="569" y="747"/>
    </contour>
    <contour>
      <point x="553" y="604" type="curve"/>
      <point x="553" y="606"/>
      <point x="269" y="608"/>
      <point x="158" y="608" type="curve" smooth="yes"/>
      <point x="146" y="608"/>
      <point x="133" y="627"/>
      <point x="133" y="639" type="curve" smooth="yes"/>
      <point x="133" y="643"/>
      <point x="135" y="647"/>
      <point x="141" y="647" type="curve" smooth="yes"/>
      <point x="151" y="647"/>
      <point x="449" y="645"/>
      <point x="545" y="645" type="curve" smooth="yes"/>
      <point x="555" y="645"/>
      <point x="565" y="628"/>
      <point x="565" y="616" type="curve" smooth="yes"/>
      <point x="565" y="610"/>
      <point x="561" y="604"/>
    </contour>
  </outline>
</glyph>
<glyph name="at" format="1">
  <advance width="1036"/>
  <unicode hex="0040"/>
  <outline>
    <contour>
      <point x="187" y="279" type="curve"/>
      <point x="185" y="310"/>
      <point x="170" y="331"/>
      <point x="160" y="360" type="curve" smooth="yes"/>
      <point x="127" y="452"/>
      <point x="92" y="909"/>
      <point x="92" y="1024" type="curve" smooth="yes"/>
      <point x="92" y="1176"/>
      <point x="96" y="1329"/>
      <point x="127" y="1479" type="curve" smooth="yes"/>
      <point x="174" y="1712"/>
      <point x="230" y="1833"/>
      <point x="480" y="1833" type="curve" smooth="yes"/>
      <point x="826" y="1833"/>
      <point x="870" y="1453"/>
      <point x="913" y="1174" type="curve" smooth="yes"/>
      <point x="927" y="1084"/>
      <point x="944" y="993"/>
      <point x="944" y="903" type="curve" smooth="yes"/>
      <point x="944" y="799"/>
      <point x="939" y="565"/>
      <point x="792" y="565" type="curve" smooth="yes"/>
      <point x="741" y="565"/>
      <point x="727" y="606"/>
      <point x="689" y="616" type="curve"/>
      <point x="655" y="534"/>
      <point x="572" y="467"/>
      <point x="487" y="467" type="curve" smooth="yes"/>
      <point x="297" y="467"/>
      <point x="284" y="778"/>
      <point x="284" y="954" type="curve" smooth="yes"/>
      <point x="284" y="1006" type="line" smooth="yes"/>
      <point x="284" y="1196"/>
      <point x="293" y="1464"/>
      <point x="491" y="1464" type="curve" smooth="yes"/>
      <point x="540" y="1464"/>
      <point x="591" y="1444"/>
      <point x="625" y="1405" type="curve" smooth="yes"/>
      <point x="663" y="1362"/>
      <point x="717" y="788"/>
      <point x="729" y="686" type="curve"/>
      <point x="752" y="676" type="line"/>
      <point x="758" y="664"/>
      <point x="779" y="625"/>
      <point x="795" y="625" type="curve" smooth="yes"/>
      <point x="875" y="625"/>
      <point x="874" y="860"/>
      <point x="874" y="915" type="curve" smooth="yes"/>
      <point x="874" y="1128"/>
      <point x="836" y="1349"/>
      <point x="760" y="1550" type="curve" smooth="yes"/>
      <point x="701" y="1704"/>
      <point x="627" y="1774"/>
      <point x="470" y="1774" type="curve" smooth="yes"/>
      <point x="227" y="1774"/>
      <point x="201" y="1585"/>
      <point x="189" y="1380" type="curve" smooth="yes"/>
      <point x="185" y="1319"/>
      <point x="183" y="1243"/>
      <point x="160" y="1186" type="curve"/>
      <point x="162" y="1159"/>
      <point x="164" y="1133"/>
      <point x="164" y="1106" type="curve" smooth="yes"/>
      <point x="164" y="1086"/>
      <point x="164" y="1060"/>
      <point x="156" y="1040" type="curve"/>
      <point x="160" y="1032"/>
      <point x="160" y="1022"/>
      <point x="160" y="1014" type="curve" smooth="yes"/>
      <point x="160" y="897"/>
      <point x="175" y="785"/>
      <point x="187" y="668" type="curve"/>
      <point x="210" y="471"/>
      <point x="184" y="354"/>
      <point x="307" y="180" type="curve" smooth="yes"/>
      <point x="340" y="133"/>
      <point x="383" y="86"/>
      <point x="439" y="86" type="curve" smooth="yes"/>
      <point x="588" y="86"/>
      <point x="692" y="131"/>
      <point x="803" y="248" type="curve" smooth="yes"/>
      <point x="813" y="258"/>
      <point x="834" y="283"/>
      <point x="848" y="287" type="curve"/>
      <point x="866" y="268" type="line"/>
      <point x="825" y="125"/>
      <point x="569" y="39"/>
      <point x="446" y="39" type="curve" smooth="yes"/>
      <point x="318" y="39"/>
      <point x="238" y="168"/>
    </contour>
    <contour>
      <point x="491" y="1409" type="curve" smooth="yes"/>
      <point x="372" y="1409"/>
      <point x="366" y="1211"/>
      <point x="366" y="1094" type="curve" smooth="yes"/>
      <point x="366" y="831" type="line" smooth="yes"/>
      <point x="366" y="702"/>
      <point x="374" y="526"/>
      <point x="502" y="526" type="curve" smooth="yes"/>
      <point x="576" y="526"/>
      <point x="648" y="675"/>
      <point x="648" y="745" type="curve" smooth="yes"/>
      <point x="648" y="899" type="line" smooth="yes"/>
      <point x="648" y="1012"/>
      <point x="624" y="1124"/>
      <point x="603" y="1233" type="curve" smooth="yes"/>
      <point x="586" y="1319"/>
      <point x="587" y="1409"/>
    </contour>
  </outline>
</glyph>
<glyph name="B" format="1">
  <advance width="616"/>
  <unicode hex="0042"/>
  <outline>
    <contour>
      <point x="113" y="16" type="curve" smooth="yes"/>
      <point x="113" y="188"/>
      <point x="123" y="363"/>
      <point x="123" y="535" type="curve" smooth="yes"/>
      <point x="123" y="820"/>
      <point x="109" y="1104"/>
      <point x="109" y="1389" type="curve" smooth="yes"/>
      <point x="109" y="1424"/>
      <point x="109" y="1536"/>
      <point x="162" y="1536" type="curve" smooth="yes"/>
      <point x="357" y="1536"/>
      <point x="449" y="1394"/>
      <point x="449" y="1214" type="curve" smooth="yes"/>
      <point x="449" y="1087"/>
      <point x="391" y="974"/>
      <point x="317" y="874" type="curve"/>
      <point x="462" y="731"/>
      <point x="514" y="617"/>
      <point x="514" y="433" type="curve" smooth="yes"/>
      <point x="514" y="187"/>
      <point x="484" y="100"/>
      <point x="274" y="8" type="curve"/>
      <point x="245" y="6"/>
      <point x="222" y="-12"/>
      <point x="193" y="-12" type="curve" smooth="yes"/>
      <point x="189" y="-12" type="line" smooth="yes"/>
      <point x="166" y="-12"/>
      <point x="113" y="-11"/>
    </contour>
    <contour>
      <point x="190" y="70" type="curve"/>
      <point x="194" y="70"/>
      <point x="199" y="68"/>
      <point x="203" y="68" type="curve" smooth="yes"/>
      <point x="344" y="68"/>
      <point x="457" y="211"/>
      <point x="457" y="371" type="curve" smooth="yes"/>
      <point x="457" y="518"/>
      <point x="441" y="745"/>
      <point x="281" y="811" type="curve"/>
      <point x="246" y="809"/>
      <point x="215" y="794"/>
      <point x="180" y="788" type="curve"/>
      <point x="188" y="548"/>
      <point x="190" y="310"/>
    </contour>
    <contour>
      <point x="180" y="887" type="curve"/>
      <point x="182" y="887"/>
      <point x="186" y="885"/>
      <point x="186" y="885" type="curve"/>
      <point x="317" y="885"/>
      <point x="395" y="1133"/>
      <point x="395" y="1268" type="curve" smooth="yes"/>
      <point x="395" y="1356"/>
      <point x="319" y="1466"/>
      <point x="225" y="1466" type="curve" smooth="yes"/>
      <point x="178" y="1466"/>
      <point x="172" y="1413"/>
      <point x="172" y="1378" type="curve" smooth="yes"/>
      <point x="172" y="1214"/>
      <point x="180" y="1051"/>
    </contour>
  </outline>
</glyph>
<glyph name="C" format="1">
  <advance width="696"/>
  <unicode hex="0043"/>
  <outline>
    <contour>
      <point x="96" y="877" type="curve" smooth="yes"/>
      <point x="96" y="950"/>
      <point x="94" y="1022"/>
      <point x="94" y="1090" type="curve" smooth="yes"/>
      <point x="94" y="1355"/>
      <point x="123" y="1565"/>
      <point x="406" y="1565" type="curve" smooth="yes"/>
      <point x="445" y="1565"/>
      <point x="524" y="1536"/>
      <point x="524" y="1489" type="curve" smooth="yes"/>
      <point x="524" y="1471"/>
      <point x="506" y="1466"/>
      <point x="492" y="1466" type="curve" smooth="yes"/>
      <point x="466" y="1466"/>
      <point x="426" y="1495"/>
      <point x="389" y="1495" type="curve" smooth="yes"/>
      <point x="177" y="1495"/>
      <point x="148" y="1289"/>
      <point x="148" y="1081" type="curve" smooth="yes"/>
      <point x="148" y="1004"/>
      <point x="152" y="927"/>
      <point x="152" y="860" type="curve" smooth="yes"/>
      <point x="152" y="747"/>
      <point x="191" y="197"/>
      <point x="236" y="127" type="curve" smooth="yes"/>
      <point x="273" y="70"/>
      <point x="347" y="47"/>
      <point x="410" y="47" type="curve" smooth="yes"/>
      <point x="463" y="47"/>
      <point x="518" y="65"/>
      <point x="553" y="106" type="curve"/>
      <point x="563" y="121"/>
      <point x="578" y="132"/>
      <point x="591" y="132" type="curve" smooth="yes"/>
      <point x="602" y="132"/>
      <point x="610" y="124"/>
      <point x="610" y="102" type="curve" smooth="yes"/>
      <point x="610" y="-2"/>
      <point x="465" y="-33"/>
      <point x="383" y="-33" type="curve" smooth="yes"/>
      <point x="301" y="-33"/>
      <point x="205" y="43"/>
      <point x="172" y="115" type="curve" smooth="yes"/>
      <point x="133" y="199"/>
      <point x="96" y="756"/>
    </contour>
  </outline>
</glyph>
<glyph name="F" format="1">
  <advance width="438"/>
  <unicode hex="0046"/>
  <outline>
    <contour>
      <point x="180" y="-4" type="curve" smooth="yes"/>
      <point x="149" y="-4"/>
      <point x="147" y="26"/>
      <point x="147" y="49" type="curve" smooth="yes"/>
      <point x="147" y="201" type="line" smooth="yes"/>
      <point x="147" y="240"/>
      <point x="121" y="612"/>
      <point x="121" y="819" type="curve" smooth="yes"/>
      <point x="121" y="915"/>
      <point x="92" y="1498"/>
      <point x="92" y="1512" type="curve" smooth="yes"/>
      <point x="92" y="1525" type="line" smooth="yes"/>
      <point x="92" y="1546"/>
      <point x="118" y="1549"/>
      <point x="183" y="1549" type="curve" smooth="yes"/>
      <point x="210" y="1549"/>
      <point x="244" y="1548"/>
      <point x="285" y="1548" type="curve" smooth="yes"/>
      <point x="310" y="1548"/>
      <point x="319" y="1521"/>
      <point x="319" y="1501" type="curve" smooth="yes"/>
      <point x="319" y="1481"/>
      <point x="293" y="1481"/>
      <point x="281" y="1481" type="curve" smooth="yes"/>
      <point x="269" y="1481"/>
      <point x="199" y="1483"/>
      <point x="181" y="1483" type="curve" smooth="yes"/>
      <point x="162" y="1483"/>
      <point x="156" y="1482"/>
      <point x="156" y="1443" type="curve" smooth="yes"/>
      <point x="156" y="1398"/>
      <point x="186" y="892"/>
      <point x="186" y="844" type="curve"/>
      <point x="233" y="844"/>
      <point x="277" y="868"/>
      <point x="324" y="868" type="curve" smooth="yes"/>
      <point x="342" y="868"/>
      <point x="356" y="843"/>
      <point x="356" y="827" type="curve" smooth="yes"/>
      <point x="356" y="768"/>
      <point x="186" y="811"/>
      <point x="186" y="762" type="curve" smooth="yes"/>
      <point x="186" y="531"/>
      <point x="225" y="303"/>
      <point x="225" y="72" type="curve"/>
      <point x="219" y="61" type="line"/>
      <point x="223" y="51"/>
      <point x="225" y="42"/>
      <point x="225" y="34" type="curve" smooth="yes"/>
      <point x="225" y="11"/>
      <point x="209" y="-4"/>
    </contour>
  </outline>
</glyph>
<glyph name="G" format="1">
  <advance width="774"/>
  <unicode hex="0047"/>
  <outline>
    <contour>
      <point x="94" y="877" type="curve" smooth="yes"/>
      <point x="94" y="1100"/>
      <point x="103" y="1571"/>
      <point x="420" y="1571" type="curve" smooth="yes"/>
      <point x="443" y="1571"/>
      <point x="481" y="1567"/>
      <point x="481" y="1536" type="curve" smooth="yes"/>
      <point x="481" y="1516"/>
      <point x="469" y="1511"/>
      <point x="451" y="1511" type="curve" smooth="yes"/>
      <point x="431" y="1511"/>
      <point x="413" y="1522"/>
      <point x="393" y="1522" type="curve" smooth="yes"/>
      <point x="151" y="1522"/>
      <point x="168" y="989"/>
      <point x="164" y="827" type="curve" smooth="yes"/>
      <point x="163" y="794"/>
      <point x="163" y="756"/>
      <point x="163" y="715" type="curve" smooth="yes"/>
      <point x="163" y="436"/>
      <point x="206" y="25"/>
      <point x="426" y="25" type="curve" smooth="yes"/>
      <point x="506" y="25"/>
      <point x="557" y="61"/>
      <point x="600" y="127" type="curve"/>
      <point x="600" y="166"/>
      <point x="594" y="391"/>
      <point x="547" y="391" type="curve" smooth="yes"/>
      <point x="520" y="391"/>
      <point x="494" y="383"/>
      <point x="465" y="383" type="curve" smooth="yes"/>
      <point x="442" y="383"/>
      <point x="418" y="389"/>
      <point x="418" y="418" type="curve" smooth="yes"/>
      <point x="418" y="447"/>
      <point x="546" y="463"/>
      <point x="571" y="463" type="curve" smooth="yes"/>
      <point x="620" y="463"/>
      <point x="635" y="418"/>
      <point x="635" y="377" type="curve" smooth="yes"/>
      <point x="635" y="254"/>
      <point x="676" y="135"/>
      <point x="676" y="12" type="curve" smooth="yes"/>
      <point x="676" y="-4"/>
      <point x="669" y="-20"/>
      <point x="649" y="-20" type="curve" smooth="yes"/>
      <point x="620" y="-20"/>
      <point x="600" y="-6"/>
      <point x="600" y="25" type="curve" smooth="yes"/>
      <point x="600" y="27"/>
      <point x="602" y="33"/>
      <point x="602" y="35" type="curve"/>
      <point x="524" y="-10"/>
      <point x="455" y="-33"/>
      <point x="396" y="-33" type="curve" smooth="yes"/>
      <point x="187" y="-33"/>
      <point x="94" y="255"/>
    </contour>
  </outline>
</glyph>
<glyph name="H" format="1">
  <advance width="602"/>
  <unicode hex="0048"/>
  <outline>
    <contour>
      <point x="455" y="-20" type="curve" smooth="yes"/>
      <point x="428" y="-20"/>
      <point x="426" y="-6"/>
      <point x="426" y="12" type="curve" smooth="yes"/>
      <point x="426" y="28"/>
      <point x="428" y="43"/>
      <point x="428" y="59" type="curve" smooth="yes"/>
      <point x="428" y="292"/>
      <point x="420" y="538"/>
      <point x="408" y="771" type="curve"/>
      <point x="395" y="771" type="line" smooth="yes"/>
      <point x="370" y="771"/>
      <point x="342" y="770"/>
      <point x="317" y="770" type="curve" smooth="yes"/>
      <point x="268" y="770"/>
      <point x="197" y="769"/>
      <point x="172" y="763" type="curve"/>
      <point x="172" y="525"/>
      <point x="207" y="261"/>
      <point x="207" y="23" type="curve" smooth="yes"/>
      <point x="207" y="7"/>
      <point x="206" y="-8"/>
      <point x="186" y="-8" type="curve" smooth="yes"/>
      <point x="168" y="-8"/>
      <point x="154" y="1"/>
      <point x="154" y="20" type="curve" smooth="yes"/>
      <point x="154" y="66"/>
      <point x="139" y="494"/>
      <point x="131" y="598" type="curve" smooth="yes"/>
      <point x="108" y="909"/>
      <point x="94" y="1221"/>
      <point x="94" y="1532" type="curve" smooth="yes"/>
      <point x="94" y="1546"/>
      <point x="107" y="1553"/>
      <point x="120" y="1553" type="curve" smooth="yes"/>
      <point x="133" y="1553"/>
      <point x="147" y="1545"/>
      <point x="145" y="1526" type="curve"/>
      <point x="145" y="1374" type="line" smooth="yes"/>
      <point x="145" y="1235"/>
      <point x="162" y="1097"/>
      <point x="162" y="958" type="curve" smooth="yes"/>
      <point x="162" y="858" type="line" smooth="yes"/>
      <point x="162" y="833"/>
      <point x="164" y="805"/>
      <point x="173" y="805" type="curve" smooth="yes"/>
      <point x="253" y="805"/>
      <point x="328" y="821"/>
      <point x="408" y="821" type="curve"/>
      <point x="410" y="825" type="line"/>
      <point x="410" y="1056"/>
      <point x="391" y="1289"/>
      <point x="391" y="1520" type="curve" smooth="yes"/>
      <point x="391" y="1537"/>
      <point x="404" y="1545"/>
      <point x="418" y="1545" type="curve" smooth="yes"/>
      <point x="435" y="1545"/>
      <point x="453" y="1535"/>
      <point x="453" y="1518" type="curve" smooth="yes"/>
      <point x="453" y="885"/>
      <point x="483" y="293"/>
      <point x="483" y="49" type="curve" smooth="yes"/>
      <point x="483" y="20" type="line" smooth="yes"/>
      <point x="483" y="4"/>
      <point x="475" y="-20"/>
    </contour>
  </outline>
</glyph>
<glyph name="I" format="1">
  <advance width="477"/>
  <unicode hex="0049"/>
  <outline>
    <contour>
      <point x="202" y="70" type="line"/>
      <point x="202" y="429"/>
      <point x="181" y="765"/>
      <point x="172" y="1114" type="curve"/>
      <point x="172" y="1159"/>
      <point x="174" y="1266"/>
      <point x="174" y="1354" type="curve" smooth="yes"/>
      <point x="174" y="1407"/>
      <point x="174" y="1464"/>
      <point x="168" y="1484" type="curve"/>
      <point x="98" y="1484" type="line" smooth="yes"/>
      <point x="80" y="1484"/>
      <point x="76" y="1499"/>
      <point x="76" y="1513" type="curve" smooth="yes"/>
      <point x="76" y="1543"/>
      <point x="90" y="1548"/>
      <point x="169" y="1548" type="curve" smooth="yes"/>
      <point x="202" y="1548"/>
      <point x="246" y="1547"/>
      <point x="305" y="1547" type="curve" smooth="yes"/>
      <point x="323" y="1547"/>
      <point x="342" y="1538"/>
      <point x="342" y="1518" type="curve" smooth="yes"/>
      <point x="342" y="1504"/>
      <point x="335" y="1485"/>
      <point x="317" y="1485" type="curve" smooth="yes"/>
      <point x="299" y="1485"/>
      <point x="282" y="1487"/>
      <point x="268" y="1487" type="curve" smooth="yes"/>
      <point x="235" y="1487"/>
      <point x="219" y="1487"/>
      <point x="219" y="1474" type="curve" smooth="yes"/>
      <point x="219" y="1083"/>
      <point x="270" y="577"/>
      <point x="270" y="184" type="curve" smooth="yes"/>
      <point x="270" y="149"/>
      <point x="268" y="106"/>
      <point x="268" y="71" type="curve"/>
      <point x="342" y="71" type="line" smooth="yes"/>
      <point x="376" y="71"/>
      <point x="388" y="57"/>
      <point x="388" y="42" type="curve" smooth="yes"/>
      <point x="388" y="26"/>
      <point x="374" y="8"/>
      <point x="360" y="8" type="curve" smooth="yes"/>
      <point x="274" y="8"/>
      <point x="224" y="10"/>
      <point x="124" y="10" type="curve" smooth="yes"/>
      <point x="102" y="10"/>
      <point x="88" y="28"/>
      <point x="88" y="44" type="curve" smooth="yes"/>
      <point x="88" y="58"/>
      <point x="98" y="70"/>
      <point x="122" y="70" type="curve" smooth="yes"/>
    </contour>
  </outline>
</glyph>
<glyph name="O" format="1">
  <advance width="696"/>
  <unicode hex="004F"/>
  <outline>
    <contour>
      <point x="91" y="1025" type="line" smooth="yes"/>
      <point x="91" y="1272"/>
      <point x="114" y="1571"/>
      <point x="293" y="1571" type="curve" smooth="yes"/>
      <point x="474" y="1571"/>
      <point x="515" y="1399"/>
      <point x="537" y="1239" type="curve" smooth="yes"/>
      <point x="566" y="1032"/>
      <point x="586" y="827"/>
      <point x="586" y="618" type="curve" smooth="yes"/>
      <point x="586" y="412"/>
      <point x="587" y="-43"/>
      <point x="375" y="-43" type="curve" smooth="yes"/>
      <point x="104" y="-43"/>
      <point x="91" y="637"/>
      <point x="91" y="942" type="curve" smooth="yes"/>
    </contour>
    <contour>
      <point x="303" y="1518" type="curve" smooth="yes"/>
      <point x="156" y="1518"/>
      <point x="152" y="1059"/>
      <point x="152" y="931" type="curve" smooth="yes"/>
      <point x="152" y="911" type="line" smooth="yes"/>
      <point x="152" y="831" type="line" smooth="yes"/>
      <point x="152" y="690"/>
      <point x="193" y="14"/>
      <point x="379" y="14" type="curve" smooth="yes"/>
      <point x="522" y="14"/>
      <point x="526" y="540"/>
      <point x="526" y="653" type="curve" smooth="yes"/>
      <point x="526" y="662" type="line" smooth="yes"/>
      <point x="526" y="834"/>
      <point x="524" y="1518"/>
    </contour>
  </outline>
</glyph>
<glyph name="P" format="1">
  <advance width="540"/>
  <unicode hex="0050"/>
  <outline>
    <contour>
      <point x="156" y="-12" type="curve" smooth="yes"/>
      <point x="131" y="-12"/>
      <point x="131" y="45"/>
      <point x="131" y="59" type="curve" smooth="yes"/>
      <point x="131" y="182"/>
      <point x="125" y="303"/>
      <point x="125" y="426" type="curve" smooth="yes"/>
      <point x="125" y="537"/>
      <point x="123" y="647"/>
      <point x="123" y="758" type="curve" smooth="yes"/>
      <point x="123" y="928"/>
      <point x="119" y="1098"/>
      <point x="113" y="1266" type="curve" smooth="yes"/>
      <point x="109" y="1352"/>
      <point x="105" y="1500"/>
      <point x="105" y="1536" type="curve"/>
      <point x="117" y="1554"/>
      <point x="120" y="1565"/>
      <point x="143" y="1565" type="curve" smooth="yes"/>
      <point x="346" y="1565"/>
      <point x="440" y="1364"/>
      <point x="440" y="1186" type="curve" smooth="yes"/>
      <point x="440" y="1021"/>
      <point x="348" y="761"/>
      <point x="184" y="725" type="curve"/>
      <point x="184" y="500"/>
      <point x="201" y="276"/>
      <point x="201" y="51" type="curve" smooth="yes"/>
      <point x="201" y="18"/>
      <point x="197" y="-12"/>
    </contour>
    <contour>
      <point x="156" y="1505" type="curve"/>
      <point x="156" y="1272"/>
      <point x="180" y="1038"/>
      <point x="180" y="805" type="curve"/>
      <point x="184" y="801" type="line"/>
      <point x="215" y="803"/>
      <point x="230" y="828"/>
      <point x="250" y="848" type="curve" smooth="yes"/>
      <point x="348" y="946"/>
      <point x="383" y="1053"/>
      <point x="383" y="1182" type="curve" smooth="yes"/>
      <point x="383" y="1321"/>
      <point x="335" y="1505"/>
    </contour>
  </outline>
</glyph>
<glyph name="S" format="1">
  <advance width="569"/>
  <unicode hex="0053"/>
  <outline>
    <contour>
      <point x="309" y="1573" type="curve" smooth="yes"/>
      <point x="332" y="1573"/>
      <point x="404" y="1546"/>
      <point x="404" y="1515" type="curve" smooth="yes"/>
      <point x="404" y="1505"/>
      <point x="397" y="1499"/>
      <point x="391" y="1499" type="curve" smooth="yes"/>
      <point x="364" y="1499"/>
      <point x="352" y="1520"/>
      <point x="324" y="1520" type="curve" smooth="yes"/>
      <point x="220" y="1520"/>
      <point x="174" y="1391"/>
      <point x="174" y="1305" type="curve" smooth="yes"/>
      <point x="174" y="946"/>
      <point x="471" y="725"/>
      <point x="471" y="330" type="curve" smooth="yes"/>
      <point x="471" y="183"/>
      <point x="393" y="-45"/>
      <point x="215" y="-45" type="curve" smooth="yes"/>
      <point x="166" y="-45"/>
      <point x="107" y="-43"/>
      <point x="80" y="6" type="curve"/>
      <point x="80" y="20"/>
      <point x="84" y="31"/>
      <point x="102" y="31" type="curve" smooth="yes"/>
      <point x="143" y="31"/>
      <point x="176" y="0"/>
      <point x="215" y="0" type="curve" smooth="yes"/>
      <point x="350" y="0"/>
      <point x="397" y="238"/>
      <point x="397" y="340" type="curve" smooth="yes"/>
      <point x="397" y="721"/>
      <point x="104" y="926"/>
      <point x="104" y="1288" type="curve" smooth="yes"/>
      <point x="104" y="1407"/>
      <point x="168" y="1573"/>
    </contour>
  </outline>
</glyph>
<glyph name="T" format="1">
  <advance width="542"/>
  <unicode hex="0054"/>
  <outline>
    <contour>
      <point x="271" y="40" type="curve" smooth="yes"/>
      <point x="272" y="96"/>
      <point x="272" y="160"/>
      <point x="272" y="223" type="curve" smooth="yes"/>
      <point x="272" y="406" type="line" smooth="yes"/>
      <point x="272" y="623"/>
      <point x="262" y="842"/>
      <point x="262" y="1061" type="curve" smooth="yes"/>
      <point x="262" y="1104"/>
      <point x="264" y="1112"/>
      <point x="264" y="1253" type="curve" smooth="yes"/>
      <point x="264" y="1351"/>
      <point x="260" y="1474"/>
      <point x="259" y="1474" type="curve" smooth="yes"/>
      <point x="113" y="1474" type="line" smooth="yes"/>
      <point x="95" y="1474"/>
      <point x="70" y="1482"/>
      <point x="70" y="1505" type="curve" smooth="yes"/>
      <point x="70" y="1536"/>
      <point x="64" y="1546"/>
      <point x="422" y="1546" type="curve" smooth="yes"/>
      <point x="460" y="1546"/>
      <point x="465" y="1531"/>
      <point x="465" y="1511" type="curve" smooth="yes"/>
      <point x="465" y="1486"/>
      <point x="449" y="1481"/>
      <point x="426" y="1481" type="curve" smooth="yes"/>
      <point x="403" y="1481"/>
      <point x="373" y="1480"/>
      <point x="350" y="1480" type="curve" smooth="yes"/>
      <point x="324" y="1480"/>
      <point x="333" y="1477"/>
      <point x="333" y="1478" type="curve"/>
      <point x="333" y="1440"/>
      <point x="341" y="1290"/>
      <point x="341" y="1200" type="curve" smooth="yes"/>
      <point x="341" y="952" type="line" smooth="yes"/>
      <point x="341" y="368" type="line" smooth="yes"/>
      <point x="341" y="314"/>
      <point x="343" y="78"/>
      <point x="343" y="48" type="curve" smooth="yes"/>
      <point x="343" y="42" type="line" smooth="yes"/>
      <point x="343" y="13"/>
      <point x="342" y="-12"/>
      <point x="313" y="-12" type="curve" smooth="yes"/>
      <point x="282" y="-12"/>
      <point x="271" y="15"/>
    </contour>
  </outline>
</glyph>
<glyph name="U" format="1">
  <advance width="743"/>
  <unicode hex="0055"/>
  <outline>
    <contour>
      <point x="139" y="473" type="curve" smooth="yes"/>
      <point x="133" y="536"/>
      <point x="98" y="1122"/>
      <point x="98" y="1448" type="curve" smooth="yes"/>
      <point x="98" y="1456"/>
      <point x="97" y="1467"/>
      <point x="97" y="1479" type="curve" smooth="yes"/>
      <point x="97" y="1505"/>
      <point x="101" y="1532"/>
      <point x="129" y="1532" type="curve" smooth="yes"/>
      <point x="166" y="1532"/>
      <point x="171" y="1509"/>
      <point x="171" y="1483" type="curve" smooth="yes"/>
      <point x="171" y="1473"/>
      <point x="170" y="1462"/>
      <point x="170" y="1452" type="curve" smooth="yes"/>
      <point x="170" y="1097"/>
      <point x="196" y="586"/>
      <point x="213" y="422" type="curve" smooth="yes"/>
      <point x="224" y="312"/>
      <point x="269" y="27"/>
      <point x="404" y="27" type="curve" smooth="yes"/>
      <point x="533" y="27"/>
      <point x="547" y="173"/>
      <point x="547" y="281" type="curve" smooth="yes"/>
      <point x="547" y="514" type="line" smooth="yes"/>
      <point x="547" y="732"/>
      <point x="529" y="1102"/>
      <point x="529" y="1159" type="curve" smooth="yes"/>
      <point x="529" y="1276"/>
      <point x="520" y="1390"/>
      <point x="520" y="1507" type="curve" smooth="yes"/>
      <point x="520" y="1539"/>
      <point x="540" y="1555"/>
      <point x="560" y="1555" type="curve" smooth="yes"/>
      <point x="580" y="1555"/>
      <point x="600" y="1539"/>
      <point x="600" y="1507" type="curve" smooth="yes"/>
      <point x="600" y="1352" type="line" smooth="yes"/>
      <point x="600" y="1229"/>
      <point x="601" y="1106"/>
      <point x="601" y="983" type="curve" smooth="yes"/>
      <point x="601" y="740"/>
      <point x="608" y="523"/>
      <point x="608" y="295" type="curve" smooth="yes"/>
      <point x="608" y="168"/>
      <point x="583" y="-39"/>
      <point x="411" y="-39" type="curve" smooth="yes"/>
      <point x="139" y="-39"/>
      <point x="143" y="428"/>
    </contour>
  </outline>
</glyph>
<glyph name="W" format="1">
  <advance width="950"/>
  <unicode hex="0057"/>
  <outline>
    <contour>
      <point x="313" y="-27" type="curve" smooth="yes"/>
      <point x="256" y="-27"/>
      <point x="270" y="27"/>
      <point x="266" y="64" type="curve" smooth="yes"/>
      <point x="258" y="142"/>
      <point x="235" y="340"/>
      <point x="221" y="434" type="curve" smooth="yes"/>
      <point x="198" y="581"/>
      <point x="105" y="1464"/>
      <point x="74" y="1513" type="curve"/>
      <point x="82" y="1527"/>
      <point x="101" y="1540"/>
      <point x="117" y="1540" type="curve" smooth="yes"/>
      <point x="163" y="1540"/>
      <point x="170" y="1522"/>
      <point x="170" y="1493" type="curve" smooth="yes"/>
      <point x="170" y="1481"/>
      <point x="169" y="1469"/>
      <point x="169" y="1454" type="curve" smooth="yes"/>
      <point x="169" y="1447"/>
      <point x="169" y="1440"/>
      <point x="170" y="1432" type="curve" smooth="yes"/>
      <point x="195" y="1166"/>
      <point x="272" y="575"/>
      <point x="303" y="309" type="curve"/>
      <point x="307" y="309" type="line"/>
      <point x="320" y="412"/>
      <point x="339" y="673"/>
      <point x="353" y="838" type="curve"/>
      <point x="361" y="953"/>
      <point x="375" y="1069"/>
      <point x="387" y="1184" type="curve" smooth="yes"/>
      <point x="392" y="1238"/>
      <point x="396" y="1308"/>
      <point x="399" y="1346" type="curve" smooth="yes"/>
      <point x="401" y="1366"/>
      <point x="412" y="1378"/>
      <point x="428" y="1386" type="curve"/>
      <point x="477" y="1386"/>
      <point x="472" y="1354"/>
      <point x="479" y="1323" type="curve" smooth="yes"/>
      <point x="496" y="1236"/>
      <point x="626" y="486"/>
      <point x="649" y="246" type="curve"/>
      <point x="655" y="242" type="line"/>
      <point x="665" y="281"/>
      <point x="664" y="321"/>
      <point x="666" y="360" type="curve" smooth="yes"/>
      <point x="678" y="567"/>
      <point x="719" y="774"/>
      <point x="731" y="981" type="curve" smooth="yes"/>
      <point x="741" y="1155"/>
      <point x="778" y="1329"/>
      <point x="778" y="1503" type="curve" smooth="yes"/>
      <point x="778" y="1517"/>
      <point x="776" y="1530"/>
      <point x="776" y="1542" type="curve" smooth="yes"/>
      <point x="776" y="1571"/>
      <point x="784" y="1591"/>
      <point x="829" y="1591" type="curve" smooth="yes"/>
      <point x="845" y="1591"/>
      <point x="868" y="1577"/>
      <point x="868" y="1559" type="curve" smooth="yes"/>
      <point x="868" y="1545"/>
      <point x="856" y="1528"/>
      <point x="846" y="1520" type="curve"/>
      <point x="848" y="1516"/>
      <point x="848" y="1511"/>
      <point x="848" y="1507" type="curve" smooth="yes"/>
      <point x="848" y="1491"/>
      <point x="842" y="1476"/>
      <point x="840" y="1462" type="curve" smooth="yes"/>
      <point x="801" y="1138"/>
      <point x="762" y="648"/>
      <point x="743" y="496" type="curve"/>
      <point x="734" y="384"/>
      <point x="692" y="46"/>
      <point x="692" y="23" type="curve" smooth="yes"/>
      <point x="692" y="-4"/>
      <point x="688" y="-27"/>
      <point x="655" y="-27" type="curve" smooth="yes"/>
      <point x="600" y="-27"/>
      <point x="604" y="33"/>
      <point x="596" y="86" type="curve" smooth="yes"/>
      <point x="561" y="322"/>
      <point x="487" y="881"/>
      <point x="458" y="1119" type="curve"/>
      <point x="452" y="1123" type="line"/>
      <point x="452" y="1121"/>
      <point x="450" y="1121"/>
      <point x="450" y="1119" type="curve" smooth="yes"/>
      <point x="434" y="940"/>
      <point x="377" y="272"/>
      <point x="358" y="78" type="curve"/>
      <point x="358" y="70" type="line" smooth="yes"/>
      <point x="358" y="45"/>
      <point x="355" y="-27"/>
    </contour>
  </outline>
</glyph>
<glyph name="X" format="1">
  <advance width="565"/>
  <unicode hex="0058"/>
  <outline>
    <contour>
      <point x="82" y="12" type="curve" smooth="yes"/>
      <point x="82" y="39"/>
      <point x="110" y="135"/>
      <point x="120" y="170" type="curve" smooth="yes"/>
      <point x="155" y="301"/>
      <point x="188" y="434"/>
      <point x="215" y="565" type="curve" smooth="yes"/>
      <point x="231" y="645"/>
      <point x="254" y="739"/>
      <point x="254" y="821" type="curve" smooth="yes"/>
      <point x="254" y="979"/>
      <point x="203" y="1134"/>
      <point x="172" y="1288" type="curve" smooth="yes"/>
      <point x="158" y="1358"/>
      <point x="123" y="1423"/>
      <point x="121" y="1495" type="curve"/>
      <point x="127" y="1505"/>
      <point x="142" y="1522"/>
      <point x="154" y="1522" type="curve" smooth="yes"/>
      <point x="205" y="1522"/>
      <point x="191" y="1467"/>
      <point x="197" y="1434" type="curve" smooth="yes"/>
      <point x="222" y="1293"/>
      <point x="274" y="1067"/>
      <point x="297" y="922" type="curve"/>
      <point x="312" y="1032"/>
      <point x="354" y="1255"/>
      <point x="377" y="1380" type="curve" smooth="yes"/>
      <point x="383" y="1415"/>
      <point x="391" y="1552"/>
      <point x="438" y="1552" type="curve" smooth="yes"/>
      <point x="452" y="1552"/>
      <point x="475" y="1548"/>
      <point x="475" y="1530" type="curve" smooth="yes"/>
      <point x="475" y="1501"/>
      <point x="457" y="1475"/>
      <point x="449" y="1448" type="curve" smooth="yes"/>
      <point x="414" y="1327"/>
      <point x="390" y="1190"/>
      <point x="365" y="1061" type="curve" smooth="yes"/>
      <point x="349" y="979"/>
      <point x="324" y="869"/>
      <point x="324" y="791" type="curve"/>
      <point x="432" y="238" type="line"/>
      <point x="454" y="134" type="line"/>
      <point x="454" y="126"/>
      <point x="463" y="96"/>
      <point x="463" y="70" type="curve" smooth="yes"/>
      <point x="463" y="47"/>
      <point x="456" y="27"/>
      <point x="430" y="27" type="curve" smooth="yes"/>
      <point x="412" y="27"/>
      <point x="393" y="28"/>
      <point x="393" y="53" type="curve" smooth="yes"/>
      <point x="393" y="127"/>
      <point x="374" y="207"/>
      <point x="362" y="279" type="curve"/>
      <point x="339" y="396"/>
      <point x="318" y="514"/>
      <point x="289" y="629" type="curve"/>
      <point x="275" y="606"/>
      <point x="176" y="131"/>
      <point x="164" y="61" type="curve" smooth="yes"/>
      <point x="158" y="24"/>
      <point x="158" y="-12"/>
      <point x="113" y="-12" type="curve" smooth="yes"/>
      <point x="103" y="-12"/>
      <point x="82" y="0"/>
    </contour>
  </outline>
</glyph>
<glyph name="Y" format="1">
  <advance width="505"/>
  <unicode hex="0059"/>
  <outline>
    <contour>
      <point x="260" y="25" type="curve" smooth="yes"/>
      <point x="260" y="156"/>
      <point x="270" y="289"/>
      <point x="270" y="420" type="curve" smooth="yes"/>
      <point x="270" y="475"/>
      <point x="256" y="531"/>
      <point x="256" y="586" type="curve" smooth="yes"/>
      <point x="256" y="652"/>
      <point x="231" y="713"/>
      <point x="231" y="776" type="curve" smooth="yes"/>
      <point x="231" y="813"/>
      <point x="207" y="901"/>
      <point x="199" y="938" type="curve" smooth="yes"/>
      <point x="168" y="1088"/>
      <point x="143" y="1243"/>
      <point x="104" y="1380" type="curve" smooth="yes"/>
      <point x="92" y="1419"/>
      <point x="74" y="1472"/>
      <point x="74" y="1513" type="curve" smooth="yes"/>
      <point x="74" y="1536"/>
      <point x="97" y="1546"/>
      <point x="115" y="1546" type="curve"/>
      <point x="139" y="1530" type="line"/>
      <point x="145" y="1438"/>
      <point x="229" y="985"/>
      <point x="268" y="930" type="curve"/>
      <point x="284" y="992"/>
      <point x="311" y="1540"/>
      <point x="389" y="1540" type="curve" smooth="yes"/>
      <point x="407" y="1540"/>
      <point x="420" y="1541"/>
      <point x="420" y="1518" type="curve" smooth="yes"/>
      <point x="420" y="1489"/>
      <point x="407" y="1463"/>
      <point x="403" y="1434" type="curve" smooth="yes"/>
      <point x="370" y="1241"/>
      <point x="322" y="1030"/>
      <point x="322" y="829" type="curve" smooth="yes"/>
      <point x="322" y="806"/>
      <point x="328" y="785"/>
      <point x="328" y="762" type="curve"/>
      <point x="315" y="731" type="line"/>
      <point x="315" y="715" type="line" smooth="yes"/>
      <point x="315" y="633"/>
      <point x="330" y="551"/>
      <point x="330" y="469" type="curve" smooth="yes"/>
      <point x="330" y="332"/>
      <point x="330" y="192"/>
      <point x="326" y="55" type="curve"/>
      <point x="332" y="49" type="line"/>
      <point x="332" y="45"/>
      <point x="334" y="39"/>
      <point x="334" y="35" type="curve" smooth="yes"/>
      <point x="334" y="8"/>
      <point x="320" y="-25"/>
      <point x="289" y="-25" type="curve" smooth="yes"/>
      <point x="266" y="-25"/>
      <point x="260" y="9"/>
    </contour>
  </outline>
</glyph>
<glyph name="bracketleft" format="1">
  <advance width="514"/>
  <unicode hex="005B"/>
  <outline>
    <contour>
      <point x="354" y="-68" type="curve" smooth="yes"/>
      <point x="354" y="-84"/>
      <point x="331" y="-88"/>
      <point x="319" y="-88" type="curve" smooth="yes"/>
      <point x="284" y="-88"/>
      <point x="88" y="-76"/>
      <point x="88" y="-35" type="curve" smooth="yes"/>
      <point x="88" y="135"/>
      <point x="131" y="301"/>
      <point x="131" y="471" type="curve" smooth="yes"/>
      <point x="131" y="809"/>
      <point x="184" y="1143"/>
      <point x="184" y="1481" type="curve" smooth="yes"/>
      <point x="184" y="1499"/>
      <point x="168" y="1510"/>
      <point x="164" y="1528" type="curve"/>
      <point x="205" y="1552" type="line"/>
      <point x="240" y="1550"/>
      <point x="440" y="1556"/>
      <point x="440" y="1511" type="curve" smooth="yes"/>
      <point x="440" y="1497"/>
      <point x="420" y="1489"/>
      <point x="408" y="1489" type="curve" smooth="yes"/>
      <point x="369" y="1489"/>
      <point x="332" y="1501"/>
      <point x="293" y="1501" type="curve" smooth="yes"/>
      <point x="264" y="1501"/>
      <point x="231" y="1495"/>
      <point x="231" y="1458" type="curve" smooth="yes"/>
      <point x="231" y="1100"/>
      <point x="201" y="731"/>
      <point x="178" y="371" type="curve" smooth="yes"/>
      <point x="176" y="330"/>
      <point x="162" y="82"/>
      <point x="152" y="51" type="curve"/>
      <point x="152" y="2" type="line"/>
      <point x="143" y="-14" type="line"/>
      <point x="182" y="-22"/>
      <point x="354" y="-13"/>
    </contour>
  </outline>
</glyph>
<glyph name="bracketright" format="1">
  <advance width="516"/>
  <unicode hex="005D"/>
  <outline>
    <contour>
      <point x="164" y="-68" type="curve" smooth="yes"/>
      <point x="164" y="-13"/>
      <point x="336" y="-22"/>
      <point x="375" y="-14" type="curve"/>
      <point x="367" y="2" type="line"/>
      <point x="367" y="51" type="line"/>
      <point x="342" y="106"/>
      <point x="303" y="1061"/>
      <point x="299" y="1204" type="curve" smooth="yes"/>
      <point x="297" y="1288"/>
      <point x="287" y="1374"/>
      <point x="287" y="1458" type="curve" smooth="yes"/>
      <point x="287" y="1485"/>
      <point x="281" y="1499"/>
      <point x="252" y="1499" type="curve" smooth="yes"/>
      <point x="213" y="1499"/>
      <point x="176" y="1491"/>
      <point x="137" y="1491" type="curve" smooth="yes"/>
      <point x="126" y="1491" type="line" smooth="yes"/>
      <point x="108" y="1491"/>
      <point x="78" y="1493"/>
      <point x="78" y="1511" type="curve" smooth="yes"/>
      <point x="78" y="1556"/>
      <point x="278" y="1550"/>
      <point x="313" y="1552" type="curve"/>
      <point x="354" y="1528" type="line"/>
      <point x="350" y="1510"/>
      <point x="334" y="1499"/>
      <point x="334" y="1481" type="curve" smooth="yes"/>
      <point x="334" y="1157"/>
      <point x="389" y="834"/>
      <point x="389" y="510" type="curve" smooth="yes"/>
      <point x="389" y="328"/>
      <point x="430" y="147"/>
      <point x="430" y="-35" type="curve" smooth="yes"/>
      <point x="430" y="-76"/>
      <point x="234" y="-88"/>
      <point x="199" y="-88" type="curve" smooth="yes"/>
      <point x="187" y="-88"/>
      <point x="164" y="-84"/>
    </contour>
  </outline>
</glyph>
<glyph name="asciicircum" format="1">
  <advance width="319"/>
  <unicode hex="005E"/>
  <outline>
    <contour>
      <point x="117" y="1575" type="curve" smooth="yes"/>
      <point x="117" y="1600"/>
      <point x="127" y="1632"/>
      <point x="156" y="1632" type="curve" smooth="yes"/>
      <point x="185" y="1632"/>
      <point x="207" y="1612"/>
      <point x="207" y="1583" type="curve" smooth="yes"/>
      <point x="207" y="1556"/>
      <point x="195" y="1538"/>
      <point x="166" y="1538" type="curve" smooth="yes"/>
      <point x="141" y="1538"/>
      <point x="117" y="1546"/>
    </contour>
  </outline>
</glyph>
<glyph name="underscore" format="1">
  <advance width="565"/>
  <unicode hex="005F"/>
  <outline>
    <contour>
      <point x="620" y="-44" type="curve"/>
      <point x="558" y="-44" type="line"/>
      <point x="558" y="-50"/>
      <point x="457" y="-50"/>
      <point x="344" y="-50" type="curve" smooth="yes"/>
      <point x="42" y="-50" type="line" smooth="yes"/>
      <point x="22" y="-50"/>
      <point x="0" y="-38"/>
      <point x="-0" y="-15" type="curve" smooth="yes"/>
      <point x="0" y="-9"/>
      <point x="139" y="-9"/>
      <point x="282" y="-9" type="curve" smooth="yes"/>
      <point x="576" y="-9" type="line" smooth="yes"/>
      <point x="594" y="-9"/>
      <point x="620" y="-24"/>
    </contour>
  </outline>
</glyph>
<glyph name="grave" format="1">
  <advance width="550"/>
  <unicode hex="0060"/>
  <outline>
    <contour>
      <point x="207" y="1622" type="curve"/>
      <point x="197" y="1620"/>
      <point x="186" y="1618"/>
      <point x="174" y="1618" type="curve" smooth="yes"/>
      <point x="149" y="1618"/>
      <point x="104" y="1624"/>
      <point x="104" y="1659" type="curve" smooth="yes"/>
      <point x="104" y="1671"/>
      <point x="105" y="1696"/>
      <point x="117" y="1704" type="curve"/>
      <point x="130" y="1704" type="line" smooth="yes"/>
      <point x="158" y="1704"/>
      <point x="192" y="1703"/>
      <point x="209" y="1681" type="curve"/>
      <point x="248" y="1667"/>
      <point x="438" y="1606"/>
      <point x="438" y="1565" type="curve" smooth="yes"/>
      <point x="438" y="1555"/>
      <point x="422" y="1548"/>
      <point x="414" y="1548" type="curve" smooth="yes"/>
      <point x="408" y="1548"/>
      <point x="219" y="1616"/>
    </contour>
  </outline>
</glyph>
<glyph name="e" format="1">
  <advance width="491"/>
  <unicode hex="0065"/>
  <outline>
    <contour>
      <point x="111" y="68" type="curve"/>
      <point x="104" y="76" type="line"/>
      <point x="114" y="103"/>
      <point x="119" y="129"/>
      <point x="119" y="160" type="curve" smooth="yes"/>
      <point x="119" y="250"/>
      <point x="109" y="340"/>
      <point x="109" y="430" type="curve" smooth="yes"/>
      <point x="109" y="635"/>
      <point x="123" y="840"/>
      <point x="123" y="1047" type="curve" smooth="yes"/>
      <point x="123" y="1129"/>
      <point x="115" y="1210"/>
      <point x="115" y="1292" type="curve" smooth="yes"/>
      <point x="115" y="1329"/>
      <point x="129" y="1350"/>
      <point x="174" y="1350" type="curve" smooth="yes"/>
      <point x="186" y="1350"/>
      <point x="199" y="1347"/>
      <point x="207" y="1337" type="curve"/>
      <point x="242" y="1327"/>
      <point x="391" y="1325"/>
      <point x="395" y="1278" type="curve"/>
      <point x="395" y="1264"/>
      <point x="366" y="1245"/>
      <point x="356" y="1239" type="curve"/>
      <point x="307" y="1255"/>
      <point x="239" y="1276"/>
      <point x="190" y="1278" type="curve"/>
      <point x="180" y="1266" type="line"/>
      <point x="182" y="1237"/>
      <point x="182" y="1207"/>
      <point x="182" y="1178" type="curve" smooth="yes"/>
      <point x="182" y="1072"/>
      <point x="174" y="966"/>
      <point x="174" y="860" type="curve" smooth="yes"/>
      <point x="174" y="831"/>
      <point x="178" y="803"/>
      <point x="203" y="803" type="curve" smooth="yes"/>
      <point x="226" y="803"/>
      <point x="247" y="807"/>
      <point x="272" y="807" type="curve" smooth="yes"/>
      <point x="295" y="807"/>
      <point x="350" y="805"/>
      <point x="352" y="770" type="curve"/>
      <point x="352" y="745"/>
      <point x="340" y="717"/>
      <point x="311" y="717" type="curve" smooth="yes"/>
      <point x="297" y="717"/>
      <point x="272" y="723"/>
      <point x="264" y="733" type="curve"/>
      <point x="197" y="743" type="line"/>
      <point x="188" y="743" type="line"/>
      <point x="178" y="733" type="line"/>
      <point x="178" y="727" type="line"/>
      <point x="182" y="674"/>
      <point x="182" y="618"/>
      <point x="182" y="565" type="curve" smooth="yes"/>
      <point x="182" y="469"/>
      <point x="178" y="370"/>
      <point x="178" y="274" type="curve" smooth="yes"/>
      <point x="178" y="219"/>
      <point x="180" y="166"/>
      <point x="184" y="111" type="curve" smooth="yes"/>
      <point x="188" y="45"/>
      <point x="211" y="33"/>
      <point x="272" y="33" type="curve" smooth="yes"/>
      <point x="297" y="33"/>
      <point x="321" y="37"/>
      <point x="348" y="37" type="curve" smooth="yes"/>
      <point x="366" y="37"/>
      <point x="408" y="37"/>
      <point x="408" y="10" type="curve" smooth="yes"/>
      <point x="408" y="-27"/>
      <point x="346" y="-27"/>
      <point x="319" y="-27" type="curve" smooth="yes"/>
      <point x="150" y="-27" type="line" smooth="yes"/>
      <point x="121" y="-27"/>
      <point x="111" y="-9"/>
      <point x="109" y="16" type="curve"/>
      <point x="109" y="32"/>
      <point x="111" y="52"/>
    </contour>
  </outline>
</glyph>
<glyph name="j" format="1">
  <advance width="573"/>
  <unicode hex="006A"/>
  <outline>
    <contour>
      <point x="70" y="-197" type="curve" smooth="yes"/>
      <point x="70" y="-181"/>
      <point x="205" y="-107"/>
      <point x="225" y="-84" type="curve" smooth="yes"/>
      <point x="274" y="-29"/>
      <point x="291" y="100"/>
      <point x="291" y="172" type="curve" smooth="yes"/>
      <point x="291" y="534"/>
      <point x="272" y="898"/>
      <point x="272" y="1260" type="curve"/>
      <point x="260" y="1282" type="line"/>
      <point x="231" y="1294"/>
      <point x="111" y="1296"/>
      <point x="111" y="1335" type="curve" smooth="yes"/>
      <point x="111" y="1347"/>
      <point x="144" y="1360"/>
      <point x="154" y="1360" type="curve" smooth="yes"/>
      <point x="203" y="1360"/>
      <point x="496" y="1317"/>
      <point x="496" y="1274" type="curve" smooth="yes"/>
      <point x="496" y="1256"/>
      <point x="479" y="1247"/>
      <point x="463" y="1247" type="curve" smooth="yes"/>
      <point x="424" y="1247"/>
      <point x="391" y="1268"/>
      <point x="352" y="1268" type="curve" smooth="yes"/>
      <point x="334" y="1268"/>
      <point x="334" y="1237"/>
      <point x="334" y="1227" type="curve" smooth="yes"/>
      <point x="334" y="942"/>
      <point x="354" y="660"/>
      <point x="354" y="377" type="curve" smooth="yes"/>
      <point x="354" y="152" type="line"/>
      <point x="342" y="125"/>
      <point x="342" y="95"/>
      <point x="342" y="66" type="curve" smooth="yes"/>
      <point x="342" y="-34"/>
      <point x="278" y="-252"/>
      <point x="133" y="-252" type="curve" smooth="yes"/>
      <point x="119" y="-252" type="line"/>
      <point x="72" y="-205" type="line"/>
      <point x="72" y="-203"/>
      <point x="70" y="-199"/>
    </contour>
  </outline>
</glyph>
<glyph name="k" format="1">
  <advance width="677"/>
  <unicode hex="006B"/>
  <outline>
    <contour>
      <point x="279" y="795" type="curve"/>
      <point x="274" y="803" type="line"/>
      <point x="229" y="707"/>
      <point x="176" y="629"/>
      <point x="176" y="518" type="curve" smooth="yes"/>
      <point x="176" y="469"/>
      <point x="166" y="420"/>
      <point x="166" y="371" type="curve" smooth="yes"/>
      <point x="166" y="109" type="line" smooth="yes"/>
      <point x="166" y="70"/>
      <point x="180" y="31"/>
      <point x="180" y="-8" type="curve" smooth="yes"/>
      <point x="180" y="-24"/>
      <point x="161" y="-33"/>
      <point x="147" y="-33" type="curve" smooth="yes"/>
      <point x="114" y="-33"/>
      <point x="102" y="-25"/>
      <point x="102" y="10" type="curve" smooth="yes"/>
      <point x="102" y="395" type="line" smooth="yes"/>
      <point x="102" y="481"/>
      <point x="121" y="567"/>
      <point x="121" y="653" type="curve" smooth="yes"/>
      <point x="121" y="784"/>
      <point x="141" y="918"/>
      <point x="141" y="1049" type="curve" smooth="yes"/>
      <point x="141" y="1333" type="line"/>
      <point x="149" y="1349"/>
      <point x="164" y="1356"/>
      <point x="180" y="1356" type="curve" smooth="yes"/>
      <point x="200" y="1356"/>
      <point x="219" y="1337"/>
      <point x="219" y="1317" type="curve"/>
      <point x="201" y="1284"/>
      <point x="201" y="1254"/>
      <point x="201" y="1219" type="curve" smooth="yes"/>
      <point x="201" y="1076"/>
      <point x="193" y="929"/>
      <point x="193" y="786" type="curve"/>
      <point x="232" y="802"/>
      <point x="477" y="1343"/>
      <point x="506" y="1343" type="curve" smooth="yes"/>
      <point x="529" y="1343"/>
      <point x="559" y="1336"/>
      <point x="561" y="1309" type="curve"/>
      <point x="469" y="1174"/>
      <point x="412" y="1077"/>
      <point x="342" y="930" type="curve"/>
      <point x="342" y="887"/>
      <point x="338" y="842"/>
      <point x="338" y="799" type="curve" smooth="yes"/>
      <point x="338" y="670"/>
      <point x="465" y="236"/>
      <point x="528" y="117" type="curve" smooth="yes"/>
      <point x="548" y="78"/>
      <point x="592" y="41"/>
      <point x="592" y="-6" type="curve" smooth="yes"/>
      <point x="592" y="-26"/>
      <point x="575" y="-37"/>
      <point x="557" y="-37" type="curve" smooth="yes"/>
      <point x="451" y="-37"/>
      <point x="285" y="670"/>
    </contour>
  </outline>
</glyph>
<glyph name="l" format="1">
  <advance width="497"/>
  <unicode hex="006C"/>
  <outline>
    <contour>
      <point x="215" y="-18" type="curve"/>
      <point x="219" y="-20" type="line"/>
      <point x="192" y="-20"/>
      <point x="170" y="-27"/>
      <point x="143" y="-27" type="curve" smooth="yes"/>
      <point x="120" y="-27"/>
      <point x="111" y="2"/>
      <point x="109" y="20" type="curve"/>
      <point x="113" y="40"/>
      <point x="113" y="65"/>
      <point x="113" y="88" type="curve" smooth="yes"/>
      <point x="113" y="457"/>
      <point x="125" y="844"/>
      <point x="125" y="1180" type="curve" smooth="yes"/>
      <point x="125" y="1205"/>
      <point x="135" y="1305"/>
      <point x="135" y="1315" type="curve" smooth="yes"/>
      <point x="135" y="1325"/>
      <point x="142" y="1329"/>
      <point x="150" y="1329" type="curve" smooth="yes"/>
      <point x="164" y="1329"/>
      <point x="184" y="1319"/>
      <point x="184" y="1321" type="curve"/>
      <point x="184" y="1266"/>
      <point x="182" y="1214"/>
      <point x="182" y="1159" type="curve" smooth="yes"/>
      <point x="182" y="1009"/>
      <point x="184" y="863"/>
      <point x="184" y="713" type="curve"/>
      <point x="182" y="643"/>
      <point x="178" y="582"/>
      <point x="178" y="541" type="curve" smooth="yes"/>
      <point x="178" y="484"/>
      <point x="182" y="424"/>
      <point x="182" y="367" type="curve"/>
      <point x="176" y="350" type="line"/>
      <point x="178" y="352" type="line"/>
      <point x="178" y="346"/>
      <point x="176" y="342"/>
      <point x="176" y="336" type="curve" smooth="yes"/>
      <point x="176" y="326"/>
      <point x="178" y="315"/>
      <point x="182" y="307" type="curve"/>
      <point x="176" y="111" type="line" smooth="yes"/>
      <point x="176" y="98" type="line" smooth="yes"/>
      <point x="176" y="55"/>
      <point x="178" y="47"/>
      <point x="188" y="47" type="curve" smooth="yes"/>
      <point x="241" y="47"/>
      <point x="352" y="41"/>
      <point x="381" y="41" type="curve" smooth="yes"/>
      <point x="387" y="41" type="line" smooth="yes"/>
      <point x="401" y="41"/>
      <point x="418" y="22"/>
      <point x="418" y="6" type="curve" smooth="yes"/>
      <point x="418" y="-6"/>
      <point x="410" y="-18"/>
      <point x="385" y="-20" type="curve"/>
      <point x="332" y="-18"/>
      <point x="272" y="-18"/>
    </contour>
  </outline>
</glyph>
<glyph name="m" format="1">
  <advance width="1054"/>
  <unicode hex="006D"/>
  <outline>
    <contour>
      <point x="905" y="-106" type="curve" smooth="yes"/>
      <point x="866" y="-106"/>
      <point x="864" y="-12"/>
      <point x="864" y="25" type="curve" smooth="yes"/>
      <point x="864" y="159" type="line" smooth="yes"/>
      <point x="864" y="314"/>
      <point x="863" y="468"/>
      <point x="852" y="621" type="curve" smooth="yes"/>
      <point x="848" y="676"/>
      <point x="836" y="731"/>
      <point x="836" y="786" type="curve" smooth="yes"/>
      <point x="836" y="870"/>
      <point x="844" y="956"/>
      <point x="844" y="1040" type="curve" smooth="yes"/>
      <point x="844" y="1067"/>
      <point x="844" y="1112"/>
      <point x="836" y="1137" type="curve"/>
      <point x="795" y="1104"/>
      <point x="617" y="383"/>
      <point x="590" y="274" type="curve"/>
      <point x="582" y="237"/>
      <point x="579" y="115"/>
      <point x="528" y="115" type="curve" smooth="yes"/>
      <point x="481" y="115"/>
      <point x="467" y="139"/>
      <point x="467" y="182" type="curve" smooth="yes"/>
      <point x="467" y="286"/>
      <point x="270" y="1100"/>
      <point x="219" y="1149" type="curve"/>
      <point x="203" y="789"/>
      <point x="174" y="430"/>
      <point x="174" y="70" type="curve" smooth="yes"/>
      <point x="174" y="43"/>
      <point x="174" y="15"/>
      <point x="176" y="-12" type="curve"/>
      <point x="170" y="-30"/>
      <point x="151" y="-39"/>
      <point x="133" y="-39" type="curve" smooth="yes"/>
      <point x="125" y="-39"/>
      <point x="98" y="-20"/>
      <point x="98" y="-10" type="curve" smooth="yes"/>
      <point x="98" y="422"/>
      <point x="162" y="850"/>
      <point x="162" y="1282" type="curve" smooth="yes"/>
      <point x="162" y="1296"/>
      <point x="150" y="1307"/>
      <point x="150" y="1321" type="curve" smooth="yes"/>
      <point x="150" y="1348"/>
      <point x="187" y="1352"/>
      <point x="205" y="1352" type="curve" smooth="yes"/>
      <point x="260" y="1352"/>
      <point x="250" y="1270"/>
      <point x="256" y="1235" type="curve" smooth="yes"/>
      <point x="276" y="1124"/>
      <point x="344" y="1027"/>
      <point x="373" y="918" type="curve" smooth="yes"/>
      <point x="396" y="832"/>
      <point x="424" y="748"/>
      <point x="440" y="662" type="curve"/>
      <point x="467" y="608" type="line"/>
      <point x="487" y="502"/>
      <point x="524" y="396"/>
      <point x="526" y="287" type="curve"/>
      <point x="561" y="340"/>
      <point x="758" y="1085"/>
      <point x="778" y="1196" type="curve" smooth="yes"/>
      <point x="786" y="1237"/>
      <point x="793" y="1348"/>
      <point x="852" y="1348" type="curve" smooth="yes"/>
      <point x="868" y="1348"/>
      <point x="903" y="1329"/>
      <point x="903" y="1311" type="curve" smooth="yes"/>
      <point x="903" y="1194"/>
      <point x="903" y="453"/>
      <point x="930" y="408" type="curve"/>
      <point x="930" y="336"/>
      <point x="926" y="265"/>
      <point x="926" y="193" type="curve" smooth="yes"/>
      <point x="926" y="127"/>
      <point x="928" y="59"/>
      <point x="942" y="-4" type="curve" smooth="yes"/>
      <point x="944" y="-16"/>
      <point x="950" y="-27"/>
      <point x="950" y="-39" type="curve" smooth="yes"/>
      <point x="950" y="-62"/>
      <point x="934" y="-106"/>
    </contour>
    <contour>
      <point x="836" y="1149" type="line"/>
      <point x="834" y="1149" type="line"/>
      <point x="831" y="1147" type="line"/>
      <point x="836" y="1145" type="line"/>
    </contour>
  </outline>
</glyph>
<glyph name="n" format="1">
  <advance width="862"/>
  <unicode hex="006E"/>
  <outline>
    <contour>
      <point x="469" y="418" type="curve"/>
      <point x="461" y="428"/>
      <point x="420" y="553"/>
      <point x="414" y="571" type="curve" smooth="yes"/>
      <point x="385" y="661"/>
      <point x="229" y="1143"/>
      <point x="182" y="1188" type="curve"/>
      <point x="170" y="1141"/>
      <point x="166" y="1091"/>
      <point x="166" y="1044" type="curve" smooth="yes"/>
      <point x="166" y="989"/>
      <point x="170" y="936"/>
      <point x="170" y="883" type="curve" smooth="yes"/>
      <point x="170" y="850"/>
      <point x="166" y="817"/>
      <point x="166" y="784" type="curve" smooth="yes"/>
      <point x="166" y="737"/>
      <point x="172" y="688"/>
      <point x="174" y="641" type="curve"/>
      <point x="168" y="641" type="line"/>
      <point x="168" y="586"/>
      <point x="170" y="295"/>
      <point x="182" y="264" type="curve"/>
      <point x="182" y="80" type="line"/>
      <point x="190" y="66"/>
      <point x="190" y="53"/>
      <point x="190" y="37" type="curve" smooth="yes"/>
      <point x="190" y="17"/>
      <point x="175" y="-4"/>
      <point x="152" y="-4" type="curve" smooth="yes"/>
      <point x="111" y="-4"/>
      <point x="109" y="79"/>
      <point x="109" y="106" type="curve" smooth="yes"/>
      <point x="109" y="151"/>
      <point x="117" y="195"/>
      <point x="117" y="240" type="curve" smooth="yes"/>
      <point x="117" y="437"/>
      <point x="104" y="632"/>
      <point x="104" y="829" type="curve" smooth="yes"/>
      <point x="104" y="950"/>
      <point x="117" y="1071"/>
      <point x="117" y="1192" type="curve" smooth="yes"/>
      <point x="117" y="1218" type="line" smooth="yes"/>
      <point x="117" y="1264"/>
      <point x="120" y="1321"/>
      <point x="154" y="1350" type="curve"/>
      <point x="160" y="1343" type="line"/>
      <point x="180" y="1348" type="line"/>
      <point x="205" y="1338"/>
      <point x="207" y="1317"/>
      <point x="213" y="1294" type="curve" smooth="yes"/>
      <point x="276" y="1030"/>
      <point x="422" y="782"/>
      <point x="506" y="520" type="curve" smooth="yes"/>
      <point x="547" y="391"/>
      <point x="561" y="244"/>
      <point x="631" y="125" type="curve"/>
      <point x="635" y="131" type="line"/>
      <point x="674" y="502"/>
      <point x="682" y="874"/>
      <point x="682" y="1247" type="curve" smooth="yes"/>
      <point x="682" y="1263"/>
      <point x="678" y="1280"/>
      <point x="678" y="1298" type="curve" smooth="yes"/>
      <point x="678" y="1316"/>
      <point x="682" y="1341"/>
      <point x="707" y="1341" type="curve" smooth="yes"/>
      <point x="736" y="1341"/>
      <point x="752" y="1307"/>
      <point x="752" y="1282" type="curve" smooth="yes"/>
      <point x="752" y="1145" type="line"/>
      <point x="741" y="1128" type="line"/>
      <point x="741" y="999"/>
      <point x="709" y="72"/>
      <point x="676" y="6" type="curve"/>
      <point x="669" y="5"/>
      <point x="654" y="1"/>
      <point x="641" y="-3" type="curve" smooth="yes"/>
      <point x="641" y="-4" type="line" smooth="yes"/>
      <point x="640" y="-3" type="line"/>
      <point x="630" y="-6"/>
      <point x="621" y="-8"/>
      <point x="618" y="-8" type="curve" smooth="yes"/>
      <point x="583" y="-8"/>
      <point x="585" y="47"/>
      <point x="573" y="70" type="curve"/>
      <point x="575" y="76" type="line"/>
      <point x="557" y="193"/>
      <point x="504" y="305"/>
    </contour>
  </outline>
</glyph>
<glyph name="p" format="1">
  <advance width="522"/>
  <unicode hex="0070"/>
  <outline>
    <contour>
      <point x="129" y="-25" type="line"/>
      <point x="111" y="71"/>
      <point x="106" y="172"/>
      <point x="106" y="270" type="curve" smooth="yes"/>
      <point x="106" y="397"/>
      <point x="115" y="524"/>
      <point x="115" y="651" type="curve"/>
      <point x="109" y="665"/>
      <point x="102" y="682"/>
      <point x="102" y="698" type="curve"/>
      <point x="122" y="731"/>
      <point x="123" y="846"/>
      <point x="123" y="887" type="curve" smooth="yes"/>
      <point x="123" y="948"/>
      <point x="121" y="1257"/>
      <point x="111" y="1284" type="curve"/>
      <point x="115" y="1294"/>
      <point x="129" y="1335"/>
      <point x="141" y="1335" type="curve" smooth="yes"/>
      <point x="231" y="1335" type="line" smooth="yes"/>
      <point x="268" y="1335"/>
      <point x="336" y="1293"/>
      <point x="365" y="1268" type="curve"/>
      <point x="414" y="1223"/>
      <point x="416" y="1089"/>
      <point x="416" y="1026" type="curve" smooth="yes"/>
      <point x="416" y="809"/>
      <point x="409" y="707"/>
      <point x="180" y="639" type="curve"/>
      <point x="180" y="395" type="line" smooth="yes"/>
      <point x="180" y="262"/>
      <point x="197" y="127"/>
      <point x="197" y="-4" type="curve" smooth="yes"/>
      <point x="197" y="-29"/>
      <point x="185" y="-41"/>
      <point x="158" y="-41" type="curve"/>
    </contour>
    <contour>
      <point x="188" y="922" type="curve" smooth="yes"/>
      <point x="188" y="859"/>
      <point x="180" y="792"/>
      <point x="180" y="729" type="curve"/>
      <point x="193" y="709" type="line"/>
      <point x="349" y="709"/>
      <point x="350" y="970"/>
      <point x="350" y="1079" type="curve" smooth="yes"/>
      <point x="350" y="1171"/>
      <point x="340" y="1272"/>
      <point x="223" y="1272" type="curve" smooth="yes"/>
      <point x="184" y="1272"/>
      <point x="178" y="1252"/>
      <point x="178" y="1217" type="curve" smooth="yes"/>
      <point x="178" y="1119"/>
      <point x="188" y="1020"/>
    </contour>
  </outline>
</glyph>
<glyph name="x" format="1">
  <advance width="518"/>
  <unicode hex="0078"/>
  <outline>
    <contour>
      <point x="109" y="18" type="curve" smooth="yes"/>
      <point x="109" y="219"/>
      <point x="223" y="454"/>
      <point x="223" y="659" type="curve" smooth="yes"/>
      <point x="223" y="725"/>
      <point x="123" y="1214"/>
      <point x="94" y="1247" type="curve"/>
      <point x="94" y="1251"/>
      <point x="96" y="1258"/>
      <point x="96" y="1262" type="curve" smooth="yes"/>
      <point x="96" y="1287"/>
      <point x="78" y="1297"/>
      <point x="78" y="1315" type="curve" smooth="yes"/>
      <point x="78" y="1327"/>
      <point x="105" y="1335"/>
      <point x="115" y="1335" type="curve" smooth="yes"/>
      <point x="152" y="1335"/>
      <point x="159" y="1241"/>
      <point x="160" y="1212" type="curve"/>
      <point x="207" y="1085"/>
      <point x="215" y="946"/>
      <point x="254" y="817" type="curve"/>
      <point x="274" y="858"/>
      <point x="307" y="1121"/>
      <point x="311" y="1180" type="curve" smooth="yes"/>
      <point x="313" y="1203"/>
      <point x="324" y="1346"/>
      <point x="338" y="1350" type="curve" smooth="yes"/>
      <point x="348" y="1352"/>
      <point x="361" y="1354"/>
      <point x="371" y="1356" type="curve"/>
      <point x="389" y="1331" type="line"/>
      <point x="360" y="1288"/>
      <point x="356" y="1202"/>
      <point x="356" y="1151" type="curve" smooth="yes"/>
      <point x="356" y="1143"/>
      <point x="358" y="1134"/>
      <point x="358" y="1126" type="curve"/>
      <point x="356" y="1124" type="line"/>
      <point x="340" y="964"/>
      <point x="281" y="807"/>
      <point x="281" y="645" type="curve" smooth="yes"/>
      <point x="281" y="598"/>
      <point x="383" y="143"/>
      <point x="403" y="92" type="curve" smooth="yes"/>
      <point x="411" y="74"/>
      <point x="428" y="53"/>
      <point x="428" y="33" type="curve" smooth="yes"/>
      <point x="428" y="15"/>
      <point x="413" y="4"/>
      <point x="397" y="4" type="curve" smooth="yes"/>
      <point x="389" y="4"/>
      <point x="379" y="6"/>
      <point x="371" y="10" type="curve"/>
      <point x="332" y="176"/>
      <point x="287" y="340"/>
      <point x="256" y="508" type="curve"/>
      <point x="213" y="445"/>
      <point x="209" y="168"/>
      <point x="174" y="70" type="curve"/>
      <point x="178" y="62"/>
      <point x="178" y="53"/>
      <point x="178" y="45" type="curve" smooth="yes"/>
      <point x="178" y="27"/>
      <point x="172" y="-6"/>
      <point x="147" y="-6" type="curve" smooth="yes"/>
      <point x="131" y="-6"/>
      <point x="109" y="-5"/>
    </contour>
  </outline>
</glyph>
<glyph name="bar" format="1">
  <advance width="514"/>
  <unicode hex="007C"/>
  <outline>
    <contour>
      <point x="193" y="2" type="line"/>
      <point x="186" y="-68" type="line"/>
      <point x="186" y="-84"/>
      <point x="162" y="-88"/>
      <point x="152" y="-88" type="curve" smooth="yes"/>
      <point x="127" y="-88"/>
      <point x="127" y="-84"/>
      <point x="127" y="-72" type="curve" smooth="yes"/>
      <point x="127" y="110"/>
      <point x="152" y="289"/>
      <point x="152" y="471" type="curve" smooth="yes"/>
      <point x="152" y="809"/>
      <point x="184" y="1143"/>
      <point x="184" y="1487" type="curve" smooth="yes"/>
      <point x="184" y="1514"/>
      <point x="184" y="1552"/>
      <point x="225" y="1552" type="curve" smooth="yes"/>
      <point x="235" y="1552"/>
      <point x="238" y="1542"/>
      <point x="238" y="1530" type="curve" smooth="yes"/>
      <point x="238" y="1149"/>
      <point x="199" y="754"/>
      <point x="199" y="371" type="curve" smooth="yes"/>
      <point x="199" y="330"/>
      <point x="195" y="82"/>
      <point x="193" y="51" type="curve"/>
    </contour>
  </outline>
</glyph>
<glyph name="braceright" format="1">
  <advance width="696"/>
  <unicode hex="007D"/>
  <outline>
    <contour>
      <point x="240" y="1090" type="curve" smooth="yes"/>
      <point x="240" y="981"/>
      <point x="231" y="909"/>
      <point x="231" y="848" type="curve" smooth="yes"/>
      <point x="231" y="801"/>
      <point x="246" y="758"/>
      <point x="291" y="754" type="curve"/>
      <point x="297" y="752"/>
      <point x="299" y="743"/>
      <point x="299" y="733" type="curve" smooth="yes"/>
      <point x="299" y="725"/>
      <point x="295" y="719"/>
      <point x="283" y="717" type="curve"/>
      <point x="246" y="717"/>
      <point x="231" y="670"/>
      <point x="231" y="621" type="curve" smooth="yes"/>
      <point x="231" y="539"/>
      <point x="246" y="346"/>
      <point x="246" y="188" type="curve" smooth="yes"/>
      <point x="246" y="30"/>
      <point x="191" y="-51"/>
      <point x="115" y="-51" type="curve" smooth="yes"/>
      <point x="88" y="-51"/>
      <point x="37" y="-41"/>
      <point x="37" y="-23" type="curve" smooth="yes"/>
      <point x="37" y="0"/>
      <point x="56" y="0"/>
      <point x="70" y="0" type="curve" smooth="yes"/>
      <point x="80" y="0"/>
      <point x="86" y="-2"/>
      <point x="111" y="-2" type="curve" smooth="yes"/>
      <point x="172" y="-2"/>
      <point x="184" y="99"/>
      <point x="184" y="197" type="curve" smooth="yes"/>
      <point x="184" y="449" type="line" smooth="yes"/>
      <point x="184" y="502"/>
      <point x="178" y="557"/>
      <point x="178" y="606" type="curve" smooth="yes"/>
      <point x="178" y="661"/>
      <point x="182" y="708"/>
      <point x="231" y="735" type="curve"/>
      <point x="182" y="760"/>
      <point x="178" y="807"/>
      <point x="178" y="862" type="curve" smooth="yes"/>
      <point x="178" y="930"/>
      <point x="184" y="1001"/>
      <point x="184" y="1073" type="curve" smooth="yes"/>
      <point x="184" y="1296" type="line" smooth="yes"/>
      <point x="184" y="1394"/>
      <point x="172" y="1495"/>
      <point x="111" y="1495" type="curve" smooth="yes"/>
      <point x="80" y="1495" type="line" smooth="yes"/>
      <point x="53" y="1495"/>
      <point x="37" y="1498"/>
      <point x="37" y="1516" type="curve" smooth="yes"/>
      <point x="37" y="1534"/>
      <point x="88" y="1544"/>
      <point x="115" y="1544" type="curve" smooth="yes"/>
      <point x="191" y="1544"/>
      <point x="246" y="1463"/>
      <point x="246" y="1305" type="curve" smooth="yes"/>
      <point x="246" y="1223"/>
      <point x="240" y="1172"/>
    </contour>
  </outline>
</glyph>
<glyph name="sterling" format="1">
  <advance width="757"/>
  <unicode hex="00A3"/>
  <outline>
    <contour>
      <point x="82" y="49" type="curve" smooth="yes"/>
      <point x="82" y="90"/>
      <point x="172" y="115"/>
      <point x="201" y="135" type="curve"/>
      <point x="256" y="176"/>
      <point x="272" y="313"/>
      <point x="272" y="379" type="curve" smooth="yes"/>
      <point x="272" y="553"/>
      <point x="199" y="721"/>
      <point x="160" y="889" type="curve"/>
      <point x="156" y="889"/>
      <point x="154" y="887"/>
      <point x="150" y="887" type="curve" smooth="yes"/>
      <point x="136" y="887"/>
      <point x="121" y="897"/>
      <point x="121" y="915" type="curve" smooth="yes"/>
      <point x="121" y="931"/>
      <point x="129" y="944"/>
      <point x="147" y="944" type="curve"/>
      <point x="147" y="1042"/>
      <point x="123" y="1137"/>
      <point x="123" y="1235" type="curve" smooth="yes"/>
      <point x="123" y="1375"/>
      <point x="125" y="1606"/>
      <point x="300" y="1606" type="curve" smooth="yes"/>
      <point x="403" y="1606"/>
      <point x="453" y="1454"/>
      <point x="453" y="1399" type="curve"/>
      <point x="434" y="1378" type="line"/>
      <point x="401" y="1378"/>
      <point x="401" y="1402"/>
      <point x="387" y="1425" type="curve"/>
      <point x="387" y="1487"/>
      <point x="345" y="1562"/>
      <point x="287" y="1562" type="curve" smooth="yes"/>
      <point x="206" y="1562"/>
      <point x="174" y="1354"/>
      <point x="174" y="1268" type="curve" smooth="yes"/>
      <point x="174" y="1189"/>
      <point x="188" y="950"/>
      <point x="207" y="950" type="curve" smooth="yes"/>
      <point x="279" y="950"/>
      <point x="350" y="977"/>
      <point x="422" y="977" type="curve" smooth="yes"/>
      <point x="436" y="977"/>
      <point x="451" y="966"/>
      <point x="451" y="950" type="curve" smooth="yes"/>
      <point x="451" y="934"/>
      <point x="446" y="918"/>
      <point x="426" y="918" type="curve" smooth="yes"/>
      <point x="352" y="918"/>
      <point x="279" y="913"/>
      <point x="207" y="899" type="curve"/>
      <point x="262" y="773"/>
      <point x="322" y="541"/>
      <point x="322" y="375" type="curve" smooth="yes"/>
      <point x="322" y="283"/>
      <point x="291" y="227"/>
      <point x="266" y="143" type="curve"/>
      <point x="366" y="143"/>
      <point x="463" y="98"/>
      <point x="563" y="98" type="curve" smooth="yes"/>
      <point x="598" y="98"/>
      <point x="620" y="101"/>
      <point x="653" y="115" type="curve"/>
      <point x="682" y="94" type="line"/>
      <point x="682" y="49"/>
      <point x="617" y="49"/>
      <point x="586" y="49" type="curve" smooth="yes"/>
      <point x="555" y="49"/>
      <point x="523" y="55"/>
      <point x="492" y="55" type="curve"/>
      <point x="485" y="51" type="line"/>
      <point x="440" y="78"/>
      <point x="305" y="90"/>
      <point x="305" y="90" type="curve"/>
      <point x="223" y="90"/>
      <point x="183" y="68"/>
      <point x="113" y="27" type="curve"/>
      <point x="103" y="29"/>
      <point x="82" y="37"/>
    </contour>
  </outline>
</glyph>
<glyph name="section" format="1">
  <advance width="489"/>
  <unicode hex="00A7"/>
  <outline>
    <contour>
      <point x="389" y="537" type="curve" smooth="yes"/>
      <point x="389" y="482"/>
      <point x="377" y="411"/>
      <point x="342" y="354" type="curve"/>
      <point x="360" y="315"/>
      <point x="373" y="272"/>
      <point x="373" y="223" type="curve" smooth="yes"/>
      <point x="373" y="133"/>
      <point x="328" y="-57"/>
      <point x="211" y="-57" type="curve" smooth="yes"/>
      <point x="184" y="-57"/>
      <point x="133" y="-31"/>
      <point x="133" y="0" type="curve" smooth="yes"/>
      <point x="133" y="12"/>
      <point x="152" y="16"/>
      <point x="160" y="16" type="curve" smooth="yes"/>
      <point x="176" y="16"/>
      <point x="187" y="4"/>
      <point x="203" y="4" type="curve" smooth="yes"/>
      <point x="293" y="4"/>
      <point x="319" y="135"/>
      <point x="319" y="190" type="curve" smooth="yes"/>
      <point x="319" y="237"/>
      <point x="310" y="287"/>
      <point x="287" y="332" type="curve" smooth="yes"/>
      <point x="178" y="547"/>
      <point x="74" y="602"/>
      <point x="74" y="784" type="curve" smooth="yes"/>
      <point x="74" y="835"/>
      <point x="84" y="906"/>
      <point x="119" y="961" type="curve"/>
      <point x="101" y="1002"/>
      <point x="90" y="1047"/>
      <point x="90" y="1098" type="curve" smooth="yes"/>
      <point x="90" y="1188"/>
      <point x="135" y="1378"/>
      <point x="252" y="1378" type="curve" smooth="yes"/>
      <point x="279" y="1378"/>
      <point x="330" y="1352"/>
      <point x="330" y="1321" type="curve" smooth="yes"/>
      <point x="330" y="1309"/>
      <point x="311" y="1305"/>
      <point x="303" y="1305" type="curve" smooth="yes"/>
      <point x="287" y="1305"/>
      <point x="276" y="1317"/>
      <point x="260" y="1317" type="curve" smooth="yes"/>
      <point x="170" y="1317"/>
      <point x="143" y="1158"/>
      <point x="143" y="1090" type="curve" smooth="yes"/>
      <point x="143" y="1043"/>
      <point x="153" y="993"/>
      <point x="178" y="948" type="curve" smooth="yes"/>
      <point x="284" y="753"/>
      <point x="389" y="703"/>
    </contour>
    <contour>
      <point x="336" y="520" type="curve" smooth="yes"/>
      <point x="336" y="674"/>
      <point x="224" y="776"/>
      <point x="152" y="897" type="curve"/>
      <point x="132" y="848"/>
      <point x="127" y="793"/>
      <point x="127" y="760" type="curve" smooth="yes"/>
      <point x="127" y="608"/>
      <point x="235" y="510"/>
      <point x="309" y="391" type="curve"/>
      <point x="329" y="438"/>
      <point x="336" y="485"/>
    </contour>
  </outline>
</glyph>
<glyph name="ordfeminine" format="1">
  <advance width="692"/>
  <unicode hex="00AA"/>
  <outline>
    <contour>
      <point x="551" y="494" type="curve"/>
      <point x="502" y="494"/>
      <point x="490" y="503"/>
      <point x="490" y="545" type="curve" smooth="yes"/>
      <point x="490" y="637"/>
      <point x="469" y="726"/>
      <point x="457" y="807" type="curve"/>
      <point x="431" y="814"/>
      <point x="400" y="817"/>
      <point x="365" y="817" type="curve"/>
      <point x="311" y="815" type="line"/>
      <point x="302" y="819"/>
      <point x="280" y="823"/>
      <point x="247" y="827" type="curve"/>
      <point x="195" y="652" type="line"/>
      <point x="171" y="563"/>
      <point x="154" y="513"/>
      <point x="145" y="504" type="curve" smooth="yes"/>
      <point x="136" y="495"/>
      <point x="104" y="525"/>
      <point x="104" y="539" type="curve"/>
      <point x="131" y="584"/>
      <point x="193" y="808"/>
      <point x="289" y="1211" type="curve"/>
      <point x="299" y="1302"/>
      <point x="307" y="1354"/>
      <point x="314" y="1366" type="curve"/>
      <point x="342" y="1364" type="line"/>
      <point x="359" y="1364"/>
      <point x="371" y="1368"/>
      <point x="379" y="1376" type="curve"/>
      <point x="397" y="1376"/>
      <point x="416" y="1363"/>
      <point x="416" y="1345" type="curve"/>
      <point x="550" y="666" type="line" smooth="yes"/>
      <point x="561" y="606"/>
      <point x="567" y="564"/>
      <point x="567" y="540" type="curve" smooth="yes"/>
      <point x="567" y="516"/>
      <point x="562" y="500"/>
    </contour>
    <contour>
      <point x="263" y="892" type="curve"/>
      <point x="337" y="876" type="line"/>
      <point x="393" y="871"/>
      <point x="426" y="866"/>
      <point x="436" y="862" type="curve"/>
      <point x="457" y="862" type="line"/>
      <point x="359" y="1282" type="line"/>
      <point x="322" y="1115"/>
      <point x="290" y="985"/>
    </contour>
    <contour>
      <point x="512" y="428" type="curve" smooth="yes"/>
      <point x="531" y="428"/>
      <point x="558" y="412"/>
      <point x="558" y="393" type="curve" smooth="yes"/>
      <point x="558" y="379"/>
      <point x="233" y="375"/>
      <point x="206" y="375" type="curve" smooth="yes"/>
      <point x="186" y="375"/>
      <point x="162" y="389"/>
      <point x="162" y="410" type="curve" smooth="yes"/>
      <point x="162" y="423"/>
      <point x="487" y="428"/>
    </contour>
  </outline>
</glyph>
<glyph name="guillemotleft" format="1">
  <advance width="741"/>
  <unicode hex="00AB"/>
  <outline>
    <contour>
      <point x="463" y="-35" type="curve" smooth="yes"/>
      <point x="434" y="-35"/>
      <point x="372" y="100"/>
      <point x="358" y="127" type="curve" smooth="yes"/>
      <point x="319" y="201"/>
      <point x="82" y="657"/>
      <point x="82" y="698" type="curve" smooth="yes"/>
      <point x="82" y="725"/>
      <point x="311" y="1274"/>
      <point x="342" y="1358" type="curve"/>
      <point x="342" y="1360" type="line"/>
      <point x="348" y="1376"/>
      <point x="383" y="1466"/>
      <point x="399" y="1466" type="curve" smooth="yes"/>
      <point x="417" y="1466"/>
      <point x="438" y="1458"/>
      <point x="440" y="1438" type="curve"/>
      <point x="401" y="1377"/>
      <point x="377" y="1303"/>
      <point x="350" y="1235" type="curve" smooth="yes"/>
      <point x="303" y="1114"/>
      <point x="258" y="991"/>
      <point x="213" y="868" type="curve" smooth="yes"/>
      <point x="205" y="845"/>
      <point x="155" y="706"/>
      <point x="145" y="692" type="curve"/>
      <point x="151" y="586"/>
      <point x="504" y="25"/>
      <point x="504" y="-12" type="curve" smooth="yes"/>
      <point x="504" y="-26"/>
      <point x="473" y="-35"/>
    </contour>
    <contour>
      <point x="602" y="4" type="line"/>
      <point x="559" y="67"/>
      <point x="524" y="160"/>
      <point x="485" y="242" type="curve" smooth="yes"/>
      <point x="383" y="455" type="line" smooth="yes"/>
      <point x="369" y="486"/>
      <point x="350" y="518"/>
      <point x="338" y="549" type="curve" smooth="yes"/>
      <point x="320" y="598"/>
      <point x="256" y="645"/>
      <point x="256" y="698" type="curve" smooth="yes"/>
      <point x="256" y="755"/>
      <point x="446" y="1149"/>
      <point x="479" y="1247" type="curve" smooth="yes"/>
      <point x="491" y="1282"/>
      <point x="518" y="1415"/>
      <point x="557" y="1421" type="curve"/>
      <point x="584" y="1401" type="line"/>
      <point x="553" y="1202"/>
      <point x="328" y="870"/>
      <point x="328" y="700" type="curve" smooth="yes"/>
      <point x="328" y="675"/>
      <point x="606" y="116"/>
      <point x="643" y="53" type="curve"/>
      <point x="662" y="39" type="line"/>
      <point x="660" y="27"/>
      <point x="647" y="0"/>
      <point x="633" y="0" type="curve" smooth="yes"/>
      <point x="625" y="0"/>
      <point x="616" y="4"/>
      <point x="606" y="4" type="curve" smooth="yes"/>
    </contour>
  </outline>
</glyph>
<glyph name="logicalnot" format="1">
  <advance width="497"/>
  <unicode hex="00AC"/>
  <outline>
    <contour>
      <point x="440" y="700" type="curve"/>
      <point x="440" y="643"/>
      <point x="440" y="583"/>
      <point x="442" y="530" type="curve" smooth="yes"/>
      <point x="442" y="505"/>
      <point x="424" y="498"/>
      <point x="416" y="498" type="curve" smooth="yes"/>
      <point x="402" y="498"/>
      <point x="381" y="514"/>
      <point x="381" y="528" type="curve" smooth="yes"/>
      <point x="381" y="598"/>
      <point x="375" y="664"/>
      <point x="375" y="727" type="curve" smooth="yes"/>
      <point x="375" y="737"/>
      <point x="369" y="739"/>
      <point x="324" y="739" type="curve" smooth="yes"/>
      <point x="291" y="739" type="line" smooth="yes"/>
      <point x="244" y="739"/>
      <point x="211" y="733"/>
      <point x="164" y="733" type="curve" smooth="yes"/>
      <point x="2" y="733" type="line" smooth="yes"/>
      <point x="4" y="733"/>
      <point x="-6" y="754"/>
      <point x="-6" y="768" type="curve" smooth="yes"/>
      <point x="-6" y="776"/>
      <point x="-2" y="782"/>
      <point x="8" y="782" type="curve" smooth="yes"/>
      <point x="18" y="782"/>
      <point x="118" y="791"/>
      <point x="143" y="791" type="curve" smooth="yes"/>
      <point x="213" y="791"/>
      <point x="264" y="797"/>
      <point x="334" y="797" type="curve" smooth="yes"/>
      <point x="357" y="797"/>
      <point x="381" y="797"/>
      <point x="401" y="801" type="curve"/>
      <point x="419" y="799"/>
      <point x="449" y="789"/>
      <point x="449" y="766" type="curve" smooth="yes"/>
      <point x="449" y="739"/>
      <point x="442" y="723"/>
    </contour>
  </outline>
</glyph>
<glyph name="degree" format="1">
  <advance width="868"/>
  <unicode hex="00B0"/>
  <outline>
    <contour>
      <point x="301" y="1122" type="curve" smooth="yes"/>
      <point x="301" y="1081"/>
      <point x="348" y="1004"/>
      <point x="426" y="1004" type="curve" smooth="yes"/>
      <point x="551" y="1004"/>
      <point x="573" y="1117"/>
      <point x="573" y="1174" type="curve" smooth="yes"/>
      <point x="573" y="1258"/>
      <point x="518" y="1331"/>
      <point x="418" y="1331" type="curve" smooth="yes"/>
      <point x="340" y="1331"/>
      <point x="301" y="1206"/>
    </contour>
    <contour>
      <point x="256" y="1133" type="curve" smooth="yes"/>
      <point x="256" y="1227"/>
      <point x="301" y="1378"/>
      <point x="412" y="1378" type="curve" smooth="yes"/>
      <point x="525" y="1378"/>
      <point x="612" y="1294"/>
      <point x="612" y="1190" type="curve" smooth="yes"/>
      <point x="612" y="1110"/>
      <point x="596" y="965"/>
      <point x="422" y="965" type="curve" smooth="yes"/>
      <point x="324" y="965"/>
      <point x="256" y="1076"/>
    </contour>
  </outline>
</glyph>
<glyph name="plusminus" format="1">
  <advance width="620"/>
  <unicode hex="00B1"/>
  <outline>
    <contour>
      <point x="541" y="236" type="curve" smooth="yes"/>
      <point x="541" y="226"/>
      <point x="280" y="217"/>
      <point x="188" y="217" type="curve" smooth="yes"/>
      <point x="170" y="217"/>
      <point x="145" y="229"/>
      <point x="145" y="252" type="curve" smooth="yes"/>
      <point x="145" y="262"/>
      <point x="412" y="270"/>
      <point x="496" y="270" type="curve" smooth="yes"/>
      <point x="514" y="270"/>
      <point x="541" y="256"/>
    </contour>
    <contour>
      <point x="315" y="385" type="curve" smooth="yes"/>
      <point x="315" y="449" type="line" smooth="yes"/>
      <point x="315" y="484"/>
      <point x="319" y="518"/>
      <point x="319" y="555" type="curve" smooth="yes"/>
      <point x="319" y="606"/>
      <point x="320" y="623"/>
      <point x="250" y="623" type="curve" smooth="yes"/>
      <point x="219" y="623"/>
      <point x="191" y="612"/>
      <point x="160" y="612" type="curve" smooth="yes"/>
      <point x="129" y="612"/>
      <point x="100" y="620"/>
      <point x="100" y="655" type="curve" smooth="yes"/>
      <point x="100" y="673"/>
      <point x="103" y="684"/>
      <point x="123" y="684" type="curve" smooth="yes"/>
      <point x="160" y="684"/>
      <point x="194" y="678"/>
      <point x="231" y="678" type="curve" smooth="yes"/>
      <point x="243" y="678"/>
      <point x="315" y="678"/>
      <point x="315" y="694" type="curve" smooth="yes"/>
      <point x="315" y="762"/>
      <point x="305" y="831"/>
      <point x="305" y="899" type="curve" smooth="yes"/>
      <point x="305" y="930"/>
      <point x="313" y="944"/>
      <point x="346" y="944" type="curve" smooth="yes"/>
      <point x="369" y="944"/>
      <point x="383" y="932"/>
      <point x="383" y="909" type="curve"/>
      <point x="375" y="889" type="line"/>
      <point x="375" y="836"/>
      <point x="383" y="780"/>
      <point x="383" y="727" type="curve" smooth="yes"/>
      <point x="383" y="686"/>
      <point x="403" y="678"/>
      <point x="440" y="678" type="curve" smooth="yes"/>
      <point x="481" y="678"/>
      <point x="522" y="684"/>
      <point x="563" y="684" type="curve" smooth="yes"/>
      <point x="588" y="684"/>
      <point x="627" y="680"/>
      <point x="627" y="647" type="curve" smooth="yes"/>
      <point x="627" y="624"/>
      <point x="612" y="614"/>
      <point x="592" y="614" type="curve" smooth="yes"/>
      <point x="551" y="614"/>
      <point x="510" y="621"/>
      <point x="467" y="621" type="curve" smooth="yes"/>
      <point x="457" y="621" type="line" smooth="yes"/>
      <point x="403" y="621"/>
      <point x="383" y="619"/>
      <point x="383" y="553" type="curve" smooth="yes"/>
      <point x="383" y="483"/>
      <point x="401" y="446"/>
      <point x="401" y="389" type="curve" smooth="yes"/>
      <point x="401" y="366"/>
      <point x="378" y="356"/>
      <point x="358" y="356" type="curve" smooth="yes"/>
      <point x="344" y="356"/>
      <point x="315" y="369"/>
    </contour>
  </outline>
</glyph>
<glyph name="twosuperior" format="1">
  <advance width="571"/>
  <unicode hex="00B2"/>
  <outline>
    <contour>
      <point x="78" y="25" type="curve"/>
      <point x="137" y="99"/>
      <point x="149" y="190"/>
      <point x="188" y="274" type="curve" smooth="yes"/>
      <point x="335" y="596"/>
      <point x="422" y="893"/>
      <point x="422" y="1249" type="curve" smooth="yes"/>
      <point x="422" y="1335"/>
      <point x="420" y="1544"/>
      <point x="295" y="1544" type="curve"/>
      <point x="208" y="1505"/>
      <point x="243" y="1366"/>
      <point x="195" y="1366" type="curve" smooth="yes"/>
      <point x="168" y="1366"/>
      <point x="168" y="1387"/>
      <point x="168" y="1407" type="curve" smooth="yes"/>
      <point x="168" y="1466"/>
      <point x="202" y="1585"/>
      <point x="276" y="1585" type="curve" smooth="yes"/>
      <point x="397" y="1585"/>
      <point x="467" y="1477"/>
      <point x="471" y="1366" type="curve"/>
      <point x="467" y="1362" type="line"/>
      <point x="467" y="1313"/>
      <point x="473" y="1261"/>
      <point x="473" y="1212" type="curve" smooth="yes"/>
      <point x="473" y="997"/>
      <point x="405" y="617"/>
      <point x="317" y="420" type="curve" smooth="yes"/>
      <point x="286" y="350"/>
      <point x="156" y="96"/>
      <point x="154" y="41" type="curve"/>
      <point x="170" y="39" type="line"/>
      <point x="244" y="53"/>
      <point x="334" y="57"/>
      <point x="416" y="61" type="curve"/>
      <point x="446" y="29" type="line"/>
      <point x="428" y="2" type="line"/>
      <point x="328" y="2"/>
      <point x="229" y="-16"/>
      <point x="129" y="-16" type="curve" smooth="yes"/>
      <point x="104" y="-16"/>
      <point x="78" y="-2"/>
    </contour>
  </outline>
</glyph>
<glyph name="threesuperior" format="1">
  <advance width="589"/>
  <unicode hex="00B3"/>
  <outline>
    <contour>
      <point x="195" y="74" type="curve"/>
      <point x="211" y="84" type="line"/>
      <point x="244" y="82"/>
      <point x="270" y="53"/>
      <point x="299" y="37" type="curve"/>
      <point x="438" y="37"/>
      <point x="455" y="191"/>
      <point x="455" y="297" type="curve" smooth="yes"/>
      <point x="455" y="485"/>
      <point x="450" y="697"/>
      <point x="315" y="844" type="curve"/>
      <point x="309" y="844"/>
      <point x="303" y="842"/>
      <point x="295" y="842" type="curve" smooth="yes"/>
      <point x="283" y="842"/>
      <point x="268" y="844"/>
      <point x="256" y="850" type="curve"/>
      <point x="256" y="858" type="line"/>
      <point x="246" y="868" type="line"/>
      <point x="248" y="893"/>
      <point x="377" y="983"/>
      <point x="377" y="1130" type="curve" smooth="yes"/>
      <point x="377" y="1214"/>
      <point x="367" y="1491"/>
      <point x="246" y="1491" type="curve" smooth="yes"/>
      <point x="146" y="1491"/>
      <point x="160" y="1374"/>
      <point x="111" y="1374" type="curve" smooth="yes"/>
      <point x="95" y="1374"/>
      <point x="78" y="1387"/>
      <point x="76" y="1403" type="curve"/>
      <point x="113" y="1479"/>
      <point x="160" y="1540"/>
      <point x="252" y="1540" type="curve" smooth="yes"/>
      <point x="287" y="1540"/>
      <point x="324" y="1518"/>
      <point x="344" y="1491" type="curve"/>
      <point x="350" y="1489" type="line"/>
      <point x="420" y="1387"/>
      <point x="432" y="1223"/>
      <point x="432" y="1102" type="curve" smooth="yes"/>
      <point x="432" y="1061"/>
      <point x="415" y="1022"/>
      <point x="395" y="987" type="curve"/>
      <point x="379" y="975"/>
      <point x="348" y="912"/>
      <point x="328" y="889" type="curve"/>
      <point x="469" y="834"/>
      <point x="465" y="631"/>
      <point x="494" y="508" type="curve" smooth="yes"/>
      <point x="510" y="438"/>
      <point x="510" y="441"/>
      <point x="510" y="367" type="curve" smooth="yes"/>
      <point x="510" y="236"/>
      <point x="504" y="-2"/>
      <point x="322" y="-2" type="curve" smooth="yes"/>
      <point x="279" y="-2"/>
      <point x="195" y="21"/>
    </contour>
  </outline>
</glyph>
<glyph name="acute" format="1">
  <advance width="497"/>
  <unicode hex="00B4"/>
  <outline>
    <contour>
      <point x="98" y="1339" type="curve" smooth="yes"/>
      <point x="98" y="1357"/>
      <point x="321" y="1519"/>
      <point x="352" y="1548" type="curve"/>
      <point x="372" y="1548"/>
      <point x="397" y="1541"/>
      <point x="397" y="1516" type="curve" smooth="yes"/>
      <point x="397" y="1506"/>
      <point x="393" y="1495"/>
      <point x="391" y="1485" type="curve"/>
      <point x="295" y="1442"/>
      <point x="215" y="1377"/>
      <point x="135" y="1309" type="curve"/>
      <point x="117" y="1309"/>
      <point x="98" y="1319"/>
    </contour>
  </outline>
</glyph>
<glyph name="mu" format="1">
  <advance width="743"/>
  <unicode hex="00B5"/>
  <unicode hex="03bc"/>
  <outline>
    <contour>
      <point x="444" y="-39" type="curve" smooth="yes"/>
      <point x="315" y="-39"/>
      <point x="252" y="52"/>
      <point x="215" y="158" type="curve"/>
      <point x="215" y="45" type="line"/>
      <point x="219" y="35"/>
      <point x="219" y="24"/>
      <point x="219" y="14" type="curve" smooth="yes"/>
      <point x="219" y="0"/>
      <point x="217" y="-15"/>
      <point x="217" y="-31" type="curve" smooth="yes"/>
      <point x="217" y="-97"/>
      <point x="236" y="-152"/>
      <point x="236" y="-215" type="curve" smooth="yes"/>
      <point x="236" y="-238"/>
      <point x="208" y="-248"/>
      <point x="190" y="-248" type="curve" smooth="yes"/>
      <point x="172" y="-248"/>
      <point x="158" y="-229"/>
      <point x="158" y="-213" type="curve" smooth="yes"/>
      <point x="158" y="-209"/>
      <point x="156" y="-205"/>
      <point x="156" y="-182" type="curve" smooth="yes"/>
      <point x="156" y="-141"/>
      <point x="154" y="-100"/>
      <point x="154" y="-59" type="curve" smooth="yes"/>
      <point x="154" y="13"/>
      <point x="150" y="73"/>
      <point x="150" y="145" type="curve" smooth="yes"/>
      <point x="150" y="264"/>
      <point x="139" y="383"/>
      <point x="139" y="502" type="curve" smooth="yes"/>
      <point x="137" y="817"/>
      <point x="98" y="1133"/>
      <point x="98" y="1448" type="curve" smooth="yes"/>
      <point x="98" y="1468"/>
      <point x="84" y="1475"/>
      <point x="84" y="1491" type="curve" smooth="yes"/>
      <point x="84" y="1509"/>
      <point x="99" y="1532"/>
      <point x="119" y="1532" type="curve" smooth="yes"/>
      <point x="170" y="1532"/>
      <point x="170" y="1417"/>
      <point x="170" y="1382" type="curve" smooth="yes"/>
      <point x="170" y="1153"/>
      <point x="188" y="919"/>
      <point x="188" y="690" type="curve"/>
      <point x="206" y="667"/>
      <point x="197" y="541"/>
      <point x="217" y="459" type="curve"/>
      <point x="215" y="447"/>
      <point x="213" y="434"/>
      <point x="213" y="422" type="curve" smooth="yes"/>
      <point x="213" y="311"/>
      <point x="322" y="27"/>
      <point x="457" y="27" type="curve" smooth="yes"/>
      <point x="563" y="27"/>
      <point x="553" y="119"/>
      <point x="561" y="197" type="curve"/>
      <point x="559" y="201"/>
      <point x="559" y="207"/>
      <point x="559" y="213" type="curve" smooth="yes"/>
      <point x="559" y="236"/>
      <point x="565" y="258"/>
      <point x="565" y="281" type="curve" smooth="yes"/>
      <point x="565" y="514" type="line" smooth="yes"/>
      <point x="565" y="555"/>
      <point x="551" y="596"/>
      <point x="551" y="637" type="curve" smooth="yes"/>
      <point x="551" y="760"/>
      <point x="539" y="881"/>
      <point x="539" y="1004" type="curve" smooth="yes"/>
      <point x="539" y="1030" type="line"/>
      <point x="530" y="1042" type="line"/>
      <point x="536" y="1081"/>
      <point x="539" y="1120"/>
      <point x="539" y="1159" type="curve" smooth="yes"/>
      <point x="539" y="1276"/>
      <point x="520" y="1390"/>
      <point x="520" y="1507" type="curve" smooth="yes"/>
      <point x="520" y="1530"/>
      <point x="547" y="1540"/>
      <point x="565" y="1540" type="curve"/>
      <point x="600" y="1507" type="line"/>
      <point x="594" y="1491" type="line"/>
      <point x="600" y="1475" type="line"/>
      <point x="600" y="1434"/>
      <point x="586" y="1393"/>
      <point x="586" y="1352" type="curve" smooth="yes"/>
      <point x="586" y="1229"/>
      <point x="606" y="1106"/>
      <point x="606" y="983" type="curve" smooth="yes"/>
      <point x="606" y="864"/>
      <point x="616" y="746"/>
      <point x="616" y="627" type="curve"/>
      <point x="623" y="625" type="line"/>
      <point x="621" y="611"/>
      <point x="621" y="596"/>
      <point x="621" y="582" type="curve" smooth="yes"/>
      <point x="621" y="535"/>
      <point x="627" y="485"/>
      <point x="627" y="438" type="curve"/>
      <point x="633" y="432" type="line"/>
      <point x="627" y="426" type="line"/>
      <point x="627" y="383"/>
      <point x="629" y="340"/>
      <point x="629" y="297" type="curve" smooth="yes"/>
      <point x="629" y="170"/>
      <point x="616" y="-39"/>
    </contour>
  </outline>
</glyph>
<glyph name="periodcentered" format="1">
  <advance width="327"/>
  <unicode hex="00B7"/>
  <outline>
    <contour>
      <point x="113" y="745" type="curve" smooth="yes"/>
      <point x="113" y="772"/>
      <point x="139" y="801"/>
      <point x="166" y="801" type="curve" smooth="yes"/>
      <point x="191" y="801"/>
      <point x="215" y="771"/>
      <point x="215" y="748" type="curve" smooth="yes"/>
      <point x="215" y="711"/>
      <point x="191" y="696"/>
      <point x="158" y="696" type="curve" smooth="yes"/>
      <point x="133" y="696"/>
      <point x="113" y="722"/>
    </contour>
  </outline>
</glyph>
<glyph name="onesuperior" format="1">
  <advance width="606"/>
  <unicode hex="00B9"/>
  <outline>
    <contour>
      <point x="197" y="37" type="curve"/>
      <point x="207" y="57" type="line"/>
      <point x="225" y="57"/>
      <point x="244" y="55"/>
      <point x="262" y="55" type="curve" smooth="yes"/>
      <point x="301" y="55"/>
      <point x="313" y="72"/>
      <point x="313" y="111" type="curve" smooth="yes"/>
      <point x="313" y="502"/>
      <point x="279" y="893"/>
      <point x="254" y="1284" type="curve"/>
      <point x="254" y="1307"/>
      <point x="256" y="1329"/>
      <point x="256" y="1354" type="curve" smooth="yes"/>
      <point x="256" y="1420"/>
      <point x="244" y="1483"/>
      <point x="162" y="1483" type="curve" smooth="yes"/>
      <point x="146" y="1483"/>
      <point x="131" y="1479"/>
      <point x="115" y="1479" type="curve" smooth="yes"/>
      <point x="101" y="1479"/>
      <point x="80" y="1481"/>
      <point x="80" y="1501" type="curve" smooth="yes"/>
      <point x="80" y="1530"/>
      <point x="233" y="1530"/>
      <point x="260" y="1530" type="curve" smooth="yes"/>
      <point x="278" y="1530"/>
      <point x="293" y="1515"/>
      <point x="293" y="1497" type="curve"/>
      <point x="297" y="1497" type="line"/>
      <point x="293" y="1477"/>
      <point x="291" y="1454"/>
      <point x="291" y="1434" type="curve" smooth="yes"/>
      <point x="291" y="1305"/>
      <point x="322" y="1176"/>
      <point x="322" y="1047" type="curve" smooth="yes"/>
      <point x="322" y="818"/>
      <point x="356" y="589"/>
      <point x="356" y="360" type="curve" smooth="yes"/>
      <point x="356" y="352"/>
      <point x="354" y="342"/>
      <point x="352" y="334" type="curve"/>
      <point x="360" y="303"/>
      <point x="365" y="143"/>
      <point x="365" y="102" type="curve" smooth="yes"/>
      <point x="365" y="92"/>
      <point x="362" y="82"/>
      <point x="362" y="72" type="curve"/>
      <point x="371" y="66" type="line"/>
      <point x="402" y="66"/>
      <point x="432" y="72"/>
      <point x="463" y="72" type="curve" smooth="yes"/>
      <point x="481" y="72"/>
      <point x="526" y="72"/>
      <point x="526" y="43" type="curve" smooth="yes"/>
      <point x="526" y="18"/>
      <point x="499" y="14"/>
      <point x="481" y="14" type="curve" smooth="yes"/>
      <point x="397" y="14"/>
      <point x="313" y="6"/>
      <point x="229" y="6" type="curve" smooth="yes"/>
      <point x="211" y="6"/>
      <point x="197" y="19"/>
    </contour>
  </outline>
</glyph>
<glyph name="ordmasculine" format="1">
  <advance width="729"/>
  <unicode hex="00BA"/>
  <outline>
    <contour>
      <point x="607" y="826" type="curve"/>
      <point x="607" y="718"/>
      <point x="558" y="630"/>
      <point x="459" y="563" type="curve" smooth="yes"/>
      <point x="435" y="547"/>
      <point x="408" y="538"/>
      <point x="378" y="538" type="curve" smooth="yes"/>
      <point x="217" y="538"/>
      <point x="136" y="654"/>
      <point x="136" y="887" type="curve" smooth="yes"/>
      <point x="136" y="1002"/>
      <point x="144" y="1027"/>
      <point x="178" y="1220" type="curve" smooth="yes"/>
      <point x="190" y="1289"/>
      <point x="244" y="1333"/>
      <point x="334" y="1333" type="curve" smooth="yes"/>
      <point x="364" y="1333"/>
      <point x="400" y="1330"/>
      <point x="442" y="1322" type="curve" smooth="yes"/>
      <point x="469" y="1317"/>
      <point x="496" y="1291"/>
      <point x="521" y="1243" type="curve"/>
      <point x="575" y="1156"/>
      <point x="604" y="1018"/>
    </contour>
    <contour>
      <point x="202" y="954" type="curve"/>
      <point x="205" y="717"/>
      <point x="260" y="598"/>
      <point x="369" y="598" type="curve" smooth="yes"/>
      <point x="485" y="598"/>
      <point x="544" y="679"/>
      <point x="544" y="842" type="curve" smooth="yes"/>
      <point x="544" y="1045"/>
      <point x="522" y="1167"/>
      <point x="480" y="1210" type="curve" smooth="yes"/>
      <point x="424" y="1266"/>
      <point x="380" y="1294"/>
      <point x="345" y="1294" type="curve" smooth="yes"/>
      <point x="261" y="1294"/>
      <point x="214" y="1181"/>
    </contour>
    <contour>
      <point x="507" y="484" type="curve" smooth="yes"/>
      <point x="526" y="484"/>
      <point x="552" y="468"/>
      <point x="552" y="449" type="curve" smooth="yes"/>
      <point x="552" y="435"/>
      <point x="227" y="431"/>
      <point x="200" y="431" type="curve" smooth="yes"/>
      <point x="180" y="431"/>
      <point x="157" y="445"/>
      <point x="157" y="466" type="curve" smooth="yes"/>
      <point x="157" y="479"/>
      <point x="482" y="484"/>
    </contour>
  </outline>
</glyph>
<glyph name="guillemotright" format="1">
  <advance width="741"/>
  <unicode hex="00BB"/>
  <outline>
    <contour>
      <point x="139" y="4" type="curve"/>
      <point x="127" y="4"/>
      <point x="117" y="0"/>
      <point x="109" y="0" type="curve" smooth="yes"/>
      <point x="95" y="0"/>
      <point x="82" y="27"/>
      <point x="80" y="39" type="curve"/>
      <point x="98" y="53" type="line"/>
      <point x="135" y="119"/>
      <point x="414" y="675"/>
      <point x="414" y="700" type="curve" smooth="yes"/>
      <point x="414" y="870"/>
      <point x="189" y="1202"/>
      <point x="158" y="1401" type="curve"/>
      <point x="184" y="1421" type="line"/>
      <point x="225" y="1413"/>
      <point x="250" y="1284"/>
      <point x="262" y="1247" type="curve" smooth="yes"/>
      <point x="295" y="1149"/>
      <point x="485" y="757"/>
      <point x="485" y="698" type="curve" smooth="yes"/>
      <point x="485" y="647"/>
      <point x="421" y="598"/>
      <point x="403" y="549" type="curve" smooth="yes"/>
      <point x="391" y="516"/>
      <point x="372" y="486"/>
      <point x="358" y="455" type="curve" smooth="yes"/>
      <point x="182" y="90" type="line" smooth="yes"/>
      <point x="168" y="61"/>
      <point x="155" y="29"/>
    </contour>
    <contour>
      <point x="659" y="698" type="curve" smooth="yes"/>
      <point x="659" y="657"/>
      <point x="422" y="201"/>
      <point x="383" y="127" type="curve" smooth="yes"/>
      <point x="369" y="100"/>
      <point x="308" y="-35"/>
      <point x="279" y="-35" type="curve" smooth="yes"/>
      <point x="269" y="-35"/>
      <point x="238" y="-26"/>
      <point x="238" y="-12" type="curve" smooth="yes"/>
      <point x="238" y="25"/>
      <point x="590" y="586"/>
      <point x="596" y="692" type="curve"/>
      <point x="586" y="706"/>
      <point x="536" y="845"/>
      <point x="528" y="868" type="curve" smooth="yes"/>
      <point x="483" y="991"/>
      <point x="438" y="1114"/>
      <point x="391" y="1235" type="curve" smooth="yes"/>
      <point x="364" y="1303"/>
      <point x="340" y="1377"/>
      <point x="301" y="1438" type="curve"/>
      <point x="303" y="1458"/>
      <point x="324" y="1466"/>
      <point x="342" y="1466" type="curve" smooth="yes"/>
      <point x="358" y="1466"/>
      <point x="393" y="1376"/>
      <point x="399" y="1360" type="curve"/>
      <point x="399" y="1358" type="line"/>
      <point x="430" y="1274"/>
      <point x="659" y="725"/>
    </contour>
  </outline>
</glyph>
<glyph name="threequarters" format="1">
  <advance width="1675"/>
  <unicode hex="00BE"/>
  <outline>
    <contour>
      <point x="195" y="74" type="curve"/>
      <point x="211" y="84" type="line"/>
      <point x="244" y="82"/>
      <point x="270" y="53"/>
      <point x="299" y="37" type="curve"/>
      <point x="438" y="37"/>
      <point x="455" y="191"/>
      <point x="455" y="297" type="curve" smooth="yes"/>
      <point x="455" y="485"/>
      <point x="450" y="697"/>
      <point x="315" y="844" type="curve"/>
      <point x="309" y="844"/>
      <point x="303" y="842"/>
      <point x="295" y="842" type="curve" smooth="yes"/>
      <point x="283" y="842"/>
      <point x="268" y="844"/>
      <point x="256" y="850" type="curve"/>
      <point x="256" y="858" type="line"/>
      <point x="246" y="868" type="line"/>
      <point x="248" y="893"/>
      <point x="377" y="983"/>
      <point x="377" y="1130" type="curve" smooth="yes"/>
      <point x="377" y="1214"/>
      <point x="367" y="1491"/>
      <point x="246" y="1491" type="curve" smooth="yes"/>
      <point x="146" y="1491"/>
      <point x="160" y="1374"/>
      <point x="111" y="1374" type="curve" smooth="yes"/>
      <point x="95" y="1374"/>
      <point x="78" y="1387"/>
      <point x="76" y="1403" type="curve"/>
      <point x="113" y="1479"/>
      <point x="160" y="1540"/>
      <point x="252" y="1540" type="curve" smooth="yes"/>
      <point x="287" y="1540"/>
      <point x="324" y="1518"/>
      <point x="344" y="1491" type="curve"/>
      <point x="350" y="1489" type="line"/>
      <point x="420" y="1387"/>
      <point x="432" y="1223"/>
      <point x="432" y="1102" type="curve" smooth="yes"/>
      <point x="432" y="1061"/>
      <point x="415" y="1022"/>
      <point x="395" y="987" type="curve"/>
      <point x="379" y="975"/>
      <point x="348" y="912"/>
      <point x="328" y="889" type="curve"/>
      <point x="469" y="834"/>
      <point x="465" y="631"/>
      <point x="494" y="508" type="curve" smooth="yes"/>
      <point x="510" y="438"/>
      <point x="510" y="441"/>
      <point x="510" y="367" type="curve" smooth="yes"/>
      <point x="510" y="236"/>
      <point x="504" y="-2"/>
      <point x="322" y="-2" type="curve" smooth="yes"/>
      <point x="279" y="-2"/>
      <point x="195" y="21"/>
    </contour>
    <contour>
      <point x="1069" y="1505" type="curve" smooth="yes"/>
      <point x="1069" y="1489"/>
      <point x="1032" y="1337"/>
      <point x="1028" y="1317" type="curve" smooth="yes"/>
      <point x="954" y="977"/>
      <point x="875" y="641"/>
      <point x="797" y="299" type="curve" smooth="yes"/>
      <point x="756" y="121" type="line" smooth="yes"/>
      <point x="746" y="78"/>
      <point x="739" y="-2"/>
      <point x="696" y="-6" type="curve"/>
      <point x="684" y="2"/>
      <point x="676" y="17"/>
      <point x="676" y="31" type="curve" smooth="yes"/>
      <point x="676" y="129"/>
      <point x="721" y="268"/>
      <point x="748" y="387" type="curve" smooth="yes"/>
      <point x="828" y="741"/>
      <point x="912" y="1096"/>
      <point x="1004" y="1448" type="curve" smooth="yes"/>
      <point x="1008" y="1460"/>
      <point x="1022" y="1532"/>
      <point x="1038" y="1532" type="curve" smooth="yes"/>
      <point x="1054" y="1532"/>
      <point x="1069" y="1523"/>
    </contour>
    <contour>
      <point x="1450" y="61" type="line"/>
      <point x="1448" y="66" type="line"/>
      <point x="1454" y="91"/>
      <point x="1456" y="114"/>
      <point x="1456" y="139" type="curve" smooth="yes"/>
      <point x="1456" y="209"/>
      <point x="1442" y="278"/>
      <point x="1442" y="348" type="curve" smooth="yes"/>
      <point x="1442" y="379"/>
      <point x="1446" y="409"/>
      <point x="1446" y="440" type="curve" smooth="yes"/>
      <point x="1446" y="460"/>
      <point x="1445" y="520"/>
      <point x="1425" y="530" type="curve"/>
      <point x="1384" y="530"/>
      <point x="1346" y="518"/>
      <point x="1305" y="518" type="curve" smooth="yes"/>
      <point x="1272" y="518"/>
      <point x="1274" y="523"/>
      <point x="1249" y="541" type="curve"/>
      <point x="1249" y="547" type="line" smooth="yes"/>
      <point x="1249" y="570"/>
      <point x="1256" y="592"/>
      <point x="1260" y="612" type="curve"/>
      <point x="1241" y="653" type="line"/>
      <point x="1241" y="688"/>
      <point x="1260" y="719"/>
      <point x="1260" y="754" type="curve" smooth="yes"/>
      <point x="1260" y="887"/>
      <point x="1280" y="1022"/>
      <point x="1280" y="1155" type="curve" smooth="yes"/>
      <point x="1280" y="1481" type="line" smooth="yes"/>
      <point x="1280" y="1497"/>
      <point x="1272" y="1516"/>
      <point x="1272" y="1532" type="curve" smooth="yes"/>
      <point x="1272" y="1548"/>
      <point x="1280" y="1559"/>
      <point x="1296" y="1559" type="curve" smooth="yes"/>
      <point x="1312" y="1559"/>
      <point x="1333" y="1550"/>
      <point x="1333" y="1530" type="curve" smooth="yes"/>
      <point x="1333" y="1475"/>
      <point x="1325" y="1421"/>
      <point x="1325" y="1366" type="curve" smooth="yes"/>
      <point x="1325" y="1343"/>
      <point x="1327" y="1319"/>
      <point x="1331" y="1296" type="curve"/>
      <point x="1327" y="1290" type="line"/>
      <point x="1329" y="1272"/>
      <point x="1331" y="1253"/>
      <point x="1331" y="1233" type="curve" smooth="yes"/>
      <point x="1331" y="1061"/>
      <point x="1307" y="889"/>
      <point x="1307" y="717" type="curve" smooth="yes"/>
      <point x="1307" y="697"/>
      <point x="1321" y="677"/>
      <point x="1321" y="657" type="curve" smooth="yes"/>
      <point x="1321" y="637"/>
      <point x="1307" y="622"/>
      <point x="1307" y="602" type="curve" smooth="yes"/>
      <point x="1307" y="588"/>
      <point x="1307" y="563"/>
      <point x="1327" y="563" type="curve" smooth="yes"/>
      <point x="1350" y="563"/>
      <point x="1412" y="572"/>
      <point x="1430" y="582" type="curve"/>
      <point x="1430" y="729"/>
      <point x="1421" y="877"/>
      <point x="1415" y="1024" type="curve" smooth="yes"/>
      <point x="1413" y="1079"/>
      <point x="1399" y="1133"/>
      <point x="1399" y="1188" type="curve" smooth="yes"/>
      <point x="1399" y="1206"/>
      <point x="1424" y="1212"/>
      <point x="1438" y="1212" type="curve"/>
      <point x="1456" y="1190" type="line"/>
      <point x="1456" y="1094"/>
      <point x="1468" y="997"/>
      <point x="1468" y="901" type="curve" smooth="yes"/>
      <point x="1468" y="860"/>
      <point x="1475" y="596"/>
      <point x="1489" y="582" type="curve"/>
      <point x="1514" y="582"/>
      <point x="1538" y="590"/>
      <point x="1565" y="590" type="curve" smooth="yes"/>
      <point x="1579" y="590"/>
      <point x="1604" y="587"/>
      <point x="1604" y="567" type="curve" smooth="yes"/>
      <point x="1604" y="514"/>
      <point x="1489" y="576"/>
      <point x="1489" y="498" type="curve" smooth="yes"/>
      <point x="1489" y="451"/>
      <point x="1497" y="177"/>
      <point x="1507" y="152" type="curve"/>
      <point x="1505" y="144"/>
      <point x="1505" y="131"/>
      <point x="1505" y="117" type="curve" smooth="yes"/>
      <point x="1505" y="99"/>
      <point x="1507" y="78"/>
      <point x="1513" y="68" type="curve"/>
      <point x="1507" y="43" type="line"/>
      <point x="1513" y="29" type="line"/>
      <point x="1513" y="0" type="line"/>
      <point x="1481" y="-25" type="line"/>
      <point x="1450" y="-12" type="line"/>
    </contour>
  </outline>
</glyph>
<glyph name="multiply" format="1">
  <advance width="727"/>
  <unicode hex="00D7"/>
  <outline>
    <contour>
      <point x="516" y="430" type="curve" smooth="yes"/>
      <point x="471" y="473" type="line" smooth="yes"/>
      <point x="432" y="510"/>
      <point x="379" y="584"/>
      <point x="352" y="584" type="curve" smooth="yes"/>
      <point x="301" y="584"/>
      <point x="260" y="457"/>
      <point x="201" y="457" type="curve" smooth="yes"/>
      <point x="187" y="457"/>
      <point x="160" y="473"/>
      <point x="160" y="487" type="curve" smooth="yes"/>
      <point x="160" y="507"/>
      <point x="227" y="555"/>
      <point x="252" y="580" type="curve" smooth="yes"/>
      <point x="262" y="590"/>
      <point x="297" y="631"/>
      <point x="297" y="647" type="curve"/>
      <point x="248" y="698"/>
      <point x="127" y="780"/>
      <point x="127" y="817" type="curve" smooth="yes"/>
      <point x="127" y="829"/>
      <point x="148" y="858"/>
      <point x="168" y="858" type="curve" smooth="yes"/>
      <point x="176" y="858"/>
      <point x="185" y="856"/>
      <point x="193" y="848" type="curve"/>
      <point x="203" y="827" type="line"/>
      <point x="246" y="784"/>
      <point x="331" y="700"/>
      <point x="356" y="700" type="curve" smooth="yes"/>
      <point x="405" y="700"/>
      <point x="471" y="844"/>
      <point x="530" y="844" type="curve" smooth="yes"/>
      <point x="544" y="844"/>
      <point x="561" y="827"/>
      <point x="561" y="813" type="curve" smooth="yes"/>
      <point x="561" y="768"/>
      <point x="416" y="684"/>
      <point x="416" y="643" type="curve" smooth="yes"/>
      <point x="416" y="586"/>
      <point x="582" y="520"/>
      <point x="582" y="471" type="curve" smooth="yes"/>
      <point x="582" y="451"/>
      <point x="563" y="424"/>
      <point x="530" y="424" type="curve" smooth="yes"/>
      <point x="524" y="424"/>
      <point x="520" y="426"/>
    </contour>
  </outline>
</glyph>
<glyph name="germandbls" format="1">
  <advance width="616"/>
  <unicode hex="00DF"/>
  <outline>
    <contour>
      <point x="297" y="23" type="curve" smooth="yes"/>
      <point x="276" y="23"/>
      <point x="254" y="37"/>
      <point x="254" y="53" type="curve" smooth="yes"/>
      <point x="254" y="65"/>
      <point x="265" y="78"/>
      <point x="279" y="88" type="curve"/>
      <point x="312" y="104"/>
      <point x="398" y="158"/>
      <point x="408" y="197" type="curve"/>
      <point x="435" y="248"/>
      <point x="436" y="308"/>
      <point x="436" y="360" type="curve" smooth="yes"/>
      <point x="436" y="371" type="line" smooth="yes"/>
      <point x="436" y="518"/>
      <point x="401" y="745"/>
      <point x="256" y="811" type="curve" smooth="yes"/>
      <point x="240" y="819"/>
      <point x="223" y="840"/>
      <point x="223" y="858" type="curve" smooth="yes"/>
      <point x="223" y="883"/>
      <point x="242" y="885"/>
      <point x="254" y="889" type="curve" smooth="yes"/>
      <point x="315" y="907"/>
      <point x="375" y="1092"/>
      <point x="375" y="1190" type="curve" smooth="yes"/>
      <point x="375" y="1356"/>
      <point x="325" y="1466"/>
      <point x="266" y="1466" type="curve" smooth="yes"/>
      <point x="182" y="1466"/>
      <point x="172" y="1339"/>
      <point x="172" y="1255" type="curve" smooth="yes"/>
      <point x="172" y="1132"/>
      <point x="180" y="1010"/>
      <point x="180" y="887" type="curve" smooth="yes"/>
      <point x="180" y="809" type="line" smooth="yes"/>
      <point x="180" y="555"/>
      <point x="190" y="301"/>
      <point x="190" y="49" type="curve" smooth="yes"/>
      <point x="190" y="20"/>
      <point x="187" y="-12"/>
      <point x="152" y="-12" type="curve" smooth="yes"/>
      <point x="150" y="-12" type="line" smooth="yes"/>
      <point x="139" y="-12"/>
      <point x="113" y="-11"/>
      <point x="113" y="16" type="curve" smooth="yes"/>
      <point x="113" y="188"/>
      <point x="123" y="363"/>
      <point x="123" y="535" type="curve" smooth="yes"/>
      <point x="123" y="783"/>
      <point x="109" y="1018"/>
      <point x="109" y="1266" type="curve" smooth="yes"/>
      <point x="109" y="1325"/>
      <point x="108" y="1536"/>
      <point x="264" y="1536" type="curve" smooth="yes"/>
      <point x="373" y="1536"/>
      <point x="428" y="1394"/>
      <point x="428" y="1214" type="curve" smooth="yes"/>
      <point x="428" y="1079"/>
      <point x="389" y="942"/>
      <point x="297" y="854" type="curve"/>
      <point x="426" y="788"/>
      <point x="494" y="647"/>
      <point x="494" y="473" type="curve" smooth="yes"/>
      <point x="494" y="426" type="line" smooth="yes"/>
      <point x="494" y="262"/>
      <point x="483" y="113"/>
      <point x="315" y="27" type="curve" smooth="yes"/>
      <point x="309" y="25"/>
      <point x="303" y="23"/>
    </contour>
  </outline>
</glyph>
<glyph name="ydieresis" format="1">
  <advance width="561"/>
  <unicode hex="00FF"/>
  <outline>
    <contour>
      <point x="449" y="1532" type="curve" smooth="yes"/>
      <point x="449" y="1557"/>
      <point x="473" y="1583"/>
      <point x="498" y="1583" type="curve" smooth="yes"/>
      <point x="521" y="1583"/>
      <point x="543" y="1554"/>
      <point x="543" y="1534" type="curve" smooth="yes"/>
      <point x="543" y="1501"/>
      <point x="520" y="1487"/>
      <point x="489" y="1487" type="curve" smooth="yes"/>
      <point x="466" y="1487"/>
      <point x="449" y="1512"/>
    </contour>
    <contour>
      <point x="-12" y="1530" type="curve" smooth="yes"/>
      <point x="-12" y="1553"/>
      <point x="12" y="1581"/>
      <point x="37" y="1581" type="curve" smooth="yes"/>
      <point x="70" y="1581"/>
      <point x="78" y="1538"/>
      <point x="78" y="1513" type="curve" smooth="yes"/>
      <point x="78" y="1488"/>
      <point x="47" y="1479"/>
      <point x="27" y="1479" type="curve" smooth="yes"/>
      <point x="2" y="1479"/>
      <point x="-12" y="1510"/>
    </contour>
    <contour>
      <point x="279" y="-8" type="curve"/>
      <point x="297" y="37"/>
      <point x="299" y="287"/>
      <point x="299" y="350" type="curve" smooth="yes"/>
      <point x="299" y="454"/>
      <point x="287" y="562"/>
      <point x="283" y="666" type="curve"/>
      <point x="270" y="692" type="line"/>
      <point x="276" y="717" type="line"/>
      <point x="239" y="817"/>
      <point x="78" y="1233"/>
      <point x="76" y="1307" type="curve"/>
      <point x="104" y="1329" type="line"/>
      <point x="151" y="1321"/>
      <point x="258" y="821"/>
      <point x="297" y="811" type="curve"/>
      <point x="305" y="848" type="line"/>
      <point x="301" y="858" type="line"/>
      <point x="340" y="905"/>
      <point x="387" y="1360"/>
      <point x="446" y="1360" type="curve" smooth="yes"/>
      <point x="458" y="1360"/>
      <point x="473" y="1353"/>
      <point x="473" y="1339" type="curve" smooth="yes"/>
      <point x="473" y="1304"/>
      <point x="446" y="1221"/>
      <point x="436" y="1186" type="curve" smooth="yes"/>
      <point x="393" y="1034"/>
      <point x="336" y="873"/>
      <point x="336" y="723" type="curve"/>
      <point x="340" y="713"/>
      <point x="346" y="700"/>
      <point x="346" y="688" type="curve" smooth="yes"/>
      <point x="346" y="668"/>
      <point x="334" y="652"/>
      <point x="334" y="629" type="curve" smooth="yes"/>
      <point x="334" y="566"/>
      <point x="350" y="505"/>
      <point x="350" y="442" type="curve" smooth="yes"/>
      <point x="350" y="333"/>
      <point x="352" y="226"/>
      <point x="352" y="117" type="curve" smooth="yes"/>
      <point x="352" y="108" type="line" smooth="yes"/>
      <point x="352" y="69"/>
      <point x="350" y="-31"/>
      <point x="309" y="-31" type="curve" smooth="yes"/>
      <point x="299" y="-31"/>
      <point x="283" y="-16"/>
    </contour>
  </outline>
</glyph>
<glyph name="uni0111" format="1">
  <advance width="653"/>
  <unicode hex="0111"/>
  <outline>
    <component base="d"/>
    <contour>
      <point x="306" y="652" type="curve" smooth="yes"/>
      <point x="306" y="644"/>
      <point x="146" y="638"/>
      <point x="89" y="638" type="curve" smooth="yes"/>
      <point x="71" y="638"/>
      <point x="46" y="649"/>
      <point x="46" y="672" type="curve" smooth="yes"/>
      <point x="46" y="680"/>
      <point x="209" y="687"/>
      <point x="261" y="687" type="curve" smooth="yes"/>
      <point x="279" y="687"/>
      <point x="306" y="672"/>
    </contour>
  </outline>
</glyph>
<glyph name="dotlessi" format="1">
  <advance width="550"/>
  <unicode hex="0131"/>
  <outline>
    <contour>
      <point x="227" y="20" type="curve"/>
      <point x="215" y="20"/>
      <point x="203" y="18"/>
      <point x="193" y="18" type="curve" smooth="yes"/>
      <point x="173" y="18"/>
      <point x="147" y="21"/>
      <point x="137" y="39" type="curve"/>
      <point x="137" y="57"/>
      <point x="152" y="60"/>
      <point x="164" y="74" type="curve"/>
      <point x="223" y="74" type="line"/>
      <point x="231" y="82" type="line"/>
      <point x="233" y="96"/>
      <point x="238" y="111"/>
      <point x="238" y="125" type="curve" smooth="yes"/>
      <point x="238" y="275"/>
      <point x="223" y="423"/>
      <point x="223" y="573" type="curve" smooth="yes"/>
      <point x="223" y="733"/>
      <point x="233" y="893"/>
      <point x="233" y="1051" type="curve" smooth="yes"/>
      <point x="233" y="1131"/>
      <point x="231" y="1210"/>
      <point x="223" y="1288" type="curve"/>
      <point x="203" y="1294"/>
      <point x="182" y="1294"/>
      <point x="162" y="1294" type="curve" smooth="yes"/>
      <point x="146" y="1294"/>
      <point x="129" y="1290"/>
      <point x="113" y="1290" type="curve" smooth="yes"/>
      <point x="88" y="1290"/>
      <point x="74" y="1300"/>
      <point x="74" y="1325" type="curve" smooth="yes"/>
      <point x="74" y="1339"/>
      <point x="111" y="1350"/>
      <point x="123" y="1350" type="curve" smooth="yes"/>
      <point x="162" y="1350"/>
      <point x="408" y="1349"/>
      <point x="408" y="1288" type="curve" smooth="yes"/>
      <point x="408" y="1282"/>
      <point x="405" y="1276"/>
      <point x="403" y="1272" type="curve"/>
      <point x="356" y="1268" type="line"/>
      <point x="340" y="1280"/>
      <point x="317" y="1280"/>
      <point x="297" y="1280" type="curve"/>
      <point x="287" y="1274" type="line"/>
      <point x="293" y="1256"/>
      <point x="293" y="1206"/>
      <point x="293" y="1165" type="curve" smooth="yes"/>
      <point x="293" y="1003"/>
      <point x="287" y="840"/>
      <point x="287" y="678" type="curve" smooth="yes"/>
      <point x="287" y="528"/>
      <point x="301" y="379"/>
      <point x="301" y="229" type="curve" smooth="yes"/>
      <point x="301" y="217"/>
      <point x="299" y="191"/>
      <point x="299" y="166" type="curve" smooth="yes"/>
      <point x="299" y="139"/>
      <point x="301" y="115"/>
      <point x="305" y="109" type="curve"/>
      <point x="303" y="104" type="line"/>
      <point x="303" y="84"/>
      <point x="334" y="84"/>
      <point x="348" y="84" type="curve" smooth="yes"/>
      <point x="368" y="84"/>
      <point x="388" y="86"/>
      <point x="408" y="86" type="curve" smooth="yes"/>
      <point x="428" y="86"/>
      <point x="469" y="86"/>
      <point x="469" y="57" type="curve" smooth="yes"/>
      <point x="469" y="32"/>
      <point x="449" y="16"/>
      <point x="424" y="16" type="curve" smooth="yes"/>
      <point x="401" y="16"/>
      <point x="379" y="23"/>
      <point x="356" y="23" type="curve" smooth="yes"/>
      <point x="325" y="23"/>
      <point x="310" y="0"/>
      <point x="283" y="0" type="curve" smooth="yes"/>
      <point x="265" y="0"/>
      <point x="235" y="0"/>
    </contour>
  </outline>
</glyph>
<glyph name="OE" format="1">
  <advance width="1163"/>
  <unicode hex="0152"/>
  <outline>
    <contour>
      <point x="713" y="10" type="curve"/>
      <point x="725" y="43" type="line"/>
      <point x="676" y="37"/>
      <point x="629" y="10"/>
      <point x="580" y="10" type="curve" smooth="yes"/>
      <point x="265" y="10"/>
      <point x="104" y="250"/>
      <point x="104" y="545" type="curve" smooth="yes"/>
      <point x="104" y="684"/>
      <point x="94" y="826"/>
      <point x="94" y="965" type="curve" smooth="yes"/>
      <point x="94" y="1147"/>
      <point x="145" y="1552"/>
      <point x="391" y="1552" type="curve" smooth="yes"/>
      <point x="483" y="1552"/>
      <point x="620" y="1545"/>
      <point x="686" y="1473" type="curve"/>
      <point x="680" y="1495" type="line"/>
      <point x="711" y="1538" type="line"/>
      <point x="738" y="1538"/>
      <point x="764" y="1526"/>
      <point x="791" y="1526" type="curve" smooth="yes"/>
      <point x="942" y="1526" type="line" smooth="yes"/>
      <point x="956" y="1526"/>
      <point x="973" y="1530"/>
      <point x="987" y="1530" type="curve"/>
      <point x="997" y="1524"/>
      <point x="1018" y="1505"/>
      <point x="1018" y="1493" type="curve" smooth="yes"/>
      <point x="1018" y="1473"/>
      <point x="995" y="1470"/>
      <point x="981" y="1470" type="curve" smooth="yes"/>
      <point x="901" y="1470"/>
      <point x="819" y="1479"/>
      <point x="739" y="1479" type="curve"/>
      <point x="739" y="1327"/>
      <point x="768" y="1176"/>
      <point x="768" y="1024" type="curve" smooth="yes"/>
      <point x="768" y="989"/>
      <point x="764" y="953"/>
      <point x="764" y="918" type="curve" smooth="yes"/>
      <point x="764" y="889"/>
      <point x="766" y="861"/>
      <point x="774" y="834" type="curve"/>
      <point x="854" y="831" type="line" smooth="yes"/>
      <point x="872" y="831"/>
      <point x="889" y="836"/>
      <point x="907" y="836" type="curve" smooth="yes"/>
      <point x="927" y="836"/>
      <point x="944" y="827"/>
      <point x="956" y="811" type="curve"/>
      <point x="956" y="786"/>
      <point x="949" y="778"/>
      <point x="924" y="778" type="curve" smooth="yes"/>
      <point x="893" y="778"/>
      <point x="862" y="784"/>
      <point x="831" y="784" type="curve" smooth="yes"/>
      <point x="821" y="784"/>
      <point x="772" y="784"/>
      <point x="772" y="766" type="curve" smooth="yes"/>
      <point x="772" y="522"/>
      <point x="786" y="279"/>
      <point x="786" y="35" type="curve"/>
      <point x="839" y="37"/>
      <point x="891" y="43"/>
      <point x="944" y="43" type="curve" smooth="yes"/>
      <point x="969" y="43"/>
      <point x="1085" y="43"/>
      <point x="1085" y="4" type="curve"/>
      <point x="1073" y="-14" type="line"/>
      <point x="969" y="-14"/>
      <point x="866" y="-20"/>
      <point x="762" y="-20" type="curve" smooth="yes"/>
      <point x="744" y="-20"/>
      <point x="715" y="-13"/>
    </contour>
    <contour>
      <point x="268" y="197" type="curve"/>
      <point x="338" y="121"/>
      <point x="426" y="72"/>
      <point x="530" y="72" type="curve" smooth="yes"/>
      <point x="581" y="72"/>
      <point x="733" y="80"/>
      <point x="733" y="154" type="curve" smooth="yes"/>
      <point x="733" y="488"/>
      <point x="705" y="819"/>
      <point x="705" y="1153" type="curve" smooth="yes"/>
      <point x="705" y="1235"/>
      <point x="692" y="1319"/>
      <point x="692" y="1401" type="curve"/>
      <point x="635" y="1477"/>
      <point x="516" y="1497"/>
      <point x="426" y="1497" type="curve" smooth="yes"/>
      <point x="174" y="1497"/>
      <point x="143" y="1153"/>
      <point x="143" y="967" type="curve" smooth="yes"/>
      <point x="143" y="918"/>
      <point x="145" y="868"/>
      <point x="145" y="821" type="curve" smooth="yes"/>
      <point x="145" y="796"/>
      <point x="145" y="773"/>
      <point x="143" y="748" type="curve"/>
      <point x="147" y="741" type="line"/>
      <point x="147" y="653"/>
      <point x="172" y="211"/>
    </contour>
  </outline>
</glyph>
<glyph name="oe" format="1">
  <advance width="1165"/>
  <unicode hex="0153"/>
  <outline>
    <contour>
      <point x="334" y="-39" type="curve" smooth="yes"/>
      <point x="98" y="-39"/>
      <point x="94" y="527"/>
      <point x="94" y="715" type="curve" smooth="yes"/>
      <point x="94" y="793"/>
      <point x="98" y="1376"/>
      <point x="225" y="1376" type="curve" smooth="yes"/>
      <point x="250" y="1376"/>
      <point x="252" y="1358"/>
      <point x="270" y="1352" type="curve" smooth="yes"/>
      <point x="393" y="1307"/>
      <point x="418" y="1354"/>
      <point x="477" y="1243" type="curve"/>
      <point x="489" y="1223"/>
      <point x="500" y="1199"/>
      <point x="510" y="1174" type="curve"/>
      <point x="508" y="1213"/>
      <point x="506" y="1251"/>
      <point x="506" y="1292" type="curve" smooth="yes"/>
      <point x="506" y="1329"/>
      <point x="520" y="1350"/>
      <point x="565" y="1350" type="curve" smooth="yes"/>
      <point x="577" y="1350"/>
      <point x="590" y="1347"/>
      <point x="598" y="1337" type="curve"/>
      <point x="633" y="1327"/>
      <point x="782" y="1325"/>
      <point x="786" y="1278" type="curve"/>
      <point x="786" y="1264"/>
      <point x="758" y="1245"/>
      <point x="748" y="1239" type="curve"/>
      <point x="699" y="1255"/>
      <point x="631" y="1276"/>
      <point x="582" y="1278" type="curve"/>
      <point x="571" y="1266" type="line"/>
      <point x="573" y="1237"/>
      <point x="573" y="1207"/>
      <point x="573" y="1178" type="curve" smooth="yes"/>
      <point x="573" y="1072"/>
      <point x="565" y="966"/>
      <point x="565" y="860" type="curve" smooth="yes"/>
      <point x="565" y="831"/>
      <point x="569" y="803"/>
      <point x="594" y="803" type="curve" smooth="yes"/>
      <point x="617" y="803"/>
      <point x="639" y="807"/>
      <point x="664" y="807" type="curve" smooth="yes"/>
      <point x="687" y="807"/>
      <point x="741" y="805"/>
      <point x="743" y="770" type="curve"/>
      <point x="743" y="745"/>
      <point x="731" y="717"/>
      <point x="702" y="717" type="curve" smooth="yes"/>
      <point x="688" y="717"/>
      <point x="663" y="723"/>
      <point x="655" y="733" type="curve"/>
      <point x="588" y="743" type="line"/>
      <point x="580" y="743" type="line"/>
      <point x="569" y="727" type="line"/>
      <point x="573" y="674"/>
      <point x="573" y="618"/>
      <point x="573" y="565" type="curve" smooth="yes"/>
      <point x="573" y="469"/>
      <point x="569" y="370"/>
      <point x="569" y="274" type="curve" smooth="yes"/>
      <point x="569" y="219"/>
      <point x="571" y="166"/>
      <point x="575" y="111" type="curve" smooth="yes"/>
      <point x="579" y="45"/>
      <point x="603" y="33"/>
      <point x="664" y="33" type="curve" smooth="yes"/>
      <point x="689" y="33"/>
      <point x="712" y="37"/>
      <point x="739" y="37" type="curve" smooth="yes"/>
      <point x="757" y="37"/>
      <point x="799" y="37"/>
      <point x="799" y="10" type="curve" smooth="yes"/>
      <point x="799" y="-27"/>
      <point x="738" y="-27"/>
      <point x="711" y="-27" type="curve" smooth="yes"/>
      <point x="541" y="-27" type="line" smooth="yes"/>
      <point x="512" y="-27"/>
      <point x="502" y="-9"/>
      <point x="500" y="16" type="curve"/>
      <point x="500" y="32"/>
      <point x="502" y="52"/>
      <point x="502" y="68" type="curve"/>
      <point x="496" y="76" type="line"/>
      <point x="500" y="88"/>
      <point x="504" y="103"/>
      <point x="506" y="117" type="curve"/>
      <point x="473" y="27"/>
      <point x="420" y="-39"/>
    </contour>
    <contour>
      <point x="162" y="555" type="curve" smooth="yes"/>
      <point x="162" y="475"/>
      <point x="181" y="20"/>
      <point x="326" y="20" type="curve" smooth="yes"/>
      <point x="492" y="20"/>
      <point x="500" y="436"/>
      <point x="500" y="563" type="curve" smooth="yes"/>
      <point x="500" y="725"/>
      <point x="477" y="885"/>
      <point x="477" y="1047" type="curve"/>
      <point x="469" y="1063" type="line"/>
      <point x="473" y="1073" type="line"/>
      <point x="473" y="1190"/>
      <point x="399" y="1294"/>
      <point x="301" y="1294" type="curve" smooth="yes"/>
      <point x="215" y="1294" type="line" smooth="yes"/>
      <point x="190" y="1294"/>
      <point x="180" y="966"/>
      <point x="168" y="909" type="curve"/>
      <point x="168" y="846"/>
      <point x="158" y="780"/>
      <point x="158" y="717" type="curve" smooth="yes"/>
      <point x="158" y="664"/>
      <point x="162" y="608"/>
    </contour>
  </outline>
</glyph>
<glyph name="tbar" format="1">
  <advance width="544"/>
  <unicode hex="0167"/>
  <outline>
    <contour>
      <point x="303" y="29" type="line"/>
      <point x="303" y="78"/>
      <point x="299" y="129"/>
      <point x="299" y="178" type="curve" smooth="yes"/>
      <point x="299" y="203"/>
      <point x="303" y="225"/>
      <point x="303" y="250" type="curve" smooth="yes"/>
      <point x="303" y="266"/>
      <point x="301" y="283"/>
      <point x="295" y="299" type="curve"/>
      <point x="295" y="429"/>
      <point x="288" y="558"/>
      <point x="279" y="687" type="curve"/>
      <point x="230" y="682"/>
      <point x="185" y="680"/>
      <point x="156" y="680" type="curve" smooth="yes"/>
      <point x="138" y="680"/>
      <point x="113" y="692"/>
      <point x="113" y="715" type="curve" smooth="yes"/>
      <point x="113" y="732"/>
      <point x="190" y="747"/>
      <point x="274" y="758" type="curve"/>
      <point x="261" y="938"/>
      <point x="246" y="1118"/>
      <point x="244" y="1298" type="curve"/>
      <point x="189" y="1298"/>
      <point x="82" y="1300"/>
      <point x="72" y="1337" type="curve"/>
      <point x="78" y="1353"/>
      <point x="95" y="1360"/>
      <point x="111" y="1360" type="curve" smooth="yes"/>
      <point x="205" y="1360"/>
      <point x="295" y="1341"/>
      <point x="389" y="1341" type="curve" smooth="yes"/>
      <point x="401" y="1341"/>
      <point x="414" y="1343"/>
      <point x="426" y="1343" type="curve" smooth="yes"/>
      <point x="444" y="1343"/>
      <point x="463" y="1340"/>
      <point x="463" y="1317" type="curve" smooth="yes"/>
      <point x="463" y="1297"/>
      <point x="436" y="1284"/>
      <point x="418" y="1284" type="curve" smooth="yes"/>
      <point x="381" y="1284"/>
      <point x="344" y="1298"/>
      <point x="307" y="1298" type="curve"/>
      <point x="297" y="1286" type="line"/>
      <point x="301" y="1278" type="line"/>
      <point x="297" y="1270"/>
      <point x="297" y="1261"/>
      <point x="297" y="1253" type="curve" smooth="yes"/>
      <point x="297" y="1090"/>
      <point x="309" y="927"/>
      <point x="322" y="764" type="curve"/>
      <point x="379" y="770"/>
      <point x="433" y="774"/>
      <point x="463" y="774" type="curve" smooth="yes"/>
      <point x="481" y="774"/>
      <point x="508" y="759"/>
      <point x="508" y="739" type="curve" smooth="yes"/>
      <point x="508" y="721"/>
      <point x="420" y="704"/>
      <point x="328" y="693" type="curve"/>
      <point x="346" y="479"/>
      <point x="365" y="265"/>
      <point x="365" y="51" type="curve" smooth="yes"/>
      <point x="365" y="31"/>
      <point x="346" y="12"/>
      <point x="326" y="12" type="curve"/>
    </contour>
  </outline>
</glyph>
<glyph name="Scommaaccent" format="1">
  <advance width="569"/>
  <unicode hex="0218"/>
  <outline>
    <contour>
      <point x="80" y="6" type="curve"/>
      <point x="80" y="20"/>
      <point x="84" y="31"/>
      <point x="102" y="31" type="curve" smooth="yes"/>
      <point x="143" y="31"/>
      <point x="176" y="0"/>
      <point x="215" y="0" type="curve" smooth="yes"/>
      <point x="350" y="0"/>
      <point x="397" y="238"/>
      <point x="397" y="340" type="curve" smooth="yes"/>
      <point x="397" y="721"/>
      <point x="104" y="926"/>
      <point x="104" y="1288" type="curve" smooth="yes"/>
      <point x="104" y="1407"/>
      <point x="168" y="1573"/>
      <point x="309" y="1573" type="curve" smooth="yes"/>
      <point x="334" y="1573"/>
      <point x="393" y="1547"/>
      <point x="403" y="1522" type="curve"/>
      <point x="391" y="1499" type="line"/>
      <point x="364" y="1499"/>
      <point x="344" y="1500"/>
      <point x="324" y="1520" type="curve"/>
      <point x="220" y="1520"/>
      <point x="174" y="1391"/>
      <point x="174" y="1305" type="curve" smooth="yes"/>
      <point x="174" y="1076"/>
      <point x="289" y="887"/>
      <point x="395" y="692" type="curve" smooth="yes"/>
      <point x="395" y="690"/>
      <point x="393" y="686"/>
      <point x="393" y="684" type="curve" smooth="yes"/>
      <point x="393" y="674"/>
      <point x="434" y="546"/>
      <point x="440" y="526" type="curve" smooth="yes"/>
      <point x="456" y="463"/>
      <point x="471" y="398"/>
      <point x="471" y="330" type="curve" smooth="yes"/>
      <point x="471" y="183"/>
      <point x="393" y="-45"/>
      <point x="215" y="-45" type="curve" smooth="yes"/>
      <point x="166" y="-45"/>
      <point x="107" y="-43"/>
    </contour>
    <contour>
      <point x="186" y="-424" type="line"/>
      <point x="190" y="-406" type="line"/>
      <point x="231" y="-367"/>
      <point x="297" y="-319"/>
      <point x="297" y="-256" type="curve"/>
      <point x="266" y="-238"/>
      <point x="238" y="-203"/>
      <point x="238" y="-166" type="curve" smooth="yes"/>
      <point x="238" y="-127"/>
      <point x="280" y="-102"/>
      <point x="315" y="-102" type="curve" smooth="yes"/>
      <point x="354" y="-102"/>
      <point x="371" y="-129"/>
      <point x="383" y="-162" type="curve"/>
      <point x="379" y="-168" type="line"/>
      <point x="383" y="-176"/>
      <point x="383" y="-185"/>
      <point x="383" y="-193" type="curve" smooth="yes"/>
      <point x="383" y="-259"/>
      <point x="293" y="-438"/>
      <point x="219" y="-440" type="curve"/>
    </contour>
  </outline>
</glyph>
<glyph name="scommaaccent" format="1">
  <advance width="489"/>
  <unicode hex="0219"/>
  <outline>
    <contour>
      <point x="90" y="25" type="curve"/>
      <point x="100" y="41" type="line"/>
      <point x="125" y="39"/>
      <point x="149" y="27"/>
      <point x="174" y="27" type="curve" smooth="yes"/>
      <point x="307" y="27"/>
      <point x="336" y="258"/>
      <point x="336" y="356" type="curve" smooth="yes"/>
      <point x="336" y="651"/>
      <point x="90" y="795"/>
      <point x="90" y="1098" type="curve" smooth="yes"/>
      <point x="90" y="1188"/>
      <point x="135" y="1378"/>
      <point x="252" y="1378" type="curve" smooth="yes"/>
      <point x="279" y="1378"/>
      <point x="330" y="1352"/>
      <point x="330" y="1321" type="curve" smooth="yes"/>
      <point x="330" y="1309"/>
      <point x="311" y="1305"/>
      <point x="303" y="1305" type="curve" smooth="yes"/>
      <point x="287" y="1305"/>
      <point x="276" y="1317"/>
      <point x="260" y="1317" type="curve" smooth="yes"/>
      <point x="170" y="1317"/>
      <point x="143" y="1158"/>
      <point x="143" y="1090" type="curve" smooth="yes"/>
      <point x="143" y="1022"/>
      <point x="164" y="962"/>
      <point x="182" y="899" type="curve"/>
      <point x="197" y="862" type="line"/>
      <point x="308" y="661"/>
      <point x="389" y="578"/>
      <point x="389" y="332" type="curve" smooth="yes"/>
      <point x="389" y="193"/>
      <point x="340" y="-20"/>
      <point x="166" y="-20" type="curve"/>
      <point x="156" y="-25" type="line"/>
      <point x="131" y="-21"/>
      <point x="94" y="-4"/>
    </contour>
    <contour>
      <point x="317" y="1313" type="curve"/>
      <point x="317" y="1311" type="line"/>
      <point x="319" y="1311" type="line"/>
      <point x="319" y="1313"/>
      <point x="319" y="1313"/>
    </contour>
    <contour>
      <point x="145" y="-424" type="line"/>
      <point x="150" y="-406" type="line"/>
      <point x="191" y="-367"/>
      <point x="256" y="-319"/>
      <point x="256" y="-256" type="curve"/>
      <point x="225" y="-238"/>
      <point x="197" y="-203"/>
      <point x="197" y="-166" type="curve" smooth="yes"/>
      <point x="197" y="-127"/>
      <point x="239" y="-102"/>
      <point x="274" y="-102" type="curve" smooth="yes"/>
      <point x="313" y="-102"/>
      <point x="330" y="-129"/>
      <point x="342" y="-162" type="curve"/>
      <point x="338" y="-168" type="line"/>
      <point x="342" y="-176"/>
      <point x="342" y="-185"/>
      <point x="342" y="-193" type="curve" smooth="yes"/>
      <point x="342" y="-259"/>
      <point x="252" y="-438"/>
      <point x="178" y="-440" type="curve"/>
    </contour>
  </outline>
</glyph>
<glyph name="uni021B" format="1">
  <advance width="544"/>
  <unicode hex="021B"/>
  <outline>
    <contour>
      <point x="303" y="29" type="line"/>
      <point x="303" y="78"/>
      <point x="299" y="129"/>
      <point x="299" y="178" type="curve" smooth="yes"/>
      <point x="299" y="203"/>
      <point x="303" y="225"/>
      <point x="303" y="250" type="curve" smooth="yes"/>
      <point x="303" y="266"/>
      <point x="301" y="283"/>
      <point x="295" y="299" type="curve"/>
      <point x="295" y="633"/>
      <point x="248" y="964"/>
      <point x="244" y="1298" type="curve"/>
      <point x="189" y="1298"/>
      <point x="82" y="1300"/>
      <point x="72" y="1337" type="curve"/>
      <point x="78" y="1353"/>
      <point x="95" y="1360"/>
      <point x="111" y="1360" type="curve" smooth="yes"/>
      <point x="205" y="1360"/>
      <point x="295" y="1341"/>
      <point x="389" y="1341" type="curve" smooth="yes"/>
      <point x="401" y="1341"/>
      <point x="414" y="1343"/>
      <point x="426" y="1343" type="curve" smooth="yes"/>
      <point x="444" y="1343"/>
      <point x="463" y="1340"/>
      <point x="463" y="1317" type="curve" smooth="yes"/>
      <point x="463" y="1297"/>
      <point x="436" y="1284"/>
      <point x="418" y="1284" type="curve" smooth="yes"/>
      <point x="381" y="1284"/>
      <point x="344" y="1298"/>
      <point x="307" y="1298" type="curve"/>
      <point x="297" y="1286" type="line"/>
      <point x="301" y="1278" type="line"/>
      <point x="297" y="1270"/>
      <point x="297" y="1261"/>
      <point x="297" y="1253" type="curve" smooth="yes"/>
      <point x="297" y="852"/>
      <point x="365" y="452"/>
      <point x="365" y="51" type="curve" smooth="yes"/>
      <point x="365" y="31"/>
      <point x="346" y="12"/>
      <point x="326" y="12" type="curve"/>
    </contour>
    <contour>
      <point x="174" y="-424" type="line"/>
      <point x="178" y="-406" type="line"/>
      <point x="219" y="-367"/>
      <point x="285" y="-319"/>
      <point x="285" y="-256" type="curve"/>
      <point x="254" y="-238"/>
      <point x="225" y="-203"/>
      <point x="225" y="-166" type="curve" smooth="yes"/>
      <point x="225" y="-127"/>
      <point x="268" y="-102"/>
      <point x="303" y="-102" type="curve" smooth="yes"/>
      <point x="342" y="-102"/>
      <point x="359" y="-129"/>
      <point x="371" y="-162" type="curve"/>
      <point x="367" y="-168" type="line"/>
      <point x="371" y="-176"/>
      <point x="371" y="-185"/>
      <point x="371" y="-193" type="curve" smooth="yes"/>
      <point x="371" y="-259"/>
      <point x="281" y="-438"/>
      <point x="207" y="-440" type="curve"/>
    </contour>
  </outline>
</glyph>
<glyph name="circumflex" format="1">
  <advance width="479"/>
  <unicode hex="02C6"/>
  <outline>
    <contour>
      <point x="342" y="950" type="curve"/>
      <point x="315" y="967" type="line"/>
      <point x="307" y="1071"/>
      <point x="283" y="1174"/>
      <point x="256" y="1274" type="curve"/>
      <point x="238" y="1221"/>
      <point x="174" y="1053"/>
      <point x="170" y="1008" type="curve"/>
      <point x="135" y="961" type="line"/>
      <point x="98" y="987" type="line"/>
      <point x="100" y="1038"/>
      <point x="225" y="1333"/>
      <point x="270" y="1333" type="curve" smooth="yes"/>
      <point x="297" y="1333"/>
      <point x="299" y="1310"/>
      <point x="299" y="1290" type="curve" smooth="yes"/>
      <point x="299" y="1200"/>
      <point x="337" y="1135"/>
      <point x="360" y="1051" type="curve"/>
      <point x="358" y="1038" type="line"/>
      <point x="373" y="1008" type="line"/>
      <point x="371" y="997" type="line"/>
      <point x="373" y="993"/>
      <point x="379" y="979"/>
      <point x="379" y="975" type="curve" smooth="yes"/>
      <point x="379" y="959"/>
      <point x="354" y="952"/>
    </contour>
  </outline>
</glyph>
<glyph name="dotaccent" format="1">
  <advance width="1705"/>
  <unicode hex="02D9"/>
  <outline>
    <contour>
      <point x="113" y="1202" type="curve" smooth="yes"/>
      <point x="113" y="1229"/>
      <point x="139" y="1257"/>
      <point x="166" y="1257" type="curve" smooth="yes"/>
      <point x="191" y="1257"/>
      <point x="215" y="1227"/>
      <point x="215" y="1204" type="curve" smooth="yes"/>
      <point x="215" y="1167"/>
      <point x="191" y="1153"/>
      <point x="158" y="1153" type="curve" smooth="yes"/>
      <point x="133" y="1153"/>
      <point x="113" y="1179"/>
    </contour>
  </outline>
</glyph>
<glyph name="ring" format="1">
  <advance width="395"/>
  <unicode hex="02DA"/>
  <outline>
    <contour>
      <point x="80" y="1165" type="curve" smooth="yes"/>
      <point x="80" y="1226"/>
      <point x="138" y="1292"/>
      <point x="199" y="1292" type="curve" smooth="yes"/>
      <point x="252" y="1292"/>
      <point x="311" y="1225"/>
      <point x="311" y="1174" type="curve" smooth="yes"/>
      <point x="311" y="1094"/>
      <point x="254" y="1057"/>
      <point x="180" y="1057" type="curve" smooth="yes"/>
      <point x="125" y="1057"/>
      <point x="80" y="1112"/>
    </contour>
    <contour>
      <point x="127" y="1176" type="curve" smooth="yes"/>
      <point x="127" y="1151"/>
      <point x="133" y="1096"/>
      <point x="172" y="1096" type="curve" smooth="yes"/>
      <point x="201" y="1096"/>
      <point x="258" y="1120"/>
      <point x="258" y="1153" type="curve" smooth="yes"/>
      <point x="258" y="1192"/>
      <point x="244" y="1253"/>
      <point x="199" y="1253" type="curve" smooth="yes"/>
      <point x="166" y="1253"/>
      <point x="127" y="1213"/>
    </contour>
  </outline>
</glyph>
<glyph name="ogonek" format="1">
  <advance width="468"/>
  <unicode hex="02DB"/>
  <outline>
    <contour>
      <point x="254" y="-8" type="curve"/>
      <point x="313" y="-16" type="line" smooth="yes"/>
      <point x="314" y="-15"/>
      <point x="315" y="-15"/>
      <point x="315" y="-15" type="curve" smooth="yes"/>
      <point x="316" y="-16" type="line" smooth="yes"/>
      <point x="316" y="-25"/>
      <point x="205" y="-146"/>
      <point x="205" y="-250" type="curve" smooth="yes"/>
      <point x="205" y="-264"/>
      <point x="203" y="-283"/>
      <point x="201" y="-297" type="curve"/>
      <point x="201" y="-309"/>
      <point x="199" y="-324"/>
      <point x="199" y="-340" type="curve" smooth="yes"/>
      <point x="199" y="-373"/>
      <point x="233" y="-424"/>
      <point x="268" y="-424" type="curve" smooth="yes"/>
      <point x="293" y="-424"/>
      <point x="309" y="-403"/>
      <point x="334" y="-403" type="curve" smooth="yes"/>
      <point x="350" y="-403"/>
      <point x="356" y="-410"/>
      <point x="356" y="-424" type="curve" smooth="yes"/>
      <point x="356" y="-463"/>
      <point x="299" y="-479"/>
      <point x="268" y="-479" type="curve" smooth="yes"/>
      <point x="178" y="-479"/>
      <point x="113" y="-372"/>
      <point x="113" y="-317" type="curve" smooth="yes"/>
      <point x="113" y="-143"/>
      <point x="254" y="-8"/>
    </contour>
  </outline>
</glyph>
<glyph name="tilde" format="1">
  <advance width="653"/>
  <unicode hex="02DC"/>
  <outline>
    <contour>
      <point x="111" y="1055" type="curve" smooth="yes"/>
      <point x="111" y="1147"/>
      <point x="170" y="1197"/>
      <point x="230" y="1197" type="curve" smooth="yes"/>
      <point x="261" y="1197"/>
      <point x="293" y="1183"/>
      <point x="317" y="1155" type="curve"/>
      <point x="336" y="1116"/>
      <point x="392" y="1076"/>
      <point x="434" y="1076" type="curve" smooth="yes"/>
      <point x="464" y="1076"/>
      <point x="487" y="1096"/>
      <point x="487" y="1149" type="curve" smooth="yes"/>
      <point x="487" y="1163"/>
      <point x="477" y="1174"/>
      <point x="475" y="1188" type="curve"/>
      <point x="479" y="1196"/>
      <point x="488" y="1200"/>
      <point x="496" y="1200" type="curve" smooth="yes"/>
      <point x="531" y="1200"/>
      <point x="543" y="1159"/>
      <point x="543" y="1130" type="curve" smooth="yes"/>
      <point x="543" y="1073"/>
      <point x="491" y="1022"/>
      <point x="434" y="1022" type="curve" smooth="yes"/>
      <point x="354" y="1022"/>
      <point x="299" y="1088"/>
      <point x="252" y="1143" type="curve"/>
      <point x="238" y="1149" type="line"/>
      <point x="199" y="1149"/>
      <point x="162" y="1125"/>
      <point x="162" y="1094" type="curve" smooth="yes"/>
      <point x="162" y="1080"/>
      <point x="168" y="1065"/>
      <point x="172" y="1051" type="curve"/>
      <point x="150" y="1020" type="line"/>
      <point x="134" y="1020"/>
      <point x="111" y="1037"/>
    </contour>
  </outline>
</glyph>
<glyph name="hungarumlaut" format="1">
  <advance width="1222"/>
  <unicode hex="02DD"/>
  <outline>
    <contour>
      <point x="142" y="50" type="line"/>
      <point x="149" y="81"/>
      <point x="476" y="332"/>
      <point x="500" y="332" type="curve" smooth="yes"/>
      <point x="503" y="332"/>
      <point x="523" y="317"/>
      <point x="523" y="301" type="curve" smooth="yes"/>
      <point x="523" y="294"/>
      <point x="519" y="287"/>
      <point x="509" y="281" type="curve"/>
      <point x="492" y="268"/>
      <point x="335" y="148"/>
      <point x="307" y="130" type="curve"/>
      <point x="252" y="104"/>
      <point x="212" y="53"/>
      <point x="152" y="39" type="curve"/>
    </contour>
    <contour>
      <point x="450" y="60" type="curve" smooth="yes"/>
      <point x="450" y="85"/>
      <point x="673" y="238"/>
      <point x="703" y="257" type="curve" smooth="yes"/>
      <point x="717" y="265"/>
      <point x="803" y="317"/>
      <point x="817" y="317" type="curve" smooth="yes"/>
      <point x="832" y="317"/>
      <point x="855" y="288"/>
      <point x="859" y="267" type="curve"/>
      <point x="753" y="207" type="line"/>
      <point x="728" y="197"/>
      <point x="678" y="171"/>
      <point x="642" y="152" type="curve" smooth="yes"/>
      <point x="612" y="136"/>
      <point x="479" y="45"/>
      <point x="461" y="45" type="curve" smooth="yes"/>
      <point x="451" y="45"/>
      <point x="450" y="52"/>
    </contour>
  </outline>
</glyph>
<glyph name="uni0311" format="1">
  <advance width="518"/>
  <unicode hex="0311"/>
  <outline>
    <contour>
      <point x="109" y="909" type="line"/>
      <point x="109" y="1003"/>
      <point x="143" y="1118"/>
      <point x="258" y="1118" type="curve" smooth="yes"/>
      <point x="358" y="1118"/>
      <point x="371" y="1049"/>
      <point x="406" y="975" type="curve"/>
      <point x="401" y="960" type="line"/>
      <point x="403" y="952"/>
      <point x="412" y="936"/>
      <point x="412" y="928" type="curve" smooth="yes"/>
      <point x="412" y="912"/>
      <point x="395" y="899"/>
      <point x="381" y="899" type="curve" smooth="yes"/>
      <point x="350" y="899"/>
      <point x="344" y="918"/>
      <point x="344" y="938" type="curve" smooth="yes"/>
      <point x="344" y="948"/>
      <point x="346" y="957"/>
      <point x="346" y="967" type="curve" smooth="yes"/>
      <point x="346" y="1000"/>
      <point x="315" y="1071"/>
      <point x="276" y="1071" type="curve" smooth="yes"/>
      <point x="225" y="1071" type="line"/>
      <point x="203" y="1055" type="line" smooth="yes"/>
      <point x="144" y="1012"/>
      <point x="166" y="893"/>
      <point x="131" y="891" type="curve"/>
    </contour>
  </outline>
</glyph>
<glyph name="quoteright" format="1">
  <advance width="397"/>
  <unicode hex="2019"/>
  <outline>
    <contour>
      <point x="96" y="1233" type="line"/>
      <point x="100" y="1251" type="line"/>
      <point x="141" y="1290"/>
      <point x="207" y="1338"/>
      <point x="207" y="1401" type="curve"/>
      <point x="176" y="1419"/>
      <point x="147" y="1454"/>
      <point x="147" y="1491" type="curve" smooth="yes"/>
      <point x="147" y="1530"/>
      <point x="190" y="1554"/>
      <point x="225" y="1554" type="curve" smooth="yes"/>
      <point x="264" y="1554"/>
      <point x="281" y="1528"/>
      <point x="293" y="1495" type="curve"/>
      <point x="289" y="1489" type="line"/>
      <point x="293" y="1481"/>
      <point x="293" y="1472"/>
      <point x="293" y="1464" type="curve" smooth="yes"/>
      <point x="293" y="1398"/>
      <point x="203" y="1219"/>
      <point x="129" y="1217" type="curve"/>
    </contour>
  </outline>
</glyph>
<glyph name="quotedblleft" format="1">
  <advance width="608"/>
  <unicode hex="201C"/>
  <outline>
    <contour>
      <point x="297" y="1538" type="line"/>
      <point x="293" y="1520" type="line"/>
      <point x="252" y="1481"/>
      <point x="186" y="1433"/>
      <point x="186" y="1370" type="curve"/>
      <point x="217" y="1352"/>
      <point x="246" y="1317"/>
      <point x="246" y="1280" type="curve" smooth="yes"/>
      <point x="246" y="1241"/>
      <point x="203" y="1217"/>
      <point x="168" y="1217" type="curve" smooth="yes"/>
      <point x="129" y="1217"/>
      <point x="112" y="1243"/>
      <point x="100" y="1276" type="curve"/>
      <point x="104" y="1282" type="line"/>
      <point x="100" y="1290"/>
      <point x="100" y="1299"/>
      <point x="100" y="1307" type="curve" smooth="yes"/>
      <point x="100" y="1373"/>
      <point x="190" y="1552"/>
      <point x="264" y="1554" type="curve"/>
    </contour>
    <contour>
      <point x="510" y="1538" type="line"/>
      <point x="506" y="1520" type="line"/>
      <point x="465" y="1481"/>
      <point x="399" y="1433"/>
      <point x="399" y="1370" type="curve"/>
      <point x="430" y="1352"/>
      <point x="459" y="1317"/>
      <point x="459" y="1280" type="curve" smooth="yes"/>
      <point x="459" y="1241"/>
      <point x="416" y="1217"/>
      <point x="381" y="1217" type="curve" smooth="yes"/>
      <point x="342" y="1217"/>
      <point x="325" y="1243"/>
      <point x="313" y="1276" type="curve"/>
      <point x="317" y="1282" type="line"/>
      <point x="313" y="1290"/>
      <point x="313" y="1299"/>
      <point x="313" y="1307" type="curve" smooth="yes"/>
      <point x="313" y="1373"/>
      <point x="403" y="1552"/>
      <point x="477" y="1554" type="curve"/>
    </contour>
  </outline>
</glyph>
<glyph name="quotedblbase" format="1">
  <advance width="636"/>
  <unicode hex="201E"/>
  <outline>
    <contour>
      <point x="125" y="-174" type="curve"/>
      <point x="100" y="-158" type="line"/>
      <point x="127" y="-97"/>
      <point x="215" y="-72"/>
      <point x="215" y="6" type="curve"/>
      <point x="184" y="24"/>
      <point x="156" y="59"/>
      <point x="156" y="96" type="curve" smooth="yes"/>
      <point x="156" y="135"/>
      <point x="198" y="160"/>
      <point x="233" y="160" type="curve" smooth="yes"/>
      <point x="274" y="160"/>
      <point x="301" y="121"/>
      <point x="301" y="82" type="curve" smooth="yes"/>
      <point x="301" y="4"/>
      <point x="215" y="-174"/>
    </contour>
    <contour>
      <point x="330" y="-162" type="line"/>
      <point x="334" y="-143" type="line"/>
      <point x="375" y="-104"/>
      <point x="440" y="-57"/>
      <point x="440" y="6" type="curve"/>
      <point x="409" y="24"/>
      <point x="381" y="59"/>
      <point x="381" y="96" type="curve" smooth="yes"/>
      <point x="381" y="135"/>
      <point x="424" y="160"/>
      <point x="459" y="160" type="curve" smooth="yes"/>
      <point x="500" y="160"/>
      <point x="526" y="121"/>
      <point x="526" y="82" type="curve" smooth="yes"/>
      <point x="526" y="10"/>
      <point x="444" y="-176"/>
      <point x="362" y="-178" type="curve"/>
    </contour>
  </outline>
</glyph>
<glyph name="Euro" format="1">
  <advance width="696"/>
  <unicode hex="20AC"/>
  <outline>
    <contour>
      <point x="97" y="805" type="curve"/>
      <point x="46" y="804"/>
      <point x="12" y="804"/>
      <point x="-14" y="804" type="curve" smooth="yes"/>
      <point x="-49" y="804"/>
      <point x="-63" y="823"/>
      <point x="-63" y="839" type="curve" smooth="yes"/>
      <point x="-63" y="848"/>
      <point x="-59" y="856"/>
      <point x="-51" y="859" type="curve" smooth="yes"/>
      <point x="-47" y="860"/>
      <point x="13" y="866"/>
      <point x="96" y="869" type="curve"/>
      <point x="96" y="877" type="line" smooth="yes"/>
      <point x="96" y="950"/>
      <point x="94" y="1022"/>
      <point x="94" y="1090" type="curve" smooth="yes"/>
      <point x="94" y="1355"/>
      <point x="123" y="1565"/>
      <point x="406" y="1565" type="curve" smooth="yes"/>
      <point x="445" y="1565"/>
      <point x="524" y="1536"/>
      <point x="524" y="1489" type="curve" smooth="yes"/>
      <point x="524" y="1471"/>
      <point x="506" y="1466"/>
      <point x="492" y="1466" type="curve" smooth="yes"/>
      <point x="246" y="1466"/>
      <point x="164" y="1449"/>
      <point x="164" y="1153" type="curve" smooth="yes"/>
      <point x="164" y="1051"/>
      <point x="157" y="962"/>
      <point x="152" y="871" type="curve"/>
      <point x="279" y="875"/>
      <point x="428" y="877"/>
      <point x="473" y="877" type="curve" smooth="yes"/>
      <point x="491" y="877"/>
      <point x="518" y="842"/>
      <point x="518" y="822" type="curve" smooth="yes"/>
      <point x="518" y="815"/>
      <point x="311" y="809"/>
      <point x="153" y="806" type="curve"/>
      <point x="154" y="773"/>
      <point x="157" y="770"/>
      <point x="160" y="717" type="curve"/>
      <point x="291" y="721"/>
      <point x="450" y="723"/>
      <point x="497" y="723" type="curve" smooth="yes"/>
      <point x="515" y="723"/>
      <point x="542" y="685"/>
      <point x="542" y="665" type="curve" smooth="yes"/>
      <point x="542" y="658"/>
      <point x="323" y="652"/>
      <point x="163" y="649" type="curve"/>
      <point x="178" y="446"/>
      <point x="205" y="175"/>
      <point x="236" y="127" type="curve" smooth="yes"/>
      <point x="273" y="70"/>
      <point x="347" y="47"/>
      <point x="410" y="47" type="curve" smooth="yes"/>
      <point x="463" y="47"/>
      <point x="518" y="65"/>
      <point x="553" y="106" type="curve"/>
      <point x="569" y="106"/>
      <point x="584" y="109"/>
      <point x="600" y="113" type="curve"/>
      <point x="610" y="102" type="line"/>
      <point x="610" y="-2"/>
      <point x="465" y="-33"/>
      <point x="383" y="-33" type="curve" smooth="yes"/>
      <point x="301" y="-33"/>
      <point x="205" y="43"/>
      <point x="172" y="115" type="curve" smooth="yes"/>
      <point x="146" y="171"/>
      <point x="121" y="440"/>
      <point x="107" y="648" type="curve"/>
      <point x="67" y="647"/>
      <point x="34" y="647"/>
      <point x="16" y="647" type="curve" smooth="yes"/>
      <point x="-2" y="647"/>
      <point x="-27" y="682"/>
      <point x="-27" y="705" type="curve" smooth="yes"/>
      <point x="-27" y="709"/>
      <point x="29" y="712"/>
      <point x="104" y="715" type="curve"/>
      <point x="101" y="767"/>
      <point x="98" y="769"/>
    </contour>
  </outline>
</glyph>
<glyph name="trademark" format="1">
  <advance width="1075"/>
  <unicode hex="2122"/>
  <outline>
    <contour>
      <point x="266" y="662" type="line"/>
      <point x="268" y="670"/>
      <point x="268" y="678"/>
      <point x="268" y="688" type="curve" smooth="yes"/>
      <point x="268" y="704"/>
      <point x="266" y="721"/>
      <point x="266" y="739" type="curve" smooth="yes"/>
      <point x="266" y="750" type="line"/>
      <point x="272" y="756"/>
      <point x="272" y="807"/>
      <point x="272" y="815" type="curve" smooth="yes"/>
      <point x="272" y="829"/>
      <point x="272" y="867"/>
      <point x="266" y="879" type="curve"/>
      <point x="268" y="906"/>
      <point x="270" y="934"/>
      <point x="270" y="961" type="curve" smooth="yes"/>
      <point x="270" y="1037"/>
      <point x="262" y="1114"/>
      <point x="262" y="1190" type="curve" smooth="yes"/>
      <point x="262" y="1262"/>
      <point x="268" y="1331"/>
      <point x="268" y="1403" type="curve" smooth="yes"/>
      <point x="268" y="1417"/>
      <point x="268" y="1491"/>
      <point x="258" y="1501" type="curve"/>
      <point x="221" y="1501"/>
      <point x="184" y="1493"/>
      <point x="145" y="1493" type="curve" smooth="yes"/>
      <point x="133" y="1493"/>
      <point x="88" y="1493"/>
      <point x="88" y="1513" type="curve" smooth="yes"/>
      <point x="88" y="1520" type="line"/>
      <point x="102" y="1544" type="line"/>
      <point x="202" y="1552"/>
      <point x="303" y="1565"/>
      <point x="403" y="1565" type="curve" smooth="yes"/>
      <point x="421" y="1565"/>
      <point x="441" y="1561"/>
      <point x="459" y="1561" type="curve"/>
      <point x="483" y="1536" type="line"/>
      <point x="483" y="1505"/>
      <point x="449" y="1501"/>
      <point x="408" y="1501" type="curve" smooth="yes"/>
      <point x="383" y="1501"/>
      <point x="354" y="1503"/>
      <point x="334" y="1503" type="curve"/>
      <point x="328" y="1495" type="line"/>
      <point x="324" y="1450"/>
      <point x="322" y="1407"/>
      <point x="322" y="1362" type="curve" smooth="yes"/>
      <point x="322" y="1198"/>
      <point x="336" y="1034"/>
      <point x="336" y="870" type="curve" smooth="yes"/>
      <point x="336" y="817"/>
      <point x="334" y="762"/>
      <point x="330" y="709" type="curve"/>
      <point x="332" y="703"/>
      <point x="338" y="690"/>
      <point x="338" y="684" type="curve" smooth="yes"/>
      <point x="338" y="668"/>
      <point x="309" y="651"/>
      <point x="295" y="647" type="curve"/>
    </contour>
    <contour>
      <point x="502" y="690" type="curve" smooth="yes"/>
      <point x="502" y="762"/>
      <point x="514" y="835"/>
      <point x="514" y="907" type="curve" smooth="yes"/>
      <point x="514" y="1120"/>
      <point x="514" y="1333"/>
      <point x="532" y="1546" type="curve"/>
      <point x="546" y="1560"/>
      <point x="559" y="1589"/>
      <point x="582" y="1589" type="curve" smooth="yes"/>
      <point x="594" y="1589"/>
      <point x="608" y="1575"/>
      <point x="616" y="1567" type="curve"/>
      <point x="614" y="1561"/>
      <point x="614" y="1554"/>
      <point x="614" y="1546" type="curve" smooth="yes"/>
      <point x="614" y="1442"/>
      <point x="689" y="1285"/>
      <point x="709" y="1174" type="curve" smooth="yes"/>
      <point x="713" y="1154"/>
      <point x="719" y="1059"/>
      <point x="733" y="1053" type="curve"/>
      <point x="796" y="1203"/>
      <point x="835" y="1364"/>
      <point x="874" y="1522" type="curve" smooth="yes"/>
      <point x="882" y="1555"/>
      <point x="885" y="1616"/>
      <point x="932" y="1616" type="curve" smooth="yes"/>
      <point x="948" y="1616"/>
      <point x="965" y="1605"/>
      <point x="965" y="1587" type="curve" smooth="yes"/>
      <point x="965" y="1442"/>
      <point x="942" y="1298"/>
      <point x="942" y="1153" type="curve" smooth="yes"/>
      <point x="942" y="1030"/>
      <point x="956" y="909"/>
      <point x="956" y="786" type="curve" smooth="yes"/>
      <point x="956" y="751"/>
      <point x="956" y="641"/>
      <point x="903" y="641" type="curve" smooth="yes"/>
      <point x="885" y="641"/>
      <point x="872" y="643"/>
      <point x="872" y="666" type="curve" smooth="yes"/>
      <point x="872" y="744"/>
      <point x="885" y="823"/>
      <point x="885" y="901" type="curve" smooth="yes"/>
      <point x="885" y="997"/>
      <point x="874" y="1096"/>
      <point x="874" y="1192" type="curve" smooth="yes"/>
      <point x="874" y="1233"/>
      <point x="881" y="1278"/>
      <point x="881" y="1319" type="curve" smooth="yes"/>
      <point x="881" y="1327"/>
      <point x="881" y="1333"/>
      <point x="877" y="1339" type="curve"/>
      <point x="865" y="1294"/>
      <point x="842" y="1131"/>
      <point x="811" y="1108" type="curve"/>
      <point x="801" y="1088"/>
      <point x="799" y="1063"/>
      <point x="799" y="1040" type="curve"/>
      <point x="793" y="1034" type="line"/>
      <point x="795" y="1030" type="line"/>
      <point x="785" y="999"/>
      <point x="770" y="864"/>
      <point x="729" y="864" type="curve" smooth="yes"/>
      <point x="659" y="864"/>
      <point x="684" y="1018"/>
      <point x="659" y="1063" type="curve"/>
      <point x="645" y="1182"/>
      <point x="602" y="1296"/>
      <point x="582" y="1415" type="curve"/>
      <point x="568" y="1229"/>
      <point x="567" y="1084"/>
      <point x="567" y="877" type="curve" smooth="yes"/>
      <point x="567" y="814"/>
      <point x="570" y="747"/>
      <point x="578" y="733" type="curve"/>
      <point x="578" y="717" type="line" smooth="yes"/>
      <point x="578" y="670"/>
      <point x="576" y="641"/>
      <point x="526" y="641" type="curve" smooth="yes"/>
      <point x="501" y="641"/>
      <point x="502" y="674"/>
    </contour>
  </outline>
</glyph>
